<svg width="55" height="55" viewBox="0 0 55 55" fill="none" xmlns="http://www.w3.org/2000/svg">
<rect width="55" height="55" fill="#F5F5F5"/>
<g clip-path="url(#clip0_0_1)">
<rect x="-939" y="-1031" width="1440" height="2130" fill="#F5F8F3"/>
<g filter="url(#filter0_d_0_1)">
<rect x="-200" y="-16" width="280" height="250" rx="12" fill="#F5F5F7"/>
</g>
<circle cx="27.5" cy="27.5" r="27.5" fill="#0E902E"/>
<path d="M-172.686 75V53.5254H-165.288C-163.618 53.5254 -162.344 53.6279 -161.465 53.833C-160.234 54.1162 -159.185 54.6289 -158.315 55.3711C-157.183 56.3281 -156.338 57.5537 -155.781 59.0479C-155.215 60.5322 -154.932 62.2314 -154.932 64.1455C-154.932 65.7764 -155.122 67.2217 -155.503 68.4814C-155.884 69.7412 -156.372 70.7861 -156.968 71.6162C-157.563 72.4365 -158.218 73.0859 -158.931 73.5645C-159.634 74.0332 -160.488 74.3896 -161.494 74.6338C-162.49 74.8779 -163.638 75 -164.937 75H-172.686ZM-169.844 72.4658H-165.259C-163.843 72.4658 -162.734 72.334 -161.934 72.0703C-161.123 71.8066 -160.479 71.4355 -160 70.957C-159.326 70.2832 -158.804 69.3799 -158.433 68.2471C-158.052 67.1045 -157.861 65.7227 -157.861 64.1016C-157.861 61.8555 -158.232 60.1318 -158.975 58.9307C-159.707 57.7197 -160.601 56.9092 -161.655 56.499C-162.417 56.2061 -163.643 56.0596 -165.332 56.0596H-169.844V72.4658ZM-140.693 69.9902L-137.969 70.3271C-138.398 71.9189 -139.194 73.1543 -140.356 74.0332C-141.519 74.9121 -143.003 75.3516 -144.81 75.3516C-147.085 75.3516 -148.892 74.6533 -150.229 73.2568C-151.558 71.8506 -152.222 69.8828 -152.222 67.3535C-152.222 64.7363 -151.548 62.7051 -150.2 61.2598C-148.853 59.8145 -147.104 59.0918 -144.956 59.0918C-142.876 59.0918 -141.177 59.7998 -139.858 61.2158C-138.54 62.6318 -137.881 64.624 -137.881 67.1924C-137.881 67.3486 -137.886 67.583 -137.896 67.8955H-149.497C-149.399 69.6045 -148.916 70.9131 -148.047 71.8213C-147.178 72.7295 -146.094 73.1836 -144.795 73.1836C-143.828 73.1836 -143.003 72.9297 -142.319 72.4219C-141.636 71.9141 -141.094 71.1035 -140.693 69.9902ZM-149.351 65.7275H-140.664C-140.781 64.4189 -141.113 63.4375 -141.66 62.7832C-142.5 61.7676 -143.589 61.2598 -144.927 61.2598C-146.138 61.2598 -147.158 61.665 -147.988 62.4756C-148.809 63.2861 -149.263 64.3701 -149.351 65.7275ZM-134.629 56.5576V53.5254H-131.992V56.5576H-134.629ZM-134.629 75V59.4434H-131.992V75H-134.629ZM-127.964 75V59.4434H-125.605V61.626C-125.117 60.8643 -124.468 60.2539 -123.657 59.7949C-122.847 59.3262 -121.924 59.0918 -120.889 59.0918C-119.736 59.0918 -118.794 59.3311 -118.062 59.8096C-117.319 60.2881 -116.797 60.957 -116.494 61.8164C-115.264 60 -113.662 59.0918 -111.689 59.0918C-110.146 59.0918 -108.96 59.5215 -108.13 60.3809C-107.3 61.2305 -106.885 62.5439 -106.885 64.3213V75H-109.507V65.2002C-109.507 64.1455 -109.595 63.3887 -109.771 62.9297C-109.937 62.4609 -110.244 62.085 -110.693 61.8018C-111.143 61.5186 -111.67 61.377 -112.275 61.377C-113.369 61.377 -114.277 61.7432 -115 62.4756C-115.723 63.1982 -116.084 64.3604 -116.084 65.9619V75H-118.721V64.8926C-118.721 63.7207 -118.936 62.8418 -119.365 62.2559C-119.795 61.6699 -120.498 61.377 -121.475 61.377C-122.217 61.377 -122.905 61.5723 -123.54 61.9629C-124.165 62.3535 -124.619 62.9248 -124.902 63.6768C-125.186 64.4287 -125.327 65.5127 -125.327 66.9287V75H-127.964ZM-92.8223 73.0811C-93.7988 73.9111 -94.7412 74.4971 -95.6494 74.8389C-96.5479 75.1807 -97.5146 75.3516 -98.5498 75.3516C-100.259 75.3516 -101.572 74.9365 -102.49 74.1064C-103.408 73.2666 -103.867 72.1973 -103.867 70.8984C-103.867 70.1367 -103.696 69.4434 -103.354 68.8184C-103.003 68.1836 -102.549 67.6758 -101.992 67.2949C-101.426 66.9141 -100.791 66.626 -100.088 66.4307C-99.5703 66.2939 -98.7891 66.1621 -97.7441 66.0352C-95.6152 65.7812 -94.0479 65.4785 -93.042 65.127C-93.0322 64.7656 -93.0273 64.5361 -93.0273 64.4385C-93.0273 63.3643 -93.2764 62.6074 -93.7744 62.168C-94.4482 61.5723 -95.4492 61.2744 -96.7773 61.2744C-98.0176 61.2744 -98.9355 61.4941 -99.5312 61.9336C-100.117 62.3633 -100.552 63.1299 -100.835 64.2334L-103.413 63.8818C-103.179 62.7783 -102.793 61.8896 -102.256 61.2158C-101.719 60.5322 -100.942 60.0098 -99.9268 59.6484C-98.9111 59.2773 -97.7344 59.0918 -96.3965 59.0918C-95.0684 59.0918 -93.9893 59.248 -93.1592 59.5605C-92.3291 59.873 -91.7188 60.2686 -91.3281 60.7471C-90.9375 61.2158 -90.6641 61.8115 -90.5078 62.5342C-90.4199 62.9834 -90.376 63.7939 -90.376 64.9658V68.4814C-90.376 70.9326 -90.3223 72.4854 -90.2148 73.1396C-90.0977 73.7842 -89.873 74.4043 -89.541 75H-92.2949C-92.5684 74.4531 -92.7441 73.8135 -92.8223 73.0811ZM-93.042 67.1924C-93.999 67.583 -95.4346 67.915 -97.3486 68.1885C-98.4326 68.3447 -99.1992 68.5205 -99.6484 68.7158C-100.098 68.9111 -100.444 69.1992 -100.688 69.5801C-100.933 69.9512 -101.055 70.3662 -101.055 70.8252C-101.055 71.5283 -100.791 72.1143 -100.264 72.583C-99.7266 73.0518 -98.9453 73.2861 -97.9199 73.2861C-96.9043 73.2861 -96.001 73.0664 -95.21 72.627C-94.4189 72.1777 -93.8379 71.5674 -93.4668 70.7959C-93.1836 70.2002 -93.042 69.3213 -93.042 68.1592V67.1924ZM-86.2744 75V59.4434H-83.9014V61.6553C-82.7588 59.9463 -81.1084 59.0918 -78.9502 59.0918C-78.0127 59.0918 -77.1533 59.2627 -76.3721 59.6045C-75.5811 59.9365 -74.9902 60.376 -74.5996 60.9229C-74.209 61.4697 -73.9355 62.1191 -73.7793 62.8711C-73.6816 63.3594 -73.6328 64.2139 -73.6328 65.4346V75H-76.2695V65.5371C-76.2695 64.4629 -76.3721 63.6621 -76.5771 63.1348C-76.7822 62.5977 -77.1484 62.1729 -77.6758 61.8604C-78.1934 61.5381 -78.8037 61.377 -79.5068 61.377C-80.6299 61.377 -81.6016 61.7334 -82.4219 62.4463C-83.2324 63.1592 -83.6377 64.5117 -83.6377 66.5039V75H-86.2744ZM-63.8184 72.6416L-63.4375 74.9707C-64.1797 75.127 -64.8438 75.2051 -65.4297 75.2051C-66.3867 75.2051 -67.1289 75.0537 -67.6562 74.751C-68.1836 74.4482 -68.5547 74.0527 -68.7695 73.5645C-68.9844 73.0664 -69.0918 72.0264 -69.0918 70.4443V61.4941H-71.0254V59.4434H-69.0918V55.5908L-66.4697 54.0088V59.4434H-63.8184V61.4941H-66.4697V70.5908C-66.4697 71.3428 -66.4258 71.8262 -66.3379 72.041C-66.2402 72.2559 -66.0889 72.4268 -65.8838 72.5537C-65.6689 72.6807 -65.3662 72.7441 -64.9756 72.7441C-64.6826 72.7441 -64.2969 72.71 -63.8184 72.6416ZM-61.2109 56.5576V53.5254H-58.5742V56.5576H-61.2109ZM-61.2109 75V59.4434H-58.5742V75H-61.2109ZM-54.5459 75V59.4434H-52.1729V61.6553C-51.0303 59.9463 -49.3799 59.0918 -47.2217 59.0918C-46.2842 59.0918 -45.4248 59.2627 -44.6436 59.6045C-43.8525 59.9365 -43.2617 60.376 -42.8711 60.9229C-42.4805 61.4697 -42.207 62.1191 -42.0508 62.8711C-41.9531 63.3594 -41.9043 64.2139 -41.9043 65.4346V75H-44.541V65.5371C-44.541 64.4629 -44.6436 63.6621 -44.8486 63.1348C-45.0537 62.5977 -45.4199 62.1729 -45.9473 61.8604C-46.4648 61.5381 -47.0752 61.377 -47.7783 61.377C-48.9014 61.377 -49.873 61.7334 -50.6934 62.4463C-51.5039 63.1592 -51.9092 64.5117 -51.9092 66.5039V75H-54.5459ZM-37.832 56.5576V53.5254H-35.1953V56.5576H-37.832ZM-37.832 75V59.4434H-35.1953V75H-37.832ZM-21.0156 73.0811C-21.9922 73.9111 -22.9346 74.4971 -23.8428 74.8389C-24.7412 75.1807 -25.708 75.3516 -26.7432 75.3516C-28.4521 75.3516 -29.7656 74.9365 -30.6836 74.1064C-31.6016 73.2666 -32.0605 72.1973 -32.0605 70.8984C-32.0605 70.1367 -31.8896 69.4434 -31.5479 68.8184C-31.1963 68.1836 -30.7422 67.6758 -30.1855 67.2949C-29.6191 66.9141 -28.9844 66.626 -28.2812 66.4307C-27.7637 66.2939 -26.9824 66.1621 -25.9375 66.0352C-23.8086 65.7812 -22.2412 65.4785 -21.2354 65.127C-21.2256 64.7656 -21.2207 64.5361 -21.2207 64.4385C-21.2207 63.3643 -21.4697 62.6074 -21.9678 62.168C-22.6416 61.5723 -23.6426 61.2744 -24.9707 61.2744C-26.2109 61.2744 -27.1289 61.4941 -27.7246 61.9336C-28.3105 62.3633 -28.7451 63.1299 -29.0283 64.2334L-31.6064 63.8818C-31.3721 62.7783 -30.9863 61.8896 -30.4492 61.2158C-29.9121 60.5322 -29.1357 60.0098 -28.1201 59.6484C-27.1045 59.2773 -25.9277 59.0918 -24.5898 59.0918C-23.2617 59.0918 -22.1826 59.248 -21.3525 59.5605C-20.5225 59.873 -19.9121 60.2686 -19.5215 60.7471C-19.1309 61.2158 -18.8574 61.8115 -18.7012 62.5342C-18.6133 62.9834 -18.5693 63.7939 -18.5693 64.9658V68.4814C-18.5693 70.9326 -18.5156 72.4854 -18.4082 73.1396C-18.291 73.7842 -18.0664 74.4043 -17.7344 75H-20.4883C-20.7617 74.4531 -20.9375 73.8135 -21.0156 73.0811ZM-21.2354 67.1924C-22.1924 67.583 -23.6279 67.915 -25.542 68.1885C-26.626 68.3447 -27.3926 68.5205 -27.8418 68.7158C-28.291 68.9111 -28.6377 69.1992 -28.8818 69.5801C-29.126 69.9512 -29.248 70.3662 -29.248 70.8252C-29.248 71.5283 -28.9844 72.1143 -28.457 72.583C-27.9199 73.0518 -27.1387 73.2861 -26.1133 73.2861C-25.0977 73.2861 -24.1943 73.0664 -23.4033 72.627C-22.6123 72.1777 -22.0312 71.5674 -21.6602 70.7959C-21.377 70.2002 -21.2354 69.3213 -21.2354 68.1592V67.1924ZM-14.4531 56.5576V53.5254H-11.8164V56.5576H-14.4531ZM-14.4531 75V59.4434H-11.8164V75H-14.4531ZM-8.84277 70.3564L-6.23535 69.9463C-6.08887 70.9912 -5.68359 71.792 -5.01953 72.3486C-4.3457 72.9053 -3.4082 73.1836 -2.20703 73.1836C-0.996094 73.1836 -0.0976562 72.9395 0.488281 72.4512C1.07422 71.9531 1.36719 71.3721 1.36719 70.708C1.36719 70.1123 1.1084 69.6436 0.59082 69.3018C0.229492 69.0674 -0.668945 68.7695 -2.10449 68.4082C-4.03809 67.9199 -5.38086 67.5 -6.13281 67.1484C-6.875 66.7871 -7.44141 66.2939 -7.83203 65.6689C-8.21289 65.0342 -8.40332 64.3359 -8.40332 63.5742C-8.40332 62.8809 -8.24707 62.2412 -7.93457 61.6553C-7.6123 61.0596 -7.17773 60.5664 -6.63086 60.1758C-6.2207 59.873 -5.66406 59.6191 -4.96094 59.4141C-4.24805 59.1992 -3.48633 59.0918 -2.67578 59.0918C-1.45508 59.0918 -0.385742 59.2676 0.532227 59.6191C1.45996 59.9707 2.14355 60.4492 2.58301 61.0547C3.02246 61.6504 3.3252 62.4512 3.49121 63.457L0.913086 63.8086C0.795898 63.0078 0.454102 62.3828 -0.112305 61.9336C-0.668945 61.4844 -1.45996 61.2598 -2.48535 61.2598C-3.69629 61.2598 -4.56055 61.46 -5.07812 61.8604C-5.5957 62.2607 -5.85449 62.7295 -5.85449 63.2666C-5.85449 63.6084 -5.74707 63.916 -5.53223 64.1895C-5.31738 64.4727 -4.98047 64.707 -4.52148 64.8926C-4.25781 64.9902 -3.48145 65.2148 -2.19238 65.5664C-0.327148 66.0645 0.97168 66.4746 1.7041 66.7969C2.44629 67.1094 3.02734 67.5684 3.44727 68.1738C3.86719 68.7793 4.07715 69.5312 4.07715 70.4297C4.07715 71.3086 3.81836 72.1387 3.30078 72.9199C2.79297 73.6914 2.05566 74.292 1.08887 74.7217C0.12207 75.1416 -0.97168 75.3516 -2.19238 75.3516C-4.21387 75.3516 -5.75684 74.9316 -6.82129 74.0918C-7.87598 73.252 -8.5498 72.0068 -8.84277 70.3564ZM-173.506 110.289L-170.942 110.67C-170.835 111.461 -170.537 112.037 -170.049 112.398C-169.395 112.887 -168.501 113.131 -167.368 113.131C-166.147 113.131 -165.205 112.887 -164.541 112.398C-163.877 111.91 -163.428 111.227 -163.193 110.348C-163.057 109.811 -162.993 108.683 -163.003 106.964C-164.155 108.321 -165.591 109 -167.31 109C-169.448 109 -171.104 108.229 -172.275 106.686C-173.447 105.143 -174.033 103.292 -174.033 101.134C-174.033 99.6494 -173.765 98.2822 -173.228 97.0322C-172.69 95.7725 -171.914 94.8008 -170.898 94.1172C-169.873 93.4336 -168.672 93.0918 -167.295 93.0918C-165.459 93.0918 -163.945 93.834 -162.754 95.3184V93.4434H-160.322V106.891C-160.322 109.312 -160.571 111.026 -161.069 112.032C-161.558 113.048 -162.339 113.849 -163.413 114.435C-164.478 115.021 -165.791 115.313 -167.354 115.313C-169.209 115.313 -170.708 114.894 -171.851 114.054C-172.993 113.224 -173.545 111.969 -173.506 110.289ZM-171.323 100.943C-171.323 102.984 -170.918 104.474 -170.107 105.411C-169.297 106.349 -168.281 106.817 -167.061 106.817C-165.85 106.817 -164.834 106.354 -164.014 105.426C-163.193 104.488 -162.783 103.023 -162.783 101.031C-162.783 99.127 -163.208 97.6914 -164.058 96.7246C-164.897 95.7578 -165.913 95.2744 -167.104 95.2744C-168.276 95.2744 -169.272 95.7529 -170.093 96.71C-170.913 97.6572 -171.323 99.0684 -171.323 100.943ZM-156.353 109V93.4434H-153.979V95.8018C-153.374 94.6982 -152.817 93.9707 -152.31 93.6191C-151.792 93.2676 -151.226 93.0918 -150.61 93.0918C-149.722 93.0918 -148.818 93.375 -147.9 93.9414L-148.809 96.3877C-149.453 96.0068 -150.098 95.8164 -150.742 95.8164C-151.318 95.8164 -151.836 95.9922 -152.295 96.3438C-152.754 96.6855 -153.081 97.1641 -153.276 97.7793C-153.569 98.7168 -153.716 99.7422 -153.716 100.855V109H-156.353ZM-136.182 107.081C-137.158 107.911 -138.101 108.497 -139.009 108.839C-139.907 109.181 -140.874 109.352 -141.909 109.352C-143.618 109.352 -144.932 108.937 -145.85 108.106C-146.768 107.267 -147.227 106.197 -147.227 104.898C-147.227 104.137 -147.056 103.443 -146.714 102.818C-146.362 102.184 -145.908 101.676 -145.352 101.295C-144.785 100.914 -144.15 100.626 -143.447 100.431C-142.93 100.294 -142.148 100.162 -141.104 100.035C-138.975 99.7812 -137.407 99.4785 -136.401 99.127C-136.392 98.7656 -136.387 98.5361 -136.387 98.4385C-136.387 97.3643 -136.636 96.6074 -137.134 96.168C-137.808 95.5723 -138.809 95.2744 -140.137 95.2744C-141.377 95.2744 -142.295 95.4941 -142.891 95.9336C-143.477 96.3633 -143.911 97.1299 -144.194 98.2334L-146.772 97.8818C-146.538 96.7783 -146.152 95.8896 -145.615 95.2158C-145.078 94.5322 -144.302 94.0098 -143.286 93.6484C-142.271 93.2773 -141.094 93.0918 -139.756 93.0918C-138.428 93.0918 -137.349 93.248 -136.519 93.5605C-135.688 93.873 -135.078 94.2686 -134.688 94.7471C-134.297 95.2158 -134.023 95.8115 -133.867 96.5342C-133.779 96.9834 -133.735 97.7939 -133.735 98.9658V102.481C-133.735 104.933 -133.682 106.485 -133.574 107.14C-133.457 107.784 -133.232 108.404 -132.9 109H-135.654C-135.928 108.453 -136.104 107.813 -136.182 107.081ZM-136.401 101.192C-137.358 101.583 -138.794 101.915 -140.708 102.188C-141.792 102.345 -142.559 102.521 -143.008 102.716C-143.457 102.911 -143.804 103.199 -144.048 103.58C-144.292 103.951 -144.414 104.366 -144.414 104.825C-144.414 105.528 -144.15 106.114 -143.623 106.583C-143.086 107.052 -142.305 107.286 -141.279 107.286C-140.264 107.286 -139.36 107.066 -138.569 106.627C-137.778 106.178 -137.197 105.567 -136.826 104.796C-136.543 104.2 -136.401 103.321 -136.401 102.159V101.192ZM-133.442 109C-133.999 109.342 -134.434 109.762 -134.746 110.26C-135.049 110.768 -135.2 111.28 -135.2 111.798C-135.2 112.208 -135.088 112.555 -134.863 112.838C-134.639 113.121 -134.272 113.263 -133.765 113.263C-133.54 113.263 -133.311 113.229 -133.076 113.16C-132.842 113.102 -132.627 113.019 -132.432 112.911V114.786C-133.145 115.128 -133.809 115.299 -134.424 115.299C-134.922 115.299 -135.356 115.226 -135.728 115.079C-136.099 114.942 -136.411 114.747 -136.665 114.493C-136.909 114.249 -137.095 113.966 -137.222 113.644C-137.339 113.321 -137.397 112.975 -137.397 112.604C-137.397 111.979 -137.222 111.349 -136.87 110.714C-136.519 110.089 -136.021 109.518 -135.376 109H-133.442ZM-131.025 109V106.861L-121.123 95.4941C-122.246 95.5527 -123.237 95.582 -124.097 95.582H-130.439V93.4434H-117.725V95.1865L-126.147 105.06L-127.773 106.861C-126.592 106.773 -125.483 106.729 -124.448 106.729H-117.256V109H-131.025ZM-123.657 89.8984L-122.046 87.4082H-119.058L-122.354 91.5098H-125.166L-128.33 87.4082H-125.312L-123.657 89.8984ZM-108.877 106.642L-108.496 108.971C-109.238 109.127 -109.902 109.205 -110.488 109.205C-111.445 109.205 -112.188 109.054 -112.715 108.751C-113.242 108.448 -113.613 108.053 -113.828 107.564C-114.043 107.066 -114.15 106.026 -114.15 104.444V95.4941H-116.084V93.4434H-114.15V89.5908L-111.528 88.0088V93.4434H-108.877V95.4941H-111.528V104.591C-111.528 105.343 -111.484 105.826 -111.396 106.041C-111.299 106.256 -111.147 106.427 -110.942 106.554C-110.728 106.681 -110.425 106.744 -110.034 106.744C-109.741 106.744 -109.355 106.71 -108.877 106.642ZM-96.1328 107.081C-97.1094 107.911 -98.0518 108.497 -98.96 108.839C-99.8584 109.181 -100.825 109.352 -101.86 109.352C-103.569 109.352 -104.883 108.937 -105.801 108.106C-106.719 107.267 -107.178 106.197 -107.178 104.898C-107.178 104.137 -107.007 103.443 -106.665 102.818C-106.313 102.184 -105.859 101.676 -105.303 101.295C-104.736 100.914 -104.102 100.626 -103.398 100.431C-102.881 100.294 -102.1 100.162 -101.055 100.035C-98.9258 99.7812 -97.3584 99.4785 -96.3525 99.127C-96.3428 98.7656 -96.3379 98.5361 -96.3379 98.4385C-96.3379 97.3643 -96.5869 96.6074 -97.085 96.168C-97.7588 95.5723 -98.7598 95.2744 -100.088 95.2744C-101.328 95.2744 -102.246 95.4941 -102.842 95.9336C-103.428 96.3633 -103.862 97.1299 -104.146 98.2334L-106.724 97.8818C-106.489 96.7783 -106.104 95.8896 -105.566 95.2158C-105.029 94.5322 -104.253 94.0098 -103.237 93.6484C-102.222 93.2773 -101.045 93.0918 -99.707 93.0918C-98.3789 93.0918 -97.2998 93.248 -96.4697 93.5605C-95.6396 93.873 -95.0293 94.2686 -94.6387 94.7471C-94.248 95.2158 -93.9746 95.8115 -93.8184 96.5342C-93.7305 96.9834 -93.6865 97.7939 -93.6865 98.9658V102.481C-93.6865 104.933 -93.6328 106.485 -93.5254 107.14C-93.4082 107.784 -93.1836 108.404 -92.8516 109H-95.6055C-95.8789 108.453 -96.0547 107.813 -96.1328 107.081ZM-96.3525 101.192C-97.3096 101.583 -98.7451 101.915 -100.659 102.188C-101.743 102.345 -102.51 102.521 -102.959 102.716C-103.408 102.911 -103.755 103.199 -103.999 103.58C-104.243 103.951 -104.365 104.366 -104.365 104.825C-104.365 105.528 -104.102 106.114 -103.574 106.583C-103.037 107.052 -102.256 107.286 -101.23 107.286C-100.215 107.286 -99.3115 107.066 -98.5205 106.627C-97.7295 106.178 -97.1484 105.567 -96.7773 104.796C-96.4941 104.2 -96.3525 103.321 -96.3525 102.159V101.192ZM-89.5703 90.5576V87.5254H-86.9336V90.5576H-89.5703ZM-89.5703 109V93.4434H-86.9336V109H-89.5703ZM-83.96 104.356L-81.3525 103.946C-81.2061 104.991 -80.8008 105.792 -80.1367 106.349C-79.4629 106.905 -78.5254 107.184 -77.3242 107.184C-76.1133 107.184 -75.2148 106.939 -74.6289 106.451C-74.043 105.953 -73.75 105.372 -73.75 104.708C-73.75 104.112 -74.0088 103.644 -74.5264 103.302C-74.8877 103.067 -75.7861 102.77 -77.2217 102.408C-79.1553 101.92 -80.498 101.5 -81.25 101.148C-81.9922 100.787 -82.5586 100.294 -82.9492 99.6689C-83.3301 99.0342 -83.5205 98.3359 -83.5205 97.5742C-83.5205 96.8809 -83.3643 96.2412 -83.0518 95.6553C-82.7295 95.0596 -82.2949 94.5664 -81.748 94.1758C-81.3379 93.873 -80.7812 93.6191 -80.0781 93.4141C-79.3652 93.1992 -78.6035 93.0918 -77.793 93.0918C-76.5723 93.0918 -75.5029 93.2676 -74.585 93.6191C-73.6572 93.9707 -72.9736 94.4492 -72.5342 95.0547C-72.0947 95.6504 -71.792 96.4512 -71.626 97.457L-74.2041 97.8086C-74.3213 97.0078 -74.6631 96.3828 -75.2295 95.9336C-75.7861 95.4844 -76.5771 95.2598 -77.6025 95.2598C-78.8135 95.2598 -79.6777 95.46 -80.1953 95.8604C-80.7129 96.2607 -80.9717 96.7295 -80.9717 97.2666C-80.9717 97.6084 -80.8643 97.916 -80.6494 98.1895C-80.4346 98.4727 -80.0977 98.707 -79.6387 98.8926C-79.375 98.9902 -78.5986 99.2148 -77.3096 99.5664C-75.4443 100.064 -74.1455 100.475 -73.4131 100.797C-72.6709 101.109 -72.0898 101.568 -71.6699 102.174C-71.25 102.779 -71.04 103.531 -71.04 104.43C-71.04 105.309 -71.2988 106.139 -71.8164 106.92C-72.3242 107.691 -73.0615 108.292 -74.0283 108.722C-74.9951 109.142 -76.0889 109.352 -77.3096 109.352C-79.3311 109.352 -80.874 108.932 -81.9385 108.092C-82.9932 107.252 -83.667 106.007 -83.96 104.356ZM-162.827 143V140.715C-164.038 142.473 -165.684 143.352 -167.764 143.352C-168.682 143.352 -169.541 143.176 -170.342 142.824C-171.133 142.473 -171.724 142.033 -172.114 141.506C-172.495 140.969 -172.764 140.314 -172.92 139.543C-173.027 139.025 -173.081 138.205 -173.081 137.082V127.443H-170.444V136.071C-170.444 137.448 -170.391 138.376 -170.283 138.854C-170.117 139.548 -169.766 140.095 -169.229 140.495C-168.691 140.886 -168.027 141.081 -167.236 141.081C-166.445 141.081 -165.703 140.881 -165.01 140.48C-164.316 140.07 -163.828 139.519 -163.545 138.825C-163.252 138.122 -163.105 137.106 -163.105 135.778V127.443H-160.469V143H-162.827ZM-157.715 143V140.861L-147.812 129.494C-148.936 129.553 -149.927 129.582 -150.786 129.582H-157.129V127.443H-144.414V129.187L-152.837 139.06L-154.463 140.861C-153.281 140.773 -152.173 140.729 -151.138 140.729H-143.945V143H-157.715ZM-150.347 123.898L-148.735 121.408H-145.747L-149.043 125.51H-151.855L-155.02 121.408H-152.002L-150.347 123.898ZM-135.566 140.642L-135.186 142.971C-135.928 143.127 -136.592 143.205 -137.178 143.205C-138.135 143.205 -138.877 143.054 -139.404 142.751C-139.932 142.448 -140.303 142.053 -140.518 141.564C-140.732 141.066 -140.84 140.026 -140.84 138.444V129.494H-142.773V127.443H-140.84V123.591L-138.218 122.009V127.443H-135.566V129.494H-138.218V138.591C-138.218 139.343 -138.174 139.826 -138.086 140.041C-137.988 140.256 -137.837 140.427 -137.632 140.554C-137.417 140.681 -137.114 140.744 -136.724 140.744C-136.431 140.744 -136.045 140.71 -135.566 140.642ZM-132.959 124.558V121.525H-130.322V124.558H-132.959ZM-132.959 143V127.443H-130.322V143H-132.959ZM-126.279 143V121.525H-123.643V133.771L-117.402 127.443H-113.989L-119.937 133.215L-113.389 143H-116.641L-121.782 135.046L-123.643 136.833V143H-126.279ZM-111.323 143V127.443H-108.95V129.802C-108.345 128.698 -107.788 127.971 -107.28 127.619C-106.763 127.268 -106.196 127.092 -105.581 127.092C-104.692 127.092 -103.789 127.375 -102.871 127.941L-103.779 130.388C-104.424 130.007 -105.068 129.816 -105.713 129.816C-106.289 129.816 -106.807 129.992 -107.266 130.344C-107.725 130.686 -108.052 131.164 -108.247 131.779C-108.54 132.717 -108.687 133.742 -108.687 134.855V143H-111.323ZM-101.289 124.558V121.525H-98.6523V124.558H-101.289ZM-101.289 143V127.443H-98.6523V143H-101.289ZM-94.624 143V127.443H-92.251V129.655C-91.1084 127.946 -89.458 127.092 -87.2998 127.092C-86.3623 127.092 -85.5029 127.263 -84.7217 127.604C-83.9307 127.937 -83.3398 128.376 -82.9492 128.923C-82.5586 129.47 -82.2852 130.119 -82.1289 130.871C-82.0312 131.359 -81.9824 132.214 -81.9824 133.435V143H-84.6191V133.537C-84.6191 132.463 -84.7217 131.662 -84.9268 131.135C-85.1318 130.598 -85.498 130.173 -86.0254 129.86C-86.543 129.538 -87.1533 129.377 -87.8564 129.377C-88.9795 129.377 -89.9512 129.733 -90.7715 130.446C-91.582 131.159 -91.9873 132.512 -91.9873 134.504V143H-94.624ZM-67.7734 141.081C-68.75 141.911 -69.6924 142.497 -70.6006 142.839C-71.499 143.181 -72.4658 143.352 -73.501 143.352C-75.21 143.352 -76.5234 142.937 -77.4414 142.106C-78.3594 141.267 -78.8184 140.197 -78.8184 138.898C-78.8184 138.137 -78.6475 137.443 -78.3057 136.818C-77.9541 136.184 -77.5 135.676 -76.9434 135.295C-76.377 134.914 -75.7422 134.626 -75.0391 134.431C-74.5215 134.294 -73.7402 134.162 -72.6953 134.035C-70.5664 133.781 -68.999 133.479 -67.9932 133.127C-67.9834 132.766 -67.9785 132.536 -67.9785 132.438C-67.9785 131.364 -68.2275 130.607 -68.7256 130.168C-69.3994 129.572 -70.4004 129.274 -71.7285 129.274C-72.9688 129.274 -73.8867 129.494 -74.4824 129.934C-75.0684 130.363 -75.5029 131.13 -75.7861 132.233L-78.3643 131.882C-78.1299 130.778 -77.7441 129.89 -77.207 129.216C-76.6699 128.532 -75.8936 128.01 -74.8779 127.648C-73.8623 127.277 -72.6855 127.092 -71.3477 127.092C-70.0195 127.092 -68.9404 127.248 -68.1104 127.561C-67.2803 127.873 -66.6699 128.269 -66.2793 128.747C-65.8887 129.216 -65.6152 129.812 -65.459 130.534C-65.3711 130.983 -65.3271 131.794 -65.3271 132.966V136.481C-65.3271 138.933 -65.2734 140.485 -65.166 141.14C-65.0488 141.784 -64.8242 142.404 -64.4922 143H-67.2461C-67.5195 142.453 -67.6953 141.813 -67.7734 141.081ZM-67.9932 135.192C-68.9502 135.583 -70.3857 135.915 -72.2998 136.188C-73.3838 136.345 -74.1504 136.521 -74.5996 136.716C-75.0488 136.911 -75.3955 137.199 -75.6396 137.58C-75.8838 137.951 -76.0059 138.366 -76.0059 138.825C-76.0059 139.528 -75.7422 140.114 -75.2148 140.583C-74.6777 141.052 -73.8965 141.286 -72.8711 141.286C-71.8555 141.286 -70.9521 141.066 -70.1611 140.627C-69.3701 140.178 -68.7891 139.567 -68.418 138.796C-68.1348 138.2 -67.9932 137.321 -67.9932 136.159V135.192ZM-61.2256 143V127.443H-58.8672V129.626C-58.3789 128.864 -57.7295 128.254 -56.9189 127.795C-56.1084 127.326 -55.1855 127.092 -54.1504 127.092C-52.998 127.092 -52.0557 127.331 -51.3232 127.81C-50.5811 128.288 -50.0586 128.957 -49.7559 129.816C-48.5254 128 -46.9238 127.092 -44.9512 127.092C-43.4082 127.092 -42.2217 127.521 -41.3916 128.381C-40.5615 129.23 -40.1465 130.544 -40.1465 132.321V143H-42.7686V133.2C-42.7686 132.146 -42.8564 131.389 -43.0322 130.93C-43.1982 130.461 -43.5059 130.085 -43.9551 129.802C-44.4043 129.519 -44.9316 129.377 -45.5371 129.377C-46.6309 129.377 -47.5391 129.743 -48.2617 130.476C-48.9844 131.198 -49.3457 132.36 -49.3457 133.962V143H-51.9824V132.893C-51.9824 131.721 -52.1973 130.842 -52.627 130.256C-53.0566 129.67 -53.7598 129.377 -54.7363 129.377C-55.4785 129.377 -56.167 129.572 -56.8018 129.963C-57.4268 130.354 -57.8809 130.925 -58.1641 131.677C-58.4473 132.429 -58.5889 133.513 -58.5889 134.929V143H-61.2256ZM-26.084 141.081C-27.0605 141.911 -28.0029 142.497 -28.9111 142.839C-29.8096 143.181 -30.7764 143.352 -31.8115 143.352C-33.5205 143.352 -34.834 142.937 -35.752 142.106C-36.6699 141.267 -37.1289 140.197 -37.1289 138.898C-37.1289 138.137 -36.958 137.443 -36.6162 136.818C-36.2646 136.184 -35.8105 135.676 -35.2539 135.295C-34.6875 134.914 -34.0527 134.626 -33.3496 134.431C-32.832 134.294 -32.0508 134.162 -31.0059 134.035C-28.877 133.781 -27.3096 133.479 -26.3037 133.127C-26.2939 132.766 -26.2891 132.536 -26.2891 132.438C-26.2891 131.364 -26.5381 130.607 -27.0361 130.168C-27.71 129.572 -28.7109 129.274 -30.0391 129.274C-31.2793 129.274 -32.1973 129.494 -32.793 129.934C-33.3789 130.363 -33.8135 131.13 -34.0967 132.233L-36.6748 131.882C-36.4404 130.778 -36.0547 129.89 -35.5176 129.216C-34.9805 128.532 -34.2041 128.01 -33.1885 127.648C-32.1729 127.277 -30.9961 127.092 -29.6582 127.092C-28.3301 127.092 -27.251 127.248 -26.4209 127.561C-25.5908 127.873 -24.9805 128.269 -24.5898 128.747C-24.1992 129.216 -23.9258 129.812 -23.7695 130.534C-23.6816 130.983 -23.6377 131.794 -23.6377 132.966V136.481C-23.6377 138.933 -23.584 140.485 -23.4766 141.14C-23.3594 141.784 -23.1348 142.404 -22.8027 143H-25.5566C-25.8301 142.453 -26.0059 141.813 -26.084 141.081ZM-26.3037 135.192C-27.2607 135.583 -28.6963 135.915 -30.6104 136.188C-31.6943 136.345 -32.4609 136.521 -32.9102 136.716C-33.3594 136.911 -33.7061 137.199 -33.9502 137.58C-34.1943 137.951 -34.3164 138.366 -34.3164 138.825C-34.3164 139.528 -34.0527 140.114 -33.5254 140.583C-32.9883 141.052 -32.207 141.286 -31.1816 141.286C-30.166 141.286 -29.2627 141.066 -28.4717 140.627C-27.6807 140.178 -27.0996 139.567 -26.7285 138.796C-26.4453 138.2 -26.3037 137.321 -26.3037 136.159V135.192ZM-11.1719 124.558V121.525H-8.53516V124.558H-11.1719ZM-11.1719 143V127.443H-8.53516V143H-11.1719ZM1.25 140.642L1.63086 142.971C0.888672 143.127 0.224609 143.205 -0.361328 143.205C-1.31836 143.205 -2.06055 143.054 -2.58789 142.751C-3.11523 142.448 -3.48633 142.053 -3.70117 141.564C-3.91602 141.066 -4.02344 140.026 -4.02344 138.444V129.494H-5.95703V127.443H-4.02344V123.591L-1.40137 122.009V127.443H1.25V129.494H-1.40137V138.591C-1.40137 139.343 -1.35742 139.826 -1.26953 140.041C-1.17188 140.256 -1.02051 140.427 -0.81543 140.554C-0.600586 140.681 -0.297852 140.744 0.0927734 140.744C0.385742 140.744 0.771484 140.71 1.25 140.642ZM3.85742 124.558V121.525H6.49414V124.558H3.85742ZM3.85742 143V127.443H6.49414V143H3.85742ZM10.5225 143V127.443H12.8955V129.655C14.0381 127.946 15.6885 127.092 17.8467 127.092C18.7842 127.092 19.6436 127.263 20.4248 127.604C21.2158 127.937 21.8066 128.376 22.1973 128.923C22.5879 129.47 22.8613 130.119 23.0176 130.871C23.1152 131.359 23.1641 132.214 23.1641 133.435V143H20.5273V133.537C20.5273 132.463 20.4248 131.662 20.2197 131.135C20.0146 130.598 19.6484 130.173 19.1211 129.86C18.6035 129.538 17.9932 129.377 17.29 129.377C16.167 129.377 15.1953 129.733 14.375 130.446C13.5645 131.159 13.1592 132.512 13.1592 134.504V143H10.5225ZM-167.266 174.642L-166.885 176.971C-167.627 177.127 -168.291 177.205 -168.877 177.205C-169.834 177.205 -170.576 177.054 -171.104 176.751C-171.631 176.448 -172.002 176.053 -172.217 175.564C-172.432 175.066 -172.539 174.026 -172.539 172.444V163.494H-174.473V161.443H-172.539V157.591L-169.917 156.009V161.443H-167.266V163.494H-169.917V172.591C-169.917 173.343 -169.873 173.826 -169.785 174.041C-169.688 174.256 -169.536 174.427 -169.331 174.554C-169.116 174.681 -168.813 174.744 -168.423 174.744C-168.13 174.744 -167.744 174.71 -167.266 174.642ZM-164.658 158.558V155.525H-162.021V158.558H-164.658ZM-164.658 177V161.443H-162.021V177H-164.658ZM-157.979 177V155.525H-155.342V167.771L-149.102 161.443H-145.688L-151.636 167.215L-145.088 177H-148.34L-153.481 169.046L-155.342 170.833V177H-157.979ZM-144.048 172.356L-141.44 171.946C-141.294 172.991 -140.889 173.792 -140.225 174.349C-139.551 174.905 -138.613 175.184 -137.412 175.184C-136.201 175.184 -135.303 174.939 -134.717 174.451C-134.131 173.953 -133.838 173.372 -133.838 172.708C-133.838 172.112 -134.097 171.644 -134.614 171.302C-134.976 171.067 -135.874 170.77 -137.31 170.408C-139.243 169.92 -140.586 169.5 -141.338 169.148C-142.08 168.787 -142.646 168.294 -143.037 167.669C-143.418 167.034 -143.608 166.336 -143.608 165.574C-143.608 164.881 -143.452 164.241 -143.14 163.655C-142.817 163.06 -142.383 162.566 -141.836 162.176C-141.426 161.873 -140.869 161.619 -140.166 161.414C-139.453 161.199 -138.691 161.092 -137.881 161.092C-136.66 161.092 -135.591 161.268 -134.673 161.619C-133.745 161.971 -133.062 162.449 -132.622 163.055C-132.183 163.65 -131.88 164.451 -131.714 165.457L-134.292 165.809C-134.409 165.008 -134.751 164.383 -135.317 163.934C-135.874 163.484 -136.665 163.26 -137.69 163.26C-138.901 163.26 -139.766 163.46 -140.283 163.86C-140.801 164.261 -141.06 164.729 -141.06 165.267C-141.06 165.608 -140.952 165.916 -140.737 166.189C-140.522 166.473 -140.186 166.707 -139.727 166.893C-139.463 166.99 -138.687 167.215 -137.397 167.566C-135.532 168.064 -134.233 168.475 -133.501 168.797C-132.759 169.109 -132.178 169.568 -131.758 170.174C-131.338 170.779 -131.128 171.531 -131.128 172.43C-131.128 173.309 -131.387 174.139 -131.904 174.92C-132.412 175.691 -133.149 176.292 -134.116 176.722C-135.083 177.142 -136.177 177.352 -137.397 177.352C-139.419 177.352 -140.962 176.932 -142.026 176.092C-143.081 175.252 -143.755 174.007 -144.048 172.356ZM-128.052 177V155.525H-125.415V177H-128.052ZM-121.299 158.558V155.525H-118.662V158.558H-121.299ZM-121.299 177V161.443H-118.662V177H-121.299ZM-96.1914 177V175.037C-97.1777 176.58 -98.6279 177.352 -100.542 177.352C-101.782 177.352 -102.925 177.01 -103.97 176.326C-105.005 175.643 -105.811 174.69 -106.387 173.47C-106.953 172.239 -107.236 170.828 -107.236 169.236C-107.236 167.684 -106.978 166.277 -106.46 165.018C-105.942 163.748 -105.166 162.776 -104.131 162.103C-103.096 161.429 -101.938 161.092 -100.659 161.092C-99.7217 161.092 -98.8867 161.292 -98.1543 161.692C-97.4219 162.083 -96.8262 162.596 -96.3672 163.23V155.525H-93.7451V177H-96.1914ZM-104.526 169.236C-104.526 171.229 -104.106 172.718 -103.267 173.704C-102.427 174.69 -101.436 175.184 -100.293 175.184C-99.1406 175.184 -98.1641 174.715 -97.3633 173.777C-96.5527 172.83 -96.1475 171.39 -96.1475 169.456C-96.1475 167.327 -96.5576 165.765 -97.3779 164.769C-98.1982 163.772 -99.209 163.274 -100.41 163.274C-101.582 163.274 -102.563 163.753 -103.354 164.71C-104.136 165.667 -104.526 167.176 -104.526 169.236ZM-79.4336 175.081C-80.4102 175.911 -81.3525 176.497 -82.2607 176.839C-83.1592 177.181 -84.126 177.352 -85.1611 177.352C-86.8701 177.352 -88.1836 176.937 -89.1016 176.106C-90.0195 175.267 -90.4785 174.197 -90.4785 172.898C-90.4785 172.137 -90.3076 171.443 -89.9658 170.818C-89.6143 170.184 -89.1602 169.676 -88.6035 169.295C-88.0371 168.914 -87.4023 168.626 -86.6992 168.431C-86.1816 168.294 -85.4004 168.162 -84.3555 168.035C-82.2266 167.781 -80.6592 167.479 -79.6533 167.127C-79.6436 166.766 -79.6387 166.536 -79.6387 166.438C-79.6387 165.364 -79.8877 164.607 -80.3857 164.168C-81.0596 163.572 -82.0605 163.274 -83.3887 163.274C-84.6289 163.274 -85.5469 163.494 -86.1426 163.934C-86.7285 164.363 -87.1631 165.13 -87.4463 166.233L-90.0244 165.882C-89.79 164.778 -89.4043 163.89 -88.8672 163.216C-88.3301 162.532 -87.5537 162.01 -86.5381 161.648C-85.5225 161.277 -84.3457 161.092 -83.0078 161.092C-81.6797 161.092 -80.6006 161.248 -79.7705 161.561C-78.9404 161.873 -78.3301 162.269 -77.9395 162.747C-77.5488 163.216 -77.2754 163.812 -77.1191 164.534C-77.0312 164.983 -76.9873 165.794 -76.9873 166.966V170.481C-76.9873 172.933 -76.9336 174.485 -76.8262 175.14C-76.709 175.784 -76.4844 176.404 -76.1523 177H-78.9062C-79.1797 176.453 -79.3555 175.813 -79.4336 175.081ZM-79.6533 169.192C-80.6104 169.583 -82.0459 169.915 -83.96 170.188C-85.0439 170.345 -85.8105 170.521 -86.2598 170.716C-86.709 170.911 -87.0557 171.199 -87.2998 171.58C-87.5439 171.951 -87.666 172.366 -87.666 172.825C-87.666 173.528 -87.4023 174.114 -86.875 174.583C-86.3379 175.052 -85.5566 175.286 -84.5312 175.286C-83.5156 175.286 -82.6123 175.066 -81.8213 174.627C-81.0303 174.178 -80.4492 173.567 -80.0781 172.796C-79.7949 172.2 -79.6533 171.321 -79.6533 170.159V169.192ZM-72.915 177V161.443H-70.542V163.802C-69.9365 162.698 -69.3799 161.971 -68.8721 161.619C-68.3545 161.268 -67.7881 161.092 -67.1729 161.092C-66.2842 161.092 -65.3809 161.375 -64.4629 161.941L-65.3711 164.388C-66.0156 164.007 -66.6602 163.816 -67.3047 163.816C-67.8809 163.816 -68.3984 163.992 -68.8574 164.344C-69.3164 164.686 -69.6436 165.164 -69.8389 165.779C-70.1318 166.717 -70.2783 167.742 -70.2783 168.855V177H-72.915ZM-60.4639 177H-62.9102V155.525H-60.2734V163.187C-59.1602 161.79 -57.7393 161.092 -56.0107 161.092C-55.0537 161.092 -54.1504 161.287 -53.3008 161.678C-52.4414 162.059 -51.7383 162.601 -51.1914 163.304C-50.6348 163.997 -50.2002 164.837 -49.8877 165.823C-49.5752 166.81 -49.4189 167.864 -49.4189 168.987C-49.4189 171.653 -50.0781 173.714 -51.3965 175.169C-52.7148 176.624 -54.2969 177.352 -56.1426 177.352C-57.9785 177.352 -59.4189 176.585 -60.4639 175.052V177ZM-60.4932 169.104C-60.4932 170.97 -60.2393 172.317 -59.7314 173.147C-58.9014 174.505 -57.7783 175.184 -56.3623 175.184C-55.21 175.184 -54.2139 174.686 -53.374 173.689C-52.5342 172.684 -52.1143 171.189 -52.1143 169.207C-52.1143 167.176 -52.5195 165.677 -53.3301 164.71C-54.1309 163.743 -55.1025 163.26 -56.2451 163.26C-57.3975 163.26 -58.3936 163.763 -59.2334 164.769C-60.0732 165.765 -60.4932 167.21 -60.4932 169.104ZM-36.001 177V174.715C-37.2119 176.473 -38.8574 177.352 -40.9375 177.352C-41.8555 177.352 -42.7148 177.176 -43.5156 176.824C-44.3066 176.473 -44.8975 176.033 -45.2881 175.506C-45.6689 174.969 -45.9375 174.314 -46.0938 173.543C-46.2012 173.025 -46.2549 172.205 -46.2549 171.082V161.443H-43.6182V170.071C-43.6182 171.448 -43.5645 172.376 -43.457 172.854C-43.291 173.548 -42.9395 174.095 -42.4023 174.495C-41.8652 174.886 -41.2012 175.081 -40.4102 175.081C-39.6191 175.081 -38.877 174.881 -38.1836 174.48C-37.4902 174.07 -37.002 173.519 -36.7188 172.825C-36.4258 172.122 -36.2793 171.106 -36.2793 169.778V161.443H-33.6426V177H-36.001ZM-33.877 177C-34.4336 177.342 -34.8682 177.762 -35.1807 178.26C-35.4834 178.768 -35.6348 179.28 -35.6348 179.798C-35.6348 180.208 -35.5225 180.555 -35.2979 180.838C-35.0732 181.121 -34.707 181.263 -34.1992 181.263C-33.9746 181.263 -33.7451 181.229 -33.5107 181.16C-33.2764 181.102 -33.0615 181.019 -32.8662 180.911V182.786C-33.5791 183.128 -34.2432 183.299 -34.8584 183.299C-35.3564 183.299 -35.791 183.226 -36.1621 183.079C-36.5332 182.942 -36.8457 182.747 -37.0996 182.493C-37.3438 182.249 -37.5293 181.966 -37.6562 181.644C-37.7734 181.321 -37.832 180.975 -37.832 180.604C-37.832 179.979 -37.6562 179.349 -37.3047 178.714C-36.9531 178.089 -36.4551 177.518 -35.8105 177H-33.877ZM-173.008 211V189.525H-170.371V201.771L-164.131 195.443H-160.718L-166.665 201.215L-160.117 211H-163.369L-168.511 203.046L-170.371 204.833V211H-173.008ZM-159.004 203.222C-159.004 200.341 -158.203 198.207 -156.602 196.82C-155.264 195.668 -153.633 195.092 -151.709 195.092C-149.57 195.092 -147.822 195.795 -146.465 197.201C-145.107 198.598 -144.429 200.531 -144.429 203.002C-144.429 205.004 -144.731 206.581 -145.337 207.733C-145.933 208.876 -146.807 209.765 -147.959 210.399C-149.102 211.034 -150.352 211.352 -151.709 211.352C-153.887 211.352 -155.649 210.653 -156.997 209.257C-158.335 207.86 -159.004 205.849 -159.004 203.222ZM-156.294 203.222C-156.294 205.214 -155.859 206.708 -154.99 207.704C-154.121 208.69 -153.027 209.184 -151.709 209.184C-150.4 209.184 -149.312 208.686 -148.442 207.689C-147.573 206.693 -147.139 205.175 -147.139 203.134C-147.139 201.21 -147.578 199.755 -148.457 198.769C-149.326 197.772 -150.41 197.274 -151.709 197.274C-153.027 197.274 -154.121 197.768 -154.99 198.754C-155.859 199.74 -156.294 201.229 -156.294 203.222ZM-141.309 211V189.525H-138.672V201.771L-132.432 195.443H-129.019L-134.966 201.215L-128.418 211H-131.67L-136.812 203.046L-138.672 204.833V211H-141.309ZM-126.44 216.991L-126.733 214.516C-126.157 214.672 -125.654 214.75 -125.225 214.75C-124.639 214.75 -124.17 214.652 -123.818 214.457C-123.467 214.262 -123.179 213.988 -122.954 213.637C-122.788 213.373 -122.52 212.719 -122.148 211.674C-122.1 211.527 -122.021 211.312 -121.914 211.029L-127.817 195.443H-124.976L-121.738 204.452C-121.318 205.595 -120.942 206.796 -120.61 208.056C-120.308 206.845 -119.946 205.663 -119.526 204.511L-116.201 195.443H-113.564L-119.482 211.264C-120.117 212.973 -120.61 214.149 -120.962 214.794C-121.431 215.663 -121.968 216.298 -122.573 216.698C-123.179 217.108 -123.901 217.313 -124.741 217.313C-125.249 217.313 -125.815 217.206 -126.44 216.991ZM-108.892 211H-111.338V189.525H-108.701V197.187C-107.588 195.79 -106.167 195.092 -104.438 195.092C-103.481 195.092 -102.578 195.287 -101.729 195.678C-100.869 196.059 -100.166 196.601 -99.6191 197.304C-99.0625 197.997 -98.6279 198.837 -98.3154 199.823C-98.0029 200.81 -97.8467 201.864 -97.8467 202.987C-97.8467 205.653 -98.5059 207.714 -99.8242 209.169C-101.143 210.624 -102.725 211.352 -104.57 211.352C-106.406 211.352 -107.847 210.585 -108.892 209.052V211ZM-108.921 203.104C-108.921 204.97 -108.667 206.317 -108.159 207.147C-107.329 208.505 -106.206 209.184 -104.79 209.184C-103.638 209.184 -102.642 208.686 -101.802 207.689C-100.962 206.684 -100.542 205.189 -100.542 203.207C-100.542 201.176 -100.947 199.677 -101.758 198.71C-102.559 197.743 -103.53 197.26 -104.673 197.26C-105.825 197.26 -106.821 197.763 -107.661 198.769C-108.501 199.765 -108.921 201.21 -108.921 203.104ZM-83.9746 205.99L-81.25 206.327C-81.6797 207.919 -82.4756 209.154 -83.6377 210.033C-84.7998 210.912 -86.2842 211.352 -88.0908 211.352C-90.3662 211.352 -92.1729 210.653 -93.5107 209.257C-94.8389 207.851 -95.5029 205.883 -95.5029 203.354C-95.5029 200.736 -94.8291 198.705 -93.4814 197.26C-92.1338 195.814 -90.3857 195.092 -88.2373 195.092C-86.1572 195.092 -84.458 195.8 -83.1396 197.216C-81.8213 198.632 -81.1621 200.624 -81.1621 203.192C-81.1621 203.349 -81.167 203.583 -81.1768 203.896H-92.7783C-92.6807 205.604 -92.1973 206.913 -91.3281 207.821C-90.459 208.729 -89.375 209.184 -88.0762 209.184C-87.1094 209.184 -86.2842 208.93 -85.6006 208.422C-84.917 207.914 -84.375 207.104 -83.9746 205.99ZM-92.6318 201.728H-83.9453C-84.0625 200.419 -84.3945 199.438 -84.9414 198.783C-85.7812 197.768 -86.8701 197.26 -88.208 197.26C-89.4189 197.26 -90.4395 197.665 -91.2695 198.476C-92.0898 199.286 -92.5439 200.37 -92.6318 201.728ZM-89.585 193.51V190.229H-86.3184V193.51H-89.585ZM-77.1777 211V207.997H-74.1748V211H-77.1777Z" fill="#1D1D1F"/>
<path d="M19.5815 26.1344L27.1625 33.7074C30.7503 26.2931 36.4665 20.1165 43.5812 15.9663L43.9999 15.722M43.9824 24.2222C44 25.3129 44 26.558 44 28C44 33.2807 44 35.921 43.1373 38.0037C41.987 40.7807 39.7807 42.987 37.0037 44.1373C34.921 45 32.2807 45 27 45C21.7193 45 19.079 45 16.9963 44.1373C14.2193 42.987 12.013 40.7807 10.8627 38.0037C10 35.921 10 33.2807 10 28C10 22.7193 10 20.079 10.8627 17.9963C12.013 15.2193 14.2193 13.013 16.9963 11.8627C19.079 11 21.7193 11 27 11C31.8199 11 34.4401 11 36.4444 11.656" stroke="white" stroke-width="3" stroke-linecap="round" stroke-linejoin="round"/>
</g>
<rect x="-938.5" y="-1030.5" width="1439" height="2129" stroke="black"/>
<defs>
<filter id="filter0_d_0_1" x="-220" y="-32" width="360" height="330" filterUnits="userSpaceOnUse" color-interpolation-filters="sRGB">
<feFlood flood-opacity="0" result="BackgroundImageFix"/>
<feColorMatrix in="SourceAlpha" type="matrix" values="0 0 0 0 0 0 0 0 0 0 0 0 0 0 0 0 0 0 127 0" result="hardAlpha"/>
<feOffset dx="20" dy="24"/>
<feGaussianBlur stdDeviation="20"/>
<feComposite in2="hardAlpha" operator="out"/>
<feColorMatrix type="matrix" values="0 0 0 0 0 0 0 0 0 0 0 0 0 0 0 0 0 0 0.1 0"/>
<feBlend mode="normal" in2="BackgroundImageFix" result="effect1_dropShadow_0_1"/>
<feBlend mode="normal" in="SourceGraphic" in2="effect1_dropShadow_0_1" result="shape"/>
</filter>
<clipPath id="clip0_0_1">
<rect x="-939" y="-1031" width="1440" height="2130" fill="white"/>
</clipPath>
</defs>
</svg>
