<svg width="55" height="55" viewBox="0 0 55 55" fill="none" xmlns="http://www.w3.org/2000/svg">
<rect width="55" height="55" fill="#F5F5F5"/>
<g clip-path="url(#clip0_0_1)">
<rect x="-303" y="-1031" width="1440" height="2130" fill="#F5F8F3"/>
<g filter="url(#filter0_d_0_1)">
<rect x="-200" y="-16" width="280" height="250" rx="12" fill="#F5F5F7"/>
</g>
<circle cx="27.5" cy="27.5" r="27.5" fill="#0E902E"/>
<path d="M21.7842 28.4301L25.5468 32.1887C27.3565 29.0243 29.861 26.3121 32.8714 24.2564L33.0342 24.1452M25.066 10.3344L14.9642 13.9822C12.8095 14.7603 11.342 16.7674 11.2539 19.0567L11.0153 25.2603C10.7197 32.9472 14.7265 40.1598 21.4091 43.9701L24.2604 45.5958C25.9494 46.5589 28.016 46.5814 29.7257 45.6554L32.5169 44.1434C39.6744 40.2665 43.8821 32.5423 43.2578 24.4262L42.8322 18.894C42.6625 16.6879 41.2153 14.7863 39.1343 14.0348L28.887 10.3344C27.6523 9.88854 26.3006 9.88854 25.066 10.3344Z" stroke="white" stroke-width="3" stroke-linecap="round" stroke-linejoin="round"/>
<path d="M-175.044 75L-166.797 53.5254H-163.735L-154.946 75H-158.184L-160.688 68.4961H-169.668L-172.026 75H-175.044ZM-168.848 66.1816H-161.567L-163.809 60.2344C-164.492 58.4277 -165 56.9434 -165.332 55.7812C-165.605 57.1582 -165.991 58.5254 -166.489 59.8828L-168.848 66.1816ZM-153.013 75V59.4434H-150.64V61.6553C-149.497 59.9463 -147.847 59.0918 -145.688 59.0918C-144.751 59.0918 -143.892 59.2627 -143.11 59.6045C-142.319 59.9365 -141.729 60.376 -141.338 60.9229C-140.947 61.4697 -140.674 62.1191 -140.518 62.8711C-140.42 63.3594 -140.371 64.2139 -140.371 65.4346V75H-143.008V65.5371C-143.008 64.4629 -143.11 63.6621 -143.315 63.1348C-143.521 62.5977 -143.887 62.1729 -144.414 61.8604C-144.932 61.5381 -145.542 61.377 -146.245 61.377C-147.368 61.377 -148.34 61.7334 -149.16 62.4463C-149.971 63.1592 -150.376 64.5117 -150.376 66.5039V75H-153.013ZM-136.797 76.2891L-134.233 76.6699C-134.126 77.4609 -133.828 78.0371 -133.34 78.3984C-132.686 78.8867 -131.792 79.1309 -130.659 79.1309C-129.438 79.1309 -128.496 78.8867 -127.832 78.3984C-127.168 77.9102 -126.719 77.2266 -126.484 76.3477C-126.348 75.8105 -126.284 74.6826 -126.294 72.9639C-127.446 74.3213 -128.882 75 -130.601 75C-132.739 75 -134.395 74.2285 -135.566 72.6855C-136.738 71.1426 -137.324 69.292 -137.324 67.1338C-137.324 65.6494 -137.056 64.2822 -136.519 63.0322C-135.981 61.7725 -135.205 60.8008 -134.189 60.1172C-133.164 59.4336 -131.963 59.0918 -130.586 59.0918C-128.75 59.0918 -127.236 59.834 -126.045 61.3184V59.4434H-123.613V72.8906C-123.613 75.3125 -123.862 77.0264 -124.36 78.0322C-124.849 79.0479 -125.63 79.8486 -126.704 80.4346C-127.769 81.0205 -129.082 81.3135 -130.645 81.3135C-132.5 81.3135 -133.999 80.8936 -135.142 80.0537C-136.284 79.2236 -136.836 77.9688 -136.797 76.2891ZM-134.614 66.9434C-134.614 68.9844 -134.209 70.4736 -133.398 71.4111C-132.588 72.3486 -131.572 72.8174 -130.352 72.8174C-129.141 72.8174 -128.125 72.3535 -127.305 71.4258C-126.484 70.4883 -126.074 69.0234 -126.074 67.0312C-126.074 65.127 -126.499 63.6914 -127.349 62.7246C-128.188 61.7578 -129.204 61.2744 -130.396 61.2744C-131.567 61.2744 -132.563 61.7529 -133.384 62.71C-134.204 63.6572 -134.614 65.0684 -134.614 66.9434ZM-120.596 67.2217C-120.596 64.3408 -119.795 62.207 -118.193 60.8203C-116.855 59.668 -115.225 59.0918 -113.301 59.0918C-111.162 59.0918 -109.414 59.7949 -108.057 61.2012C-106.699 62.5977 -106.021 64.5312 -106.021 67.002C-106.021 69.0039 -106.323 70.5811 -106.929 71.7334C-107.524 72.876 -108.398 73.7646 -109.551 74.3994C-110.693 75.0342 -111.943 75.3516 -113.301 75.3516C-115.479 75.3516 -117.241 74.6533 -118.589 73.2568C-119.927 71.8604 -120.596 69.8486 -120.596 67.2217ZM-117.886 67.2217C-117.886 69.2139 -117.451 70.708 -116.582 71.7041C-115.713 72.6904 -114.619 73.1836 -113.301 73.1836C-111.992 73.1836 -110.903 72.6855 -110.034 71.6895C-109.165 70.6934 -108.73 69.1748 -108.73 67.1338C-108.73 65.21 -109.17 63.7549 -110.049 62.7686C-110.918 61.7725 -112.002 61.2744 -113.301 61.2744C-114.619 61.2744 -115.713 61.7676 -116.582 62.7539C-117.451 63.7402 -117.886 65.2295 -117.886 67.2217ZM-103.97 70.3564L-101.362 69.9463C-101.216 70.9912 -100.811 71.792 -100.146 72.3486C-99.4727 72.9053 -98.5352 73.1836 -97.334 73.1836C-96.123 73.1836 -95.2246 72.9395 -94.6387 72.4512C-94.0527 71.9531 -93.7598 71.3721 -93.7598 70.708C-93.7598 70.1123 -94.0186 69.6436 -94.5361 69.3018C-94.8975 69.0674 -95.7959 68.7695 -97.2314 68.4082C-99.165 67.9199 -100.508 67.5 -101.26 67.1484C-102.002 66.7871 -102.568 66.2939 -102.959 65.6689C-103.34 65.0342 -103.53 64.3359 -103.53 63.5742C-103.53 62.8809 -103.374 62.2412 -103.062 61.6553C-102.739 61.0596 -102.305 60.5664 -101.758 60.1758C-101.348 59.873 -100.791 59.6191 -100.088 59.4141C-99.375 59.1992 -98.6133 59.0918 -97.8027 59.0918C-96.582 59.0918 -95.5127 59.2676 -94.5947 59.6191C-93.667 59.9707 -92.9834 60.4492 -92.5439 61.0547C-92.1045 61.6504 -91.8018 62.4512 -91.6357 63.457L-94.2139 63.8086C-94.3311 63.0078 -94.6729 62.3828 -95.2393 61.9336C-95.7959 61.4844 -96.5869 61.2598 -97.6123 61.2598C-98.8232 61.2598 -99.6875 61.46 -100.205 61.8604C-100.723 62.2607 -100.981 62.7295 -100.981 63.2666C-100.981 63.6084 -100.874 63.916 -100.659 64.1895C-100.444 64.4727 -100.107 64.707 -99.6484 64.8926C-99.3848 64.9902 -98.6084 65.2148 -97.3193 65.5664C-95.4541 66.0645 -94.1553 66.4746 -93.4229 66.7969C-92.6807 67.1094 -92.0996 67.5684 -91.6797 68.1738C-91.2598 68.7793 -91.0498 69.5312 -91.0498 70.4297C-91.0498 71.3086 -91.3086 72.1387 -91.8262 72.9199C-92.334 73.6914 -93.0713 74.292 -94.0381 74.7217C-95.0049 75.1416 -96.0986 75.3516 -97.3193 75.3516C-99.3408 75.3516 -100.884 74.9316 -101.948 74.0918C-103.003 73.252 -103.677 72.0068 -103.97 70.3564ZM-173.506 110.289L-170.942 110.67C-170.835 111.461 -170.537 112.037 -170.049 112.398C-169.395 112.887 -168.501 113.131 -167.368 113.131C-166.147 113.131 -165.205 112.887 -164.541 112.398C-163.877 111.91 -163.428 111.227 -163.193 110.348C-163.057 109.811 -162.993 108.683 -163.003 106.964C-164.155 108.321 -165.591 109 -167.31 109C-169.448 109 -171.104 108.229 -172.275 106.686C-173.447 105.143 -174.033 103.292 -174.033 101.134C-174.033 99.6494 -173.765 98.2822 -173.228 97.0322C-172.69 95.7725 -171.914 94.8008 -170.898 94.1172C-169.873 93.4336 -168.672 93.0918 -167.295 93.0918C-165.459 93.0918 -163.945 93.834 -162.754 95.3184V93.4434H-160.322V106.891C-160.322 109.312 -160.571 111.026 -161.069 112.032C-161.558 113.048 -162.339 113.849 -163.413 114.435C-164.478 115.021 -165.791 115.313 -167.354 115.313C-169.209 115.313 -170.708 114.894 -171.851 114.054C-172.993 113.224 -173.545 111.969 -173.506 110.289ZM-171.323 100.943C-171.323 102.984 -170.918 104.474 -170.107 105.411C-169.297 106.349 -168.281 106.817 -167.061 106.817C-165.85 106.817 -164.834 106.354 -164.014 105.426C-163.193 104.488 -162.783 103.023 -162.783 101.031C-162.783 99.127 -163.208 97.6914 -164.058 96.7246C-164.897 95.7578 -165.913 95.2744 -167.104 95.2744C-168.276 95.2744 -169.272 95.7529 -170.093 96.71C-170.913 97.6572 -171.323 99.0684 -171.323 100.943ZM-156.353 109V93.4434H-153.979V95.8018C-153.374 94.6982 -152.817 93.9707 -152.31 93.6191C-151.792 93.2676 -151.226 93.0918 -150.61 93.0918C-149.722 93.0918 -148.818 93.375 -147.9 93.9414L-148.809 96.3877C-149.453 96.0068 -150.098 95.8164 -150.742 95.8164C-151.318 95.8164 -151.836 95.9922 -152.295 96.3438C-152.754 96.6855 -153.081 97.1641 -153.276 97.7793C-153.569 98.7168 -153.716 99.7422 -153.716 100.855V109H-156.353ZM-135.684 103.99L-132.959 104.327C-133.389 105.919 -134.185 107.154 -135.347 108.033C-136.509 108.912 -137.993 109.352 -139.8 109.352C-142.075 109.352 -143.882 108.653 -145.22 107.257C-146.548 105.851 -147.212 103.883 -147.212 101.354C-147.212 98.7363 -146.538 96.7051 -145.19 95.2598C-143.843 93.8145 -142.095 93.0918 -139.946 93.0918C-137.866 93.0918 -136.167 93.7998 -134.849 95.2158C-133.53 96.6318 -132.871 98.624 -132.871 101.192C-132.871 101.349 -132.876 101.583 -132.886 101.896H-144.487C-144.39 103.604 -143.906 104.913 -143.037 105.821C-142.168 106.729 -141.084 107.184 -139.785 107.184C-138.818 107.184 -137.993 106.93 -137.31 106.422C-136.626 105.914 -136.084 105.104 -135.684 103.99ZM-144.341 99.7275H-135.654C-135.771 98.4189 -136.104 97.4375 -136.65 96.7832C-137.49 95.7676 -138.579 95.2598 -139.917 95.2598C-141.128 95.2598 -142.148 95.665 -142.979 96.4756C-143.799 97.2861 -144.253 98.3701 -144.341 99.7275ZM-137.544 109C-138.101 109.342 -138.535 109.762 -138.848 110.26C-139.15 110.768 -139.302 111.28 -139.302 111.798C-139.302 112.208 -139.189 112.555 -138.965 112.838C-138.74 113.121 -138.374 113.263 -137.866 113.263C-137.642 113.263 -137.412 113.229 -137.178 113.16C-136.943 113.102 -136.729 113.019 -136.533 112.911V114.786C-137.246 115.128 -137.91 115.299 -138.525 115.299C-139.023 115.299 -139.458 115.226 -139.829 115.079C-140.2 114.942 -140.513 114.747 -140.767 114.493C-141.011 114.249 -141.196 113.966 -141.323 113.644C-141.44 113.321 -141.499 112.975 -141.499 112.604C-141.499 111.979 -141.323 111.349 -140.972 110.714C-140.62 110.089 -140.122 109.518 -139.478 109H-137.544ZM-131.025 109V106.861L-121.123 95.4941C-122.246 95.5527 -123.237 95.582 -124.097 95.582H-130.439V93.4434H-117.725V95.1865L-126.147 105.06L-127.773 106.861C-126.592 106.773 -125.483 106.729 -124.448 106.729H-117.256V109H-131.025ZM-123.657 89.8984L-122.046 87.4082H-119.058L-122.354 91.5098H-125.166L-128.33 87.4082H-125.312L-123.657 89.8984ZM-114.619 90.5576V87.5254H-111.982V90.5576H-114.619ZM-114.619 109V93.4434H-111.982V109H-114.619ZM-97.8027 107.081C-98.7793 107.911 -99.7217 108.497 -100.63 108.839C-101.528 109.181 -102.495 109.352 -103.53 109.352C-105.239 109.352 -106.553 108.937 -107.471 108.106C-108.389 107.267 -108.848 106.197 -108.848 104.898C-108.848 104.137 -108.677 103.443 -108.335 102.818C-107.983 102.184 -107.529 101.676 -106.973 101.295C-106.406 100.914 -105.771 100.626 -105.068 100.431C-104.551 100.294 -103.77 100.162 -102.725 100.035C-100.596 99.7812 -99.0283 99.4785 -98.0225 99.127C-98.0127 98.7656 -98.0078 98.5361 -98.0078 98.4385C-98.0078 97.3643 -98.2568 96.6074 -98.7549 96.168C-99.4287 95.5723 -100.43 95.2744 -101.758 95.2744C-102.998 95.2744 -103.916 95.4941 -104.512 95.9336C-105.098 96.3633 -105.532 97.1299 -105.815 98.2334L-108.394 97.8818C-108.159 96.7783 -107.773 95.8896 -107.236 95.2158C-106.699 94.5322 -105.923 94.0098 -104.907 93.6484C-103.892 93.2773 -102.715 93.0918 -101.377 93.0918C-100.049 93.0918 -98.9697 93.248 -98.1396 93.5605C-97.3096 93.873 -96.6992 94.2686 -96.3086 94.7471C-95.918 95.2158 -95.6445 95.8115 -95.4883 96.5342C-95.4004 96.9834 -95.3564 97.7939 -95.3564 98.9658V102.481C-95.3564 104.933 -95.3027 106.485 -95.1953 107.14C-95.0781 107.784 -94.8535 108.404 -94.5215 109H-97.2754C-97.5488 108.453 -97.7246 107.813 -97.8027 107.081ZM-98.0225 101.192C-98.9795 101.583 -100.415 101.915 -102.329 102.188C-103.413 102.345 -104.18 102.521 -104.629 102.716C-105.078 102.911 -105.425 103.199 -105.669 103.58C-105.913 103.951 -106.035 104.366 -106.035 104.825C-106.035 105.528 -105.771 106.114 -105.244 106.583C-104.707 107.052 -103.926 107.286 -102.9 107.286C-101.885 107.286 -100.981 107.066 -100.19 106.627C-99.3994 106.178 -98.8184 105.567 -98.4473 104.796C-98.1641 104.2 -98.0225 103.321 -98.0225 102.159V101.192ZM-91.2549 109V93.4434H-88.8965V95.626C-88.4082 94.8643 -87.7588 94.2539 -86.9482 93.7949C-86.1377 93.3262 -85.2148 93.0918 -84.1797 93.0918C-83.0273 93.0918 -82.085 93.3311 -81.3525 93.8096C-80.6104 94.2881 -80.0879 94.957 -79.7852 95.8164C-78.5547 94 -76.9531 93.0918 -74.9805 93.0918C-73.4375 93.0918 -72.251 93.5215 -71.4209 94.3809C-70.5908 95.2305 -70.1758 96.5439 -70.1758 98.3213V109H-72.7979V99.2002C-72.7979 98.1455 -72.8857 97.3887 -73.0615 96.9297C-73.2275 96.4609 -73.5352 96.085 -73.9844 95.8018C-74.4336 95.5186 -74.9609 95.377 -75.5664 95.377C-76.6602 95.377 -77.5684 95.7432 -78.291 96.4756C-79.0137 97.1982 -79.375 98.3604 -79.375 99.9619V109H-82.0117V98.8926C-82.0117 97.7207 -82.2266 96.8418 -82.6562 96.2559C-83.0859 95.6699 -83.7891 95.377 -84.7656 95.377C-85.5078 95.377 -86.1963 95.5723 -86.8311 95.9629C-87.4561 96.3535 -87.9102 96.9248 -88.1934 97.6768C-88.4766 98.4287 -88.6182 99.5127 -88.6182 100.929V109H-91.2549ZM-67.2461 101.222C-67.2461 98.3408 -66.4453 96.207 -64.8438 94.8203C-63.5059 93.668 -61.875 93.0918 -59.9512 93.0918C-57.8125 93.0918 -56.0645 93.7949 -54.707 95.2012C-53.3496 96.5977 -52.6709 98.5312 -52.6709 101.002C-52.6709 103.004 -52.9736 104.581 -53.5791 105.733C-54.1748 106.876 -55.0488 107.765 -56.2012 108.399C-57.3438 109.034 -58.5938 109.352 -59.9512 109.352C-62.1289 109.352 -63.8916 108.653 -65.2393 107.257C-66.5771 105.86 -67.2461 103.849 -67.2461 101.222ZM-64.5361 101.222C-64.5361 103.214 -64.1016 104.708 -63.2324 105.704C-62.3633 106.69 -61.2695 107.184 -59.9512 107.184C-58.6426 107.184 -57.5537 106.686 -56.6846 105.689C-55.8154 104.693 -55.3809 103.175 -55.3809 101.134C-55.3809 99.21 -55.8203 97.7549 -56.6992 96.7686C-57.5684 95.7725 -58.6523 95.2744 -59.9512 95.2744C-61.2695 95.2744 -62.3633 95.7676 -63.2324 96.7539C-64.1016 97.7402 -64.5361 99.2295 -64.5361 101.222ZM-50.6201 104.356L-48.0127 103.946C-47.8662 104.991 -47.4609 105.792 -46.7969 106.349C-46.123 106.905 -45.1855 107.184 -43.9844 107.184C-42.7734 107.184 -41.875 106.939 -41.2891 106.451C-40.7031 105.953 -40.4102 105.372 -40.4102 104.708C-40.4102 104.112 -40.6689 103.644 -41.1865 103.302C-41.5479 103.067 -42.4463 102.77 -43.8818 102.408C-45.8154 101.92 -47.1582 101.5 -47.9102 101.148C-48.6523 100.787 -49.2188 100.294 -49.6094 99.6689C-49.9902 99.0342 -50.1807 98.3359 -50.1807 97.5742C-50.1807 96.8809 -50.0244 96.2412 -49.7119 95.6553C-49.3896 95.0596 -48.9551 94.5664 -48.4082 94.1758C-47.998 93.873 -47.4414 93.6191 -46.7383 93.4141C-46.0254 93.1992 -45.2637 93.0918 -44.4531 93.0918C-43.2324 93.0918 -42.1631 93.2676 -41.2451 93.6191C-40.3174 93.9707 -39.6338 94.4492 -39.1943 95.0547C-38.7549 95.6504 -38.4521 96.4512 -38.2861 97.457L-40.8643 97.8086C-40.9814 97.0078 -41.3232 96.3828 -41.8896 95.9336C-42.4463 95.4844 -43.2373 95.2598 -44.2627 95.2598C-45.4736 95.2598 -46.3379 95.46 -46.8555 95.8604C-47.373 96.2607 -47.6318 96.7295 -47.6318 97.2666C-47.6318 97.6084 -47.5244 97.916 -47.3096 98.1895C-47.0947 98.4727 -46.7578 98.707 -46.2988 98.8926C-46.0352 98.9902 -45.2588 99.2148 -43.9697 99.5664C-42.1045 100.064 -40.8057 100.475 -40.0732 100.797C-39.3311 101.109 -38.75 101.568 -38.3301 102.174C-37.9102 102.779 -37.7002 103.531 -37.7002 104.43C-37.7002 105.309 -37.959 106.139 -38.4766 106.92C-38.9844 107.691 -39.7217 108.292 -40.6885 108.722C-41.6553 109.142 -42.749 109.352 -43.9697 109.352C-45.9912 109.352 -47.5342 108.932 -48.5986 108.092C-49.6533 107.252 -50.3271 106.007 -50.6201 104.356ZM-23.7842 109H-26.2305V87.5254H-23.5938V95.1865C-22.4805 93.79 -21.0596 93.0918 -19.3311 93.0918C-18.374 93.0918 -17.4707 93.2871 -16.6211 93.6777C-15.7617 94.0586 -15.0586 94.6006 -14.5117 95.3037C-13.9551 95.9971 -13.5205 96.8369 -13.208 97.8232C-12.8955 98.8096 -12.7393 99.8643 -12.7393 100.987C-12.7393 103.653 -13.3984 105.714 -14.7168 107.169C-16.0352 108.624 -17.6172 109.352 -19.4629 109.352C-21.2988 109.352 -22.7393 108.585 -23.7842 107.052V109ZM-23.8135 101.104C-23.8135 102.97 -23.5596 104.317 -23.0518 105.147C-22.2217 106.505 -21.0986 107.184 -19.6826 107.184C-18.5303 107.184 -17.5342 106.686 -16.6943 105.689C-15.8545 104.684 -15.4346 103.189 -15.4346 101.207C-15.4346 99.1758 -15.8398 97.6768 -16.6504 96.71C-17.4512 95.7432 -18.4229 95.2598 -19.5654 95.2598C-20.7178 95.2598 -21.7139 95.7627 -22.5537 96.7686C-23.3936 97.7646 -23.8135 99.21 -23.8135 101.104ZM1.13281 103.99L3.85742 104.327C3.42773 105.919 2.63184 107.154 1.46973 108.033C0.307617 108.912 -1.17676 109.352 -2.9834 109.352C-5.25879 109.352 -7.06543 108.653 -8.40332 107.257C-9.73145 105.851 -10.3955 103.883 -10.3955 101.354C-10.3955 98.7363 -9.72168 96.7051 -8.37402 95.2598C-7.02637 93.8145 -5.27832 93.0918 -3.12988 93.0918C-1.0498 93.0918 0.649414 93.7998 1.96777 95.2158C3.28613 96.6318 3.94531 98.624 3.94531 101.192C3.94531 101.349 3.94043 101.583 3.93066 101.896H-7.6709C-7.57324 103.604 -7.08984 104.913 -6.2207 105.821C-5.35156 106.729 -4.26758 107.184 -2.96875 107.184C-2.00195 107.184 -1.17676 106.93 -0.493164 106.422C0.19043 105.914 0.732422 105.104 1.13281 103.99ZM-7.52441 99.7275H1.16211C1.04492 98.4189 0.712891 97.4375 0.166016 96.7832C-0.673828 95.7676 -1.7627 95.2598 -3.10059 95.2598C-4.31152 95.2598 -5.33203 95.665 -6.16211 96.4756C-6.98242 97.2861 -7.43652 98.3701 -7.52441 99.7275ZM-168.701 143L-174.619 127.443H-171.836L-168.496 136.76C-168.135 137.766 -167.803 138.811 -167.5 139.895C-167.266 139.074 -166.938 138.088 -166.519 136.936L-163.062 127.443H-160.352L-166.24 143H-168.701ZM-158.008 124.558V121.525H-155.371V124.558H-158.008ZM-158.008 143V127.443H-155.371V143H-158.008ZM-148.911 143H-151.357V121.525H-148.721V129.187C-147.607 127.79 -146.187 127.092 -144.458 127.092C-143.501 127.092 -142.598 127.287 -141.748 127.678C-140.889 128.059 -140.186 128.601 -139.639 129.304C-139.082 129.997 -138.647 130.837 -138.335 131.823C-138.022 132.81 -137.866 133.864 -137.866 134.987C-137.866 137.653 -138.525 139.714 -139.844 141.169C-141.162 142.624 -142.744 143.352 -144.59 143.352C-146.426 143.352 -147.866 142.585 -148.911 141.052V143ZM-148.94 135.104C-148.94 136.97 -148.687 138.317 -148.179 139.147C-147.349 140.505 -146.226 141.184 -144.81 141.184C-143.657 141.184 -142.661 140.686 -141.821 139.689C-140.981 138.684 -140.562 137.189 -140.562 135.207C-140.562 133.176 -140.967 131.677 -141.777 130.71C-142.578 129.743 -143.55 129.26 -144.692 129.26C-145.845 129.26 -146.841 129.763 -147.681 130.769C-148.521 131.765 -148.94 133.21 -148.94 135.104ZM-134.673 143V127.443H-132.3V129.802C-131.694 128.698 -131.138 127.971 -130.63 127.619C-130.112 127.268 -129.546 127.092 -128.931 127.092C-128.042 127.092 -127.139 127.375 -126.221 127.941L-127.129 130.388C-127.773 130.007 -128.418 129.816 -129.062 129.816C-129.639 129.816 -130.156 129.992 -130.615 130.344C-131.074 130.686 -131.401 131.164 -131.597 131.779C-131.89 132.717 -132.036 133.742 -132.036 134.855V143H-134.673ZM-114.502 141.081C-115.479 141.911 -116.421 142.497 -117.329 142.839C-118.228 143.181 -119.194 143.352 -120.229 143.352C-121.938 143.352 -123.252 142.937 -124.17 142.106C-125.088 141.267 -125.547 140.197 -125.547 138.898C-125.547 138.137 -125.376 137.443 -125.034 136.818C-124.683 136.184 -124.229 135.676 -123.672 135.295C-123.105 134.914 -122.471 134.626 -121.768 134.431C-121.25 134.294 -120.469 134.162 -119.424 134.035C-117.295 133.781 -115.728 133.479 -114.722 133.127C-114.712 132.766 -114.707 132.536 -114.707 132.438C-114.707 131.364 -114.956 130.607 -115.454 130.168C-116.128 129.572 -117.129 129.274 -118.457 129.274C-119.697 129.274 -120.615 129.494 -121.211 129.934C-121.797 130.363 -122.231 131.13 -122.515 132.233L-125.093 131.882C-124.858 130.778 -124.473 129.89 -123.936 129.216C-123.398 128.532 -122.622 128.01 -121.606 127.648C-120.591 127.277 -119.414 127.092 -118.076 127.092C-116.748 127.092 -115.669 127.248 -114.839 127.561C-114.009 127.873 -113.398 128.269 -113.008 128.747C-112.617 129.216 -112.344 129.812 -112.188 130.534C-112.1 130.983 -112.056 131.794 -112.056 132.966V136.481C-112.056 138.933 -112.002 140.485 -111.895 141.14C-111.777 141.784 -111.553 142.404 -111.221 143H-113.975C-114.248 142.453 -114.424 141.813 -114.502 141.081ZM-114.722 135.192C-115.679 135.583 -117.114 135.915 -119.028 136.188C-120.112 136.345 -120.879 136.521 -121.328 136.716C-121.777 136.911 -122.124 137.199 -122.368 137.58C-122.612 137.951 -122.734 138.366 -122.734 138.825C-122.734 139.528 -122.471 140.114 -121.943 140.583C-121.406 141.052 -120.625 141.286 -119.6 141.286C-118.584 141.286 -117.681 141.066 -116.89 140.627C-116.099 140.178 -115.518 139.567 -115.146 138.796C-114.863 138.2 -114.722 137.321 -114.722 136.159V135.192ZM-97.8027 137.302L-95.21 137.639C-95.4932 139.426 -96.2207 140.827 -97.3926 141.843C-98.5547 142.849 -99.9854 143.352 -101.685 143.352C-103.813 143.352 -105.527 142.658 -106.826 141.271C-108.115 139.875 -108.76 137.878 -108.76 135.28C-108.76 133.601 -108.481 132.131 -107.925 130.871C-107.368 129.611 -106.523 128.669 -105.391 128.044C-104.248 127.409 -103.008 127.092 -101.67 127.092C-99.9805 127.092 -98.5986 127.521 -97.5244 128.381C-96.4502 129.23 -95.7617 130.441 -95.459 132.014L-98.0225 132.409C-98.2666 131.364 -98.7012 130.578 -99.3262 130.051C-99.9414 129.523 -100.688 129.26 -101.567 129.26C-102.896 129.26 -103.975 129.738 -104.805 130.695C-105.635 131.643 -106.05 133.146 -106.05 135.207C-106.05 137.297 -105.649 138.815 -104.849 139.763C-104.048 140.71 -103.003 141.184 -101.714 141.184C-100.679 141.184 -99.8145 140.866 -99.1211 140.231C-98.4277 139.597 -97.9883 138.62 -97.8027 137.302ZM-92.9395 124.558V121.525H-90.3027V124.558H-92.9395ZM-92.9395 143V127.443H-90.3027V143H-92.9395ZM-86.2891 124.587V121.525H-83.6523V124.587H-86.2891ZM-89.6289 149.035L-89.1309 146.794C-88.6035 146.931 -88.1885 146.999 -87.8857 146.999C-87.3486 146.999 -86.9482 146.818 -86.6846 146.457C-86.4209 146.105 -86.2891 145.217 -86.2891 143.791V127.443H-83.6523V143.85C-83.6523 145.764 -83.9014 147.097 -84.3994 147.849C-85.0342 148.825 -86.0889 149.313 -87.5635 149.313C-88.2764 149.313 -88.9648 149.221 -89.6289 149.035ZM-80.5762 135.222C-80.5762 132.341 -79.7754 130.207 -78.1738 128.82C-76.8359 127.668 -75.2051 127.092 -73.2812 127.092C-71.1426 127.092 -69.3945 127.795 -68.0371 129.201C-66.6797 130.598 -66.001 132.531 -66.001 135.002C-66.001 137.004 -66.3037 138.581 -66.9092 139.733C-67.5049 140.876 -68.3789 141.765 -69.5312 142.399C-70.6738 143.034 -71.9238 143.352 -73.2812 143.352C-75.459 143.352 -77.2217 142.653 -78.5693 141.257C-79.9072 139.86 -80.5762 137.849 -80.5762 135.222ZM-77.8662 135.222C-77.8662 137.214 -77.4316 138.708 -76.5625 139.704C-75.6934 140.69 -74.5996 141.184 -73.2812 141.184C-71.9727 141.184 -70.8838 140.686 -70.0146 139.689C-69.1455 138.693 -68.7109 137.175 -68.7109 135.134C-68.7109 133.21 -69.1504 131.755 -70.0293 130.769C-70.8984 129.772 -71.9824 129.274 -73.2812 129.274C-74.5996 129.274 -75.6934 129.768 -76.5625 130.754C-77.4316 131.74 -77.8662 133.229 -77.8662 135.222ZM-63.9502 138.356L-61.3428 137.946C-61.1963 138.991 -60.791 139.792 -60.127 140.349C-59.4531 140.905 -58.5156 141.184 -57.3145 141.184C-56.1035 141.184 -55.2051 140.939 -54.6191 140.451C-54.0332 139.953 -53.7402 139.372 -53.7402 138.708C-53.7402 138.112 -53.999 137.644 -54.5166 137.302C-54.8779 137.067 -55.7764 136.77 -57.2119 136.408C-59.1455 135.92 -60.4883 135.5 -61.2402 135.148C-61.9824 134.787 -62.5488 134.294 -62.9395 133.669C-63.3203 133.034 -63.5107 132.336 -63.5107 131.574C-63.5107 130.881 -63.3545 130.241 -63.042 129.655C-62.7197 129.06 -62.2852 128.566 -61.7383 128.176C-61.3281 127.873 -60.7715 127.619 -60.0684 127.414C-59.3555 127.199 -58.5938 127.092 -57.7832 127.092C-56.5625 127.092 -55.4932 127.268 -54.5752 127.619C-53.6475 127.971 -52.9639 128.449 -52.5244 129.055C-52.085 129.65 -51.7822 130.451 -51.6162 131.457L-54.1943 131.809C-54.3115 131.008 -54.6533 130.383 -55.2197 129.934C-55.7764 129.484 -56.5674 129.26 -57.5928 129.26C-58.8037 129.26 -59.668 129.46 -60.1855 129.86C-60.7031 130.261 -60.9619 130.729 -60.9619 131.267C-60.9619 131.608 -60.8545 131.916 -60.6396 132.189C-60.4248 132.473 -60.0879 132.707 -59.6289 132.893C-59.3652 132.99 -58.5889 133.215 -57.2998 133.566C-55.4346 134.064 -54.1357 134.475 -53.4033 134.797C-52.6611 135.109 -52.0801 135.568 -51.6602 136.174C-51.2402 136.779 -51.0303 137.531 -51.0303 138.43C-51.0303 139.309 -51.2891 140.139 -51.8066 140.92C-52.3145 141.691 -53.0518 142.292 -54.0186 142.722C-54.9854 143.142 -56.0791 143.352 -57.2998 143.352C-59.3213 143.352 -60.8643 142.932 -61.9287 142.092C-62.9834 141.252 -63.6572 140.007 -63.9502 138.356ZM-174.077 172.356L-171.47 171.946C-171.323 172.991 -170.918 173.792 -170.254 174.349C-169.58 174.905 -168.643 175.184 -167.441 175.184C-166.23 175.184 -165.332 174.939 -164.746 174.451C-164.16 173.953 -163.867 173.372 -163.867 172.708C-163.867 172.112 -164.126 171.644 -164.644 171.302C-165.005 171.067 -165.903 170.77 -167.339 170.408C-169.272 169.92 -170.615 169.5 -171.367 169.148C-172.109 168.787 -172.676 168.294 -173.066 167.669C-173.447 167.034 -173.638 166.336 -173.638 165.574C-173.638 164.881 -173.481 164.241 -173.169 163.655C-172.847 163.06 -172.412 162.566 -171.865 162.176C-171.455 161.873 -170.898 161.619 -170.195 161.414C-169.482 161.199 -168.721 161.092 -167.91 161.092C-166.689 161.092 -165.62 161.268 -164.702 161.619C-163.774 161.971 -163.091 162.449 -162.651 163.055C-162.212 163.65 -161.909 164.451 -161.743 165.457L-164.321 165.809C-164.438 165.008 -164.78 164.383 -165.347 163.934C-165.903 163.484 -166.694 163.26 -167.72 163.26C-168.931 163.26 -169.795 163.46 -170.312 163.86C-170.83 164.261 -171.089 164.729 -171.089 165.267C-171.089 165.608 -170.981 165.916 -170.767 166.189C-170.552 166.473 -170.215 166.707 -169.756 166.893C-169.492 166.99 -168.716 167.215 -167.427 167.566C-165.562 168.064 -164.263 168.475 -163.53 168.797C-162.788 169.109 -162.207 169.568 -161.787 170.174C-161.367 170.779 -161.157 171.531 -161.157 172.43C-161.157 173.309 -161.416 174.139 -161.934 174.92C-162.441 175.691 -163.179 176.292 -164.146 176.722C-165.112 177.142 -166.206 177.352 -167.427 177.352C-169.448 177.352 -170.991 176.932 -172.056 176.092C-173.11 175.252 -173.784 174.007 -174.077 172.356ZM-147.871 175.081C-148.848 175.911 -149.79 176.497 -150.698 176.839C-151.597 177.181 -152.563 177.352 -153.599 177.352C-155.308 177.352 -156.621 176.937 -157.539 176.106C-158.457 175.267 -158.916 174.197 -158.916 172.898C-158.916 172.137 -158.745 171.443 -158.403 170.818C-158.052 170.184 -157.598 169.676 -157.041 169.295C-156.475 168.914 -155.84 168.626 -155.137 168.431C-154.619 168.294 -153.838 168.162 -152.793 168.035C-150.664 167.781 -149.097 167.479 -148.091 167.127C-148.081 166.766 -148.076 166.536 -148.076 166.438C-148.076 165.364 -148.325 164.607 -148.823 164.168C-149.497 163.572 -150.498 163.274 -151.826 163.274C-153.066 163.274 -153.984 163.494 -154.58 163.934C-155.166 164.363 -155.601 165.13 -155.884 166.233L-158.462 165.882C-158.228 164.778 -157.842 163.89 -157.305 163.216C-156.768 162.532 -155.991 162.01 -154.976 161.648C-153.96 161.277 -152.783 161.092 -151.445 161.092C-150.117 161.092 -149.038 161.248 -148.208 161.561C-147.378 161.873 -146.768 162.269 -146.377 162.747C-145.986 163.216 -145.713 163.812 -145.557 164.534C-145.469 164.983 -145.425 165.794 -145.425 166.966V170.481C-145.425 172.933 -145.371 174.485 -145.264 175.14C-145.146 175.784 -144.922 176.404 -144.59 177H-147.344C-147.617 176.453 -147.793 175.813 -147.871 175.081ZM-148.091 169.192C-149.048 169.583 -150.483 169.915 -152.397 170.188C-153.481 170.345 -154.248 170.521 -154.697 170.716C-155.146 170.911 -155.493 171.199 -155.737 171.58C-155.981 171.951 -156.104 172.366 -156.104 172.825C-156.104 173.528 -155.84 174.114 -155.312 174.583C-154.775 175.052 -153.994 175.286 -152.969 175.286C-151.953 175.286 -151.05 175.066 -150.259 174.627C-149.468 174.178 -148.887 173.567 -148.516 172.796C-148.232 172.2 -148.091 171.321 -148.091 170.159V169.192ZM-131.128 177V174.715C-132.339 176.473 -133.984 177.352 -136.064 177.352C-136.982 177.352 -137.842 177.176 -138.643 176.824C-139.434 176.473 -140.024 176.033 -140.415 175.506C-140.796 174.969 -141.064 174.314 -141.221 173.543C-141.328 173.025 -141.382 172.205 -141.382 171.082V161.443H-138.745V170.071C-138.745 171.448 -138.691 172.376 -138.584 172.854C-138.418 173.548 -138.066 174.095 -137.529 174.495C-136.992 174.886 -136.328 175.081 -135.537 175.081C-134.746 175.081 -134.004 174.881 -133.311 174.48C-132.617 174.07 -132.129 173.519 -131.846 172.825C-131.553 172.122 -131.406 171.106 -131.406 169.778V161.443H-128.77V177H-131.128ZM-125.107 178.289L-122.544 178.67C-122.437 179.461 -122.139 180.037 -121.65 180.398C-120.996 180.887 -120.103 181.131 -118.97 181.131C-117.749 181.131 -116.807 180.887 -116.143 180.398C-115.479 179.91 -115.029 179.227 -114.795 178.348C-114.658 177.811 -114.595 176.683 -114.604 174.964C-115.757 176.321 -117.192 177 -118.911 177C-121.05 177 -122.705 176.229 -123.877 174.686C-125.049 173.143 -125.635 171.292 -125.635 169.134C-125.635 167.649 -125.366 166.282 -124.829 165.032C-124.292 163.772 -123.516 162.801 -122.5 162.117C-121.475 161.434 -120.273 161.092 -118.896 161.092C-117.061 161.092 -115.547 161.834 -114.355 163.318V161.443H-111.924V174.891C-111.924 177.312 -112.173 179.026 -112.671 180.032C-113.159 181.048 -113.94 181.849 -115.015 182.435C-116.079 183.021 -117.393 183.313 -118.955 183.313C-120.811 183.313 -122.31 182.894 -123.452 182.054C-124.595 181.224 -125.146 179.969 -125.107 178.289ZM-122.925 168.943C-122.925 170.984 -122.52 172.474 -121.709 173.411C-120.898 174.349 -119.883 174.817 -118.662 174.817C-117.451 174.817 -116.436 174.354 -115.615 173.426C-114.795 172.488 -114.385 171.023 -114.385 169.031C-114.385 167.127 -114.81 165.691 -115.659 164.725C-116.499 163.758 -117.515 163.274 -118.706 163.274C-119.878 163.274 -120.874 163.753 -121.694 164.71C-122.515 165.657 -122.925 167.068 -122.925 168.943ZM-97.7734 175.081C-98.75 175.911 -99.6924 176.497 -100.601 176.839C-101.499 177.181 -102.466 177.352 -103.501 177.352C-105.21 177.352 -106.523 176.937 -107.441 176.106C-108.359 175.267 -108.818 174.197 -108.818 172.898C-108.818 172.137 -108.647 171.443 -108.306 170.818C-107.954 170.184 -107.5 169.676 -106.943 169.295C-106.377 168.914 -105.742 168.626 -105.039 168.431C-104.521 168.294 -103.74 168.162 -102.695 168.035C-100.566 167.781 -98.999 167.479 -97.9932 167.127C-97.9834 166.766 -97.9785 166.536 -97.9785 166.438C-97.9785 165.364 -98.2275 164.607 -98.7256 164.168C-99.3994 163.572 -100.4 163.274 -101.729 163.274C-102.969 163.274 -103.887 163.494 -104.482 163.934C-105.068 164.363 -105.503 165.13 -105.786 166.233L-108.364 165.882C-108.13 164.778 -107.744 163.89 -107.207 163.216C-106.67 162.532 -105.894 162.01 -104.878 161.648C-103.862 161.277 -102.686 161.092 -101.348 161.092C-100.02 161.092 -98.9404 161.248 -98.1104 161.561C-97.2803 161.873 -96.6699 162.269 -96.2793 162.747C-95.8887 163.216 -95.6152 163.812 -95.459 164.534C-95.3711 164.983 -95.3271 165.794 -95.3271 166.966V170.481C-95.3271 172.933 -95.2734 174.485 -95.166 175.14C-95.0488 175.784 -94.8242 176.404 -94.4922 177H-97.2461C-97.5195 176.453 -97.6953 175.813 -97.7734 175.081ZM-97.9932 169.192C-98.9502 169.583 -100.386 169.915 -102.3 170.188C-103.384 170.345 -104.15 170.521 -104.6 170.716C-105.049 170.911 -105.396 171.199 -105.64 171.58C-105.884 171.951 -106.006 172.366 -106.006 172.825C-106.006 173.528 -105.742 174.114 -105.215 174.583C-104.678 175.052 -103.896 175.286 -102.871 175.286C-101.855 175.286 -100.952 175.066 -100.161 174.627C-99.3701 174.178 -98.7891 173.567 -98.418 172.796C-98.1348 172.2 -97.9932 171.321 -97.9932 170.159V169.192ZM-91.2256 177V161.443H-88.8525V163.655C-87.71 161.946 -86.0596 161.092 -83.9014 161.092C-82.9639 161.092 -82.1045 161.263 -81.3232 161.604C-80.5322 161.937 -79.9414 162.376 -79.5508 162.923C-79.1602 163.47 -78.8867 164.119 -78.7305 164.871C-78.6328 165.359 -78.584 166.214 -78.584 167.435V177H-81.2207V167.537C-81.2207 166.463 -81.3232 165.662 -81.5283 165.135C-81.7334 164.598 -82.0996 164.173 -82.627 163.86C-83.1445 163.538 -83.7549 163.377 -84.458 163.377C-85.5811 163.377 -86.5527 163.733 -87.373 164.446C-88.1836 165.159 -88.5889 166.512 -88.5889 168.504V177H-91.2256ZM-68.7695 174.642L-68.3887 176.971C-69.1309 177.127 -69.7949 177.205 -70.3809 177.205C-71.3379 177.205 -72.0801 177.054 -72.6074 176.751C-73.1348 176.448 -73.5059 176.053 -73.7207 175.564C-73.9355 175.066 -74.043 174.026 -74.043 172.444V163.494H-75.9766V161.443H-74.043V157.591L-71.4209 156.009V161.443H-68.7695V163.494H-71.4209V172.591C-71.4209 173.343 -71.377 173.826 -71.2891 174.041C-71.1914 174.256 -71.04 174.427 -70.835 174.554C-70.6201 174.681 -70.3174 174.744 -69.9268 174.744C-69.6338 174.744 -69.248 174.71 -68.7695 174.642ZM-57.8271 182.962V161.443H-55.4248V163.465C-54.8584 162.674 -54.2188 162.083 -53.5059 161.692C-52.793 161.292 -51.9287 161.092 -50.9131 161.092C-49.585 161.092 -48.4131 161.434 -47.3975 162.117C-46.3818 162.801 -45.6152 163.768 -45.0977 165.018C-44.5801 166.258 -44.3213 167.62 -44.3213 169.104C-44.3213 170.696 -44.6094 172.132 -45.1855 173.411C-45.752 174.681 -46.582 175.657 -47.6758 176.341C-48.7598 177.015 -49.9023 177.352 -51.1035 177.352C-51.9824 177.352 -52.7734 177.166 -53.4766 176.795C-54.1699 176.424 -54.7412 175.955 -55.1904 175.389V182.962H-57.8271ZM-55.4395 169.31C-55.4395 171.312 -55.0342 172.791 -54.2236 173.748C-53.4131 174.705 -52.4316 175.184 -51.2793 175.184C-50.1074 175.184 -49.1064 174.69 -48.2764 173.704C-47.4365 172.708 -47.0166 171.17 -47.0166 169.09C-47.0166 167.107 -47.4268 165.623 -48.2471 164.637C-49.0576 163.65 -50.0293 163.157 -51.1621 163.157C-52.2852 163.157 -53.2812 163.685 -54.1504 164.739C-55.0098 165.784 -55.4395 167.308 -55.4395 169.31ZM-30.9766 175.081C-31.9531 175.911 -32.8955 176.497 -33.8037 176.839C-34.7021 177.181 -35.6689 177.352 -36.7041 177.352C-38.4131 177.352 -39.7266 176.937 -40.6445 176.106C-41.5625 175.267 -42.0215 174.197 -42.0215 172.898C-42.0215 172.137 -41.8506 171.443 -41.5088 170.818C-41.1572 170.184 -40.7031 169.676 -40.1465 169.295C-39.5801 168.914 -38.9453 168.626 -38.2422 168.431C-37.7246 168.294 -36.9434 168.162 -35.8984 168.035C-33.7695 167.781 -32.2021 167.479 -31.1963 167.127C-31.1865 166.766 -31.1816 166.536 -31.1816 166.438C-31.1816 165.364 -31.4307 164.607 -31.9287 164.168C-32.6025 163.572 -33.6035 163.274 -34.9316 163.274C-36.1719 163.274 -37.0898 163.494 -37.6855 163.934C-38.2715 164.363 -38.7061 165.13 -38.9893 166.233L-41.5674 165.882C-41.333 164.778 -40.9473 163.89 -40.4102 163.216C-39.873 162.532 -39.0967 162.01 -38.0811 161.648C-37.0654 161.277 -35.8887 161.092 -34.5508 161.092C-33.2227 161.092 -32.1436 161.248 -31.3135 161.561C-30.4834 161.873 -29.873 162.269 -29.4824 162.747C-29.0918 163.216 -28.8184 163.812 -28.6621 164.534C-28.5742 164.983 -28.5303 165.794 -28.5303 166.966V170.481C-28.5303 172.933 -28.4766 174.485 -28.3691 175.14C-28.252 175.784 -28.0273 176.404 -27.6953 177H-30.4492C-30.7227 176.453 -30.8984 175.813 -30.9766 175.081ZM-31.1963 169.192C-32.1533 169.583 -33.5889 169.915 -35.5029 170.188C-36.5869 170.345 -37.3535 170.521 -37.8027 170.716C-38.252 170.911 -38.5986 171.199 -38.8428 171.58C-39.0869 171.951 -39.209 172.366 -39.209 172.825C-39.209 173.528 -38.9453 174.114 -38.418 174.583C-37.8809 175.052 -37.0996 175.286 -36.0742 175.286C-35.0586 175.286 -34.1553 175.066 -33.3643 174.627C-32.5732 174.178 -31.9922 173.567 -31.6211 172.796C-31.3379 172.2 -31.1963 171.321 -31.1963 170.159V169.192ZM-25.4834 172.356L-22.876 171.946C-22.7295 172.991 -22.3242 173.792 -21.6602 174.349C-20.9863 174.905 -20.0488 175.184 -18.8477 175.184C-17.6367 175.184 -16.7383 174.939 -16.1523 174.451C-15.5664 173.953 -15.2734 173.372 -15.2734 172.708C-15.2734 172.112 -15.5322 171.644 -16.0498 171.302C-16.4111 171.067 -17.3096 170.77 -18.7451 170.408C-20.6787 169.92 -22.0215 169.5 -22.7734 169.148C-23.5156 168.787 -24.082 168.294 -24.4727 167.669C-24.8535 167.034 -25.0439 166.336 -25.0439 165.574C-25.0439 164.881 -24.8877 164.241 -24.5752 163.655C-24.2529 163.06 -23.8184 162.566 -23.2715 162.176C-22.8613 161.873 -22.3047 161.619 -21.6016 161.414C-20.8887 161.199 -20.127 161.092 -19.3164 161.092C-18.0957 161.092 -17.0264 161.268 -16.1084 161.619C-15.1807 161.971 -14.4971 162.449 -14.0576 163.055C-13.6182 163.65 -13.3154 164.451 -13.1494 165.457L-15.7275 165.809C-15.8447 165.008 -16.1865 164.383 -16.7529 163.934C-17.3096 163.484 -18.1006 163.26 -19.126 163.26C-20.3369 163.26 -21.2012 163.46 -21.7188 163.86C-22.2363 164.261 -22.4951 164.729 -22.4951 165.267C-22.4951 165.608 -22.3877 165.916 -22.1729 166.189C-21.958 166.473 -21.6211 166.707 -21.1621 166.893C-20.8984 166.99 -20.1221 167.215 -18.833 167.566C-16.9678 168.064 -15.6689 168.475 -14.9365 168.797C-14.1943 169.109 -13.6133 169.568 -13.1934 170.174C-12.7734 170.779 -12.5635 171.531 -12.5635 172.43C-12.5635 173.309 -12.8223 174.139 -13.3398 174.92C-13.8477 175.691 -14.585 176.292 -15.5518 176.722C-16.5186 177.142 -17.6123 177.352 -18.833 177.352C-20.8545 177.352 -22.3975 176.932 -23.4619 176.092C-24.5166 175.252 -25.1904 174.007 -25.4834 172.356ZM-3.67188 174.642L-3.29102 176.971C-4.0332 177.127 -4.69727 177.205 -5.2832 177.205C-6.24023 177.205 -6.98242 177.054 -7.50977 176.751C-8.03711 176.448 -8.4082 176.053 -8.62305 175.564C-8.83789 175.066 -8.94531 174.026 -8.94531 172.444V163.494H-10.8789V161.443H-8.94531V157.591L-6.32324 156.009V161.443H-3.67188V163.494H-6.32324V172.591C-6.32324 173.343 -6.2793 173.826 -6.19141 174.041C-6.09375 174.256 -5.94238 174.427 -5.7373 174.554C-5.52246 174.681 -5.21973 174.744 -4.8291 174.744C-4.53613 174.744 -4.15039 174.71 -3.67188 174.642ZM9.07227 175.081C8.0957 175.911 7.15332 176.497 6.24512 176.839C5.34668 177.181 4.37988 177.352 3.34473 177.352C1.63574 177.352 0.322266 176.937 -0.595703 176.106C-1.51367 175.267 -1.97266 174.197 -1.97266 172.898C-1.97266 172.137 -1.80176 171.443 -1.45996 170.818C-1.1084 170.184 -0.654297 169.676 -0.0976562 169.295C0.46875 168.914 1.10352 168.626 1.80664 168.431C2.32422 168.294 3.10547 168.162 4.15039 168.035C6.2793 167.781 7.84668 167.479 8.85254 167.127C8.8623 166.766 8.86719 166.536 8.86719 166.438C8.86719 165.364 8.61816 164.607 8.12012 164.168C7.44629 163.572 6.44531 163.274 5.11719 163.274C3.87695 163.274 2.95898 163.494 2.36328 163.934C1.77734 164.363 1.34277 165.13 1.05957 166.233L-1.51855 165.882C-1.28418 164.778 -0.898438 163.89 -0.361328 163.216C0.175781 162.532 0.952148 162.01 1.96777 161.648C2.9834 161.277 4.16016 161.092 5.49805 161.092C6.82617 161.092 7.90527 161.248 8.73535 161.561C9.56543 161.873 10.1758 162.269 10.5664 162.747C10.957 163.216 11.2305 163.812 11.3867 164.534C11.4746 164.983 11.5186 165.794 11.5186 166.966V170.481C11.5186 172.933 11.5723 174.485 11.6797 175.14C11.7969 175.784 12.0215 176.404 12.3535 177H9.59961C9.32617 176.453 9.15039 175.813 9.07227 175.081ZM8.85254 169.192C7.89551 169.583 6.45996 169.915 4.5459 170.188C3.46191 170.345 2.69531 170.521 2.24609 170.716C1.79688 170.911 1.4502 171.199 1.20605 171.58C0.961914 171.951 0.839844 172.366 0.839844 172.825C0.839844 173.528 1.10352 174.114 1.63086 174.583C2.16797 175.052 2.94922 175.286 3.97461 175.286C4.99023 175.286 5.89355 175.066 6.68457 174.627C7.47559 174.178 8.05664 173.567 8.42773 172.796C8.71094 172.2 8.85254 171.321 8.85254 170.159V169.192ZM21.377 174.642L21.7578 176.971C21.0156 177.127 20.3516 177.205 19.7656 177.205C18.8086 177.205 18.0664 177.054 17.5391 176.751C17.0117 176.448 16.6406 176.053 16.4258 175.564C16.2109 175.066 16.1035 174.026 16.1035 172.444V163.494H14.1699V161.443H16.1035V157.591L18.7256 156.009V161.443H21.377V163.494H18.7256V172.591C18.7256 173.343 18.7695 173.826 18.8574 174.041C18.9551 174.256 19.1064 174.427 19.3115 174.554C19.5264 174.681 19.8291 174.744 20.2197 174.744C20.5127 174.744 20.8984 174.71 21.377 174.642ZM22.9883 169.222C22.9883 166.341 23.7891 164.207 25.3906 162.82C26.7285 161.668 28.3594 161.092 30.2832 161.092C32.4219 161.092 34.1699 161.795 35.5273 163.201C36.8848 164.598 37.5635 166.531 37.5635 169.002C37.5635 171.004 37.2607 172.581 36.6553 173.733C36.0596 174.876 35.1855 175.765 34.0332 176.399C32.8906 177.034 31.6406 177.352 30.2832 177.352C28.1055 177.352 26.3428 176.653 24.9951 175.257C23.6572 173.86 22.9883 171.849 22.9883 169.222ZM25.6982 169.222C25.6982 171.214 26.1328 172.708 27.002 173.704C27.8711 174.69 28.9648 175.184 30.2832 175.184C31.5918 175.184 32.6807 174.686 33.5498 173.689C34.4189 172.693 34.8535 171.175 34.8535 169.134C34.8535 167.21 34.4141 165.755 33.5352 164.769C32.666 163.772 31.582 163.274 30.2832 163.274C28.9648 163.274 27.8711 163.768 27.002 164.754C26.1328 165.74 25.6982 167.229 25.6982 169.222ZM-173.008 211V189.525H-170.371V201.771L-164.131 195.443H-160.718L-166.665 201.215L-160.117 211H-163.369L-168.511 203.046L-170.371 204.833V211H-173.008ZM-159.004 203.222C-159.004 200.341 -158.203 198.207 -156.602 196.82C-155.264 195.668 -153.633 195.092 -151.709 195.092C-149.57 195.092 -147.822 195.795 -146.465 197.201C-145.107 198.598 -144.429 200.531 -144.429 203.002C-144.429 205.004 -144.731 206.581 -145.337 207.733C-145.933 208.876 -146.807 209.765 -147.959 210.399C-149.102 211.034 -150.352 211.352 -151.709 211.352C-153.887 211.352 -155.649 210.653 -156.997 209.257C-158.335 207.86 -159.004 205.849 -159.004 203.222ZM-156.294 203.222C-156.294 205.214 -155.859 206.708 -154.99 207.704C-154.121 208.69 -153.027 209.184 -151.709 209.184C-150.4 209.184 -149.312 208.686 -148.442 207.689C-147.573 206.693 -147.139 205.175 -147.139 203.134C-147.139 201.21 -147.578 199.755 -148.457 198.769C-149.326 197.772 -150.41 197.274 -151.709 197.274C-153.027 197.274 -154.121 197.768 -154.99 198.754C-155.859 199.74 -156.294 201.229 -156.294 203.222ZM-141.323 211V195.443H-138.95V197.655C-137.808 195.946 -136.157 195.092 -133.999 195.092C-133.062 195.092 -132.202 195.263 -131.421 195.604C-130.63 195.937 -130.039 196.376 -129.648 196.923C-129.258 197.47 -128.984 198.119 -128.828 198.871C-128.73 199.359 -128.682 200.214 -128.682 201.435V211H-131.318V201.537C-131.318 200.463 -131.421 199.662 -131.626 199.135C-131.831 198.598 -132.197 198.173 -132.725 197.86C-133.242 197.538 -133.853 197.377 -134.556 197.377C-135.679 197.377 -136.65 197.733 -137.471 198.446C-138.281 199.159 -138.687 200.512 -138.687 202.504V211H-141.323ZM-125.679 206.356L-123.071 205.946C-122.925 206.991 -122.52 207.792 -121.855 208.349C-121.182 208.905 -120.244 209.184 -119.043 209.184C-117.832 209.184 -116.934 208.939 -116.348 208.451C-115.762 207.953 -115.469 207.372 -115.469 206.708C-115.469 206.112 -115.728 205.644 -116.245 205.302C-116.606 205.067 -117.505 204.77 -118.94 204.408C-120.874 203.92 -122.217 203.5 -122.969 203.148C-123.711 202.787 -124.277 202.294 -124.668 201.669C-125.049 201.034 -125.239 200.336 -125.239 199.574C-125.239 198.881 -125.083 198.241 -124.771 197.655C-124.448 197.06 -124.014 196.566 -123.467 196.176C-123.057 195.873 -122.5 195.619 -121.797 195.414C-121.084 195.199 -120.322 195.092 -119.512 195.092C-118.291 195.092 -117.222 195.268 -116.304 195.619C-115.376 195.971 -114.692 196.449 -114.253 197.055C-113.813 197.65 -113.511 198.451 -113.345 199.457L-115.923 199.809C-116.04 199.008 -116.382 198.383 -116.948 197.934C-117.505 197.484 -118.296 197.26 -119.321 197.26C-120.532 197.26 -121.396 197.46 -121.914 197.86C-122.432 198.261 -122.69 198.729 -122.69 199.267C-122.69 199.608 -122.583 199.916 -122.368 200.189C-122.153 200.473 -121.816 200.707 -121.357 200.893C-121.094 200.99 -120.317 201.215 -119.028 201.566C-117.163 202.064 -115.864 202.475 -115.132 202.797C-114.39 203.109 -113.809 203.568 -113.389 204.174C-112.969 204.779 -112.759 205.531 -112.759 206.43C-112.759 207.309 -113.018 208.139 -113.535 208.92C-114.043 209.691 -114.78 210.292 -115.747 210.722C-116.714 211.142 -117.808 211.352 -119.028 211.352C-121.05 211.352 -122.593 210.932 -123.657 210.092C-124.712 209.252 -125.386 208.007 -125.679 206.356ZM-103.867 208.642L-103.486 210.971C-104.229 211.127 -104.893 211.205 -105.479 211.205C-106.436 211.205 -107.178 211.054 -107.705 210.751C-108.232 210.448 -108.604 210.053 -108.818 209.564C-109.033 209.066 -109.141 208.026 -109.141 206.444V197.494H-111.074V195.443H-109.141V191.591L-106.519 190.009V195.443H-103.867V197.494H-106.519V206.591C-106.519 207.343 -106.475 207.826 -106.387 208.041C-106.289 208.256 -106.138 208.427 -105.933 208.554C-105.718 208.681 -105.415 208.744 -105.024 208.744C-104.731 208.744 -104.346 208.71 -103.867 208.642ZM-101.304 211V195.443H-98.9307V197.802C-98.3252 196.698 -97.7686 195.971 -97.2607 195.619C-96.7432 195.268 -96.1768 195.092 -95.5615 195.092C-94.6729 195.092 -93.7695 195.375 -92.8516 195.941L-93.7598 198.388C-94.4043 198.007 -95.0488 197.816 -95.6934 197.816C-96.2695 197.816 -96.7871 197.992 -97.2461 198.344C-97.7051 198.686 -98.0322 199.164 -98.2275 199.779C-98.5205 200.717 -98.667 201.742 -98.667 202.855V211H-101.304ZM-81.0889 211V208.715C-82.2998 210.473 -83.9453 211.352 -86.0254 211.352C-86.9434 211.352 -87.8027 211.176 -88.6035 210.824C-89.3945 210.473 -89.9854 210.033 -90.376 209.506C-90.7568 208.969 -91.0254 208.314 -91.1816 207.543C-91.2891 207.025 -91.3428 206.205 -91.3428 205.082V195.443H-88.7061V204.071C-88.7061 205.448 -88.6523 206.376 -88.5449 206.854C-88.3789 207.548 -88.0273 208.095 -87.4902 208.495C-86.9531 208.886 -86.2891 209.081 -85.498 209.081C-84.707 209.081 -83.9648 208.881 -83.2715 208.48C-82.5781 208.07 -82.0898 207.519 -81.8066 206.825C-81.5137 206.122 -81.3672 205.106 -81.3672 203.778V195.443H-78.7305V211H-81.0889ZM-74.5703 211V189.525H-71.9336V201.771L-65.6934 195.443H-62.2803L-68.2275 201.215L-61.6797 211H-64.9316L-70.0732 203.046L-71.9336 204.833V211H-74.5703ZM-49.4336 205.302L-46.8408 205.639C-47.124 207.426 -47.8516 208.827 -49.0234 209.843C-50.1855 210.849 -51.6162 211.352 -53.3154 211.352C-55.4443 211.352 -57.1582 210.658 -58.457 209.271C-59.7461 207.875 -60.3906 205.878 -60.3906 203.28C-60.3906 201.601 -60.1123 200.131 -59.5557 198.871C-58.999 197.611 -58.1543 196.669 -57.0215 196.044C-55.8789 195.409 -54.6387 195.092 -53.3008 195.092C-51.6113 195.092 -50.2295 195.521 -49.1553 196.381C-48.0811 197.23 -47.3926 198.441 -47.0898 200.014L-49.6533 200.409C-49.8975 199.364 -50.332 198.578 -50.957 198.051C-51.5723 197.523 -52.3193 197.26 -53.1982 197.26C-54.5264 197.26 -55.6055 197.738 -56.4355 198.695C-57.2656 199.643 -57.6807 201.146 -57.6807 203.207C-57.6807 205.297 -57.2803 206.815 -56.4795 207.763C-55.6787 208.71 -54.6338 209.184 -53.3447 209.184C-52.3096 209.184 -51.4453 208.866 -50.752 208.231C-50.0586 207.597 -49.6191 206.62 -49.4336 205.302ZM-44.5703 192.558V189.525H-41.9336V192.558H-44.5703ZM-44.5703 211V195.443H-41.9336V211H-44.5703ZM-37.9199 192.587V189.525H-35.2832V192.587H-37.9199ZM-41.2598 217.035L-40.7617 214.794C-40.2344 214.931 -39.8193 214.999 -39.5166 214.999C-38.9795 214.999 -38.5791 214.818 -38.3154 214.457C-38.0518 214.105 -37.9199 213.217 -37.9199 211.791V195.443H-35.2832V211.85C-35.2832 213.764 -35.5322 215.097 -36.0303 215.849C-36.665 216.825 -37.7197 217.313 -39.1943 217.313C-39.9072 217.313 -40.5957 217.221 -41.2598 217.035ZM-21.0742 209.081C-22.0508 209.911 -22.9932 210.497 -23.9014 210.839C-24.7998 211.181 -25.7666 211.352 -26.8018 211.352C-28.5107 211.352 -29.8242 210.937 -30.7422 210.106C-31.6602 209.267 -32.1191 208.197 -32.1191 206.898C-32.1191 206.137 -31.9482 205.443 -31.6064 204.818C-31.2549 204.184 -30.8008 203.676 -30.2441 203.295C-29.6777 202.914 -29.043 202.626 -28.3398 202.431C-27.8223 202.294 -27.041 202.162 -25.9961 202.035C-23.8672 201.781 -22.2998 201.479 -21.2939 201.127C-21.2842 200.766 -21.2793 200.536 -21.2793 200.438C-21.2793 199.364 -21.5283 198.607 -22.0264 198.168C-22.7002 197.572 -23.7012 197.274 -25.0293 197.274C-26.2695 197.274 -27.1875 197.494 -27.7832 197.934C-28.3691 198.363 -28.8037 199.13 -29.0869 200.233L-31.665 199.882C-31.4307 198.778 -31.0449 197.89 -30.5078 197.216C-29.9707 196.532 -29.1943 196.01 -28.1787 195.648C-27.1631 195.277 -25.9863 195.092 -24.6484 195.092C-23.3203 195.092 -22.2412 195.248 -21.4111 195.561C-20.5811 195.873 -19.9707 196.269 -19.5801 196.747C-19.1895 197.216 -18.916 197.812 -18.7598 198.534C-18.6719 198.983 -18.6279 199.794 -18.6279 200.966V204.481C-18.6279 206.933 -18.5742 208.485 -18.4668 209.14C-18.3496 209.784 -18.125 210.404 -17.793 211H-20.5469C-20.8203 210.453 -20.9961 209.813 -21.0742 209.081ZM-21.2939 203.192C-22.251 203.583 -23.6865 203.915 -25.6006 204.188C-26.6846 204.345 -27.4512 204.521 -27.9004 204.716C-28.3496 204.911 -28.6963 205.199 -28.9404 205.58C-29.1846 205.951 -29.3066 206.366 -29.3066 206.825C-29.3066 207.528 -29.043 208.114 -28.5156 208.583C-27.9785 209.052 -27.1973 209.286 -26.1719 209.286C-25.1562 209.286 -24.2529 209.066 -23.4619 208.627C-22.6709 208.178 -22.0898 207.567 -21.7188 206.796C-21.4355 206.2 -21.2939 205.321 -21.2939 204.159V203.192ZM-15.5811 206.356L-12.9736 205.946C-12.8271 206.991 -12.4219 207.792 -11.7578 208.349C-11.084 208.905 -10.1465 209.184 -8.94531 209.184C-7.73438 209.184 -6.83594 208.939 -6.25 208.451C-5.66406 207.953 -5.37109 207.372 -5.37109 206.708C-5.37109 206.112 -5.62988 205.644 -6.14746 205.302C-6.50879 205.067 -7.40723 204.77 -8.84277 204.408C-10.7764 203.92 -12.1191 203.5 -12.8711 203.148C-13.6133 202.787 -14.1797 202.294 -14.5703 201.669C-14.9512 201.034 -15.1416 200.336 -15.1416 199.574C-15.1416 198.881 -14.9854 198.241 -14.6729 197.655C-14.3506 197.06 -13.916 196.566 -13.3691 196.176C-12.959 195.873 -12.4023 195.619 -11.6992 195.414C-10.9863 195.199 -10.2246 195.092 -9.41406 195.092C-8.19336 195.092 -7.12402 195.268 -6.20605 195.619C-5.27832 195.971 -4.59473 196.449 -4.15527 197.055C-3.71582 197.65 -3.41309 198.451 -3.24707 199.457L-5.8252 199.809C-5.94238 199.008 -6.28418 198.383 -6.85059 197.934C-7.40723 197.484 -8.19824 197.26 -9.22363 197.26C-10.4346 197.26 -11.2988 197.46 -11.8164 197.86C-12.334 198.261 -12.5928 198.729 -12.5928 199.267C-12.5928 199.608 -12.4854 199.916 -12.2705 200.189C-12.0557 200.473 -11.7188 200.707 -11.2598 200.893C-10.9961 200.99 -10.2197 201.215 -8.93066 201.566C-7.06543 202.064 -5.7666 202.475 -5.03418 202.797C-4.29199 203.109 -3.71094 203.568 -3.29102 204.174C-2.87109 204.779 -2.66113 205.531 -2.66113 206.43C-2.66113 207.309 -2.91992 208.139 -3.4375 208.92C-3.94531 209.691 -4.68262 210.292 -5.64941 210.722C-6.61621 211.142 -7.70996 211.352 -8.93066 211.352C-10.9521 211.352 -12.4951 210.932 -13.5596 210.092C-14.6143 209.252 -15.2881 208.007 -15.5811 206.356ZM1.2207 211V207.997H4.22363V211H1.2207Z" fill="#1D1D1F"/>
</g>
<rect x="-302.5" y="-1030.5" width="1439" height="2129" stroke="black"/>
<defs>
<filter id="filter0_d_0_1" x="-220" y="-32" width="360" height="330" filterUnits="userSpaceOnUse" color-interpolation-filters="sRGB">
<feFlood flood-opacity="0" result="BackgroundImageFix"/>
<feColorMatrix in="SourceAlpha" type="matrix" values="0 0 0 0 0 0 0 0 0 0 0 0 0 0 0 0 0 0 127 0" result="hardAlpha"/>
<feOffset dx="20" dy="24"/>
<feGaussianBlur stdDeviation="20"/>
<feComposite in2="hardAlpha" operator="out"/>
<feColorMatrix type="matrix" values="0 0 0 0 0 0 0 0 0 0 0 0 0 0 0 0 0 0 0.1 0"/>
<feBlend mode="normal" in2="BackgroundImageFix" result="effect1_dropShadow_0_1"/>
<feBlend mode="normal" in="SourceGraphic" in2="effect1_dropShadow_0_1" result="shape"/>
</filter>
<clipPath id="clip0_0_1">
<rect x="-303" y="-1031" width="1440" height="2130" fill="white"/>
</clipPath>
</defs>
</svg>
