<svg width="347" height="33" viewBox="0 0 347 33" fill="none" xmlns="http://www.w3.org/2000/svg">
<path d="M0.457031 0.662109H9.43848C11.4639 0.662109 13.0078 0.817057 14.0703 1.12695C15.498 1.54753 16.721 2.2946 17.7393 3.36816C18.7575 4.44173 19.5322 5.75879 20.0635 7.31934C20.5947 8.86882 20.8604 10.7835 20.8604 13.0635C20.8604 15.0667 20.6113 16.7933 20.1133 18.2432C19.5046 20.014 18.6357 21.4473 17.5068 22.543C16.6546 23.373 15.5036 24.0205 14.0537 24.4854C12.9691 24.8285 11.5192 25 9.7041 25H0.457031V0.662109ZM5.37109 4.7793V20.8994H9.04004C10.4124 20.8994 11.403 20.8219 12.0117 20.667C12.8086 20.4678 13.4671 20.1302 13.9873 19.6543C14.5186 19.1784 14.9502 18.3981 15.2822 17.3135C15.6143 16.2178 15.7803 14.7292 15.7803 12.8477C15.7803 10.9661 15.6143 9.52181 15.2822 8.51465C14.9502 7.50749 14.4854 6.72168 13.8877 6.15723C13.29 5.59277 12.5319 5.21094 11.6133 5.01172C10.9271 4.85677 9.58236 4.7793 7.5791 4.7793H5.37109ZM35.2207 19.3887L39.8691 20.1689C39.2715 21.8734 38.3252 23.1738 37.0303 24.0703C35.7464 24.9557 34.1361 25.3984 32.1992 25.3984C29.1335 25.3984 26.8646 24.3968 25.3926 22.3936C24.2305 20.7887 23.6494 18.7633 23.6494 16.3174C23.6494 13.3955 24.4131 11.11 25.9404 9.46094C27.4678 7.80078 29.3991 6.9707 31.7344 6.9707C34.3574 6.9707 36.4271 7.83952 37.9434 9.57715C39.4596 11.3037 40.1846 13.9544 40.1182 17.5293H28.4307C28.4639 18.9128 28.8402 19.9919 29.5596 20.7666C30.279 21.5303 31.1755 21.9121 32.249 21.9121C32.9795 21.9121 33.5938 21.7129 34.0918 21.3145C34.5898 20.916 34.9661 20.2741 35.2207 19.3887ZM35.4863 14.6738C35.4531 13.3236 35.1045 12.2998 34.4404 11.6025C33.7764 10.8942 32.9684 10.54 32.0166 10.54C30.9984 10.54 30.1572 10.9108 29.4932 11.6523C28.8291 12.3939 28.5026 13.401 28.5137 14.6738H35.4863ZM43.9365 4.97852V0.662109H48.6016V4.97852H43.9365ZM43.9365 25V7.36914H48.6016V25H43.9365ZM53.0508 7.36914H57.3506V9.77637C58.889 7.90592 60.7207 6.9707 62.8457 6.9707C63.9746 6.9707 64.9541 7.20312 65.7842 7.66797C66.6143 8.13281 67.2949 8.83561 67.8262 9.77637C68.6009 8.83561 69.4365 8.13281 70.333 7.66797C71.2295 7.20312 72.1868 6.9707 73.2051 6.9707C74.5 6.9707 75.5957 7.23633 76.4922 7.76758C77.3887 8.28776 78.0583 9.05697 78.501 10.0752C78.8219 10.8278 78.9824 12.0452 78.9824 13.7275V25H74.3174V14.9229C74.3174 13.1742 74.1569 12.0452 73.8359 11.5361C73.4043 10.8721 72.7402 10.54 71.8438 10.54C71.1908 10.54 70.5765 10.7393 70.001 11.1377C69.4255 11.5361 69.0104 12.1227 68.7559 12.8975C68.5013 13.6611 68.374 14.873 68.374 16.5332V25H63.709V15.3379C63.709 13.6224 63.626 12.5156 63.46 12.0176C63.2939 11.5195 63.0339 11.1488 62.6797 10.9053C62.3366 10.6618 61.8662 10.54 61.2686 10.54C60.5492 10.54 59.9017 10.7337 59.3262 11.1211C58.7507 11.5085 58.3356 12.0674 58.0811 12.7979C57.8376 13.5283 57.7158 14.7402 57.7158 16.4336V25H53.0508V7.36914ZM87.1338 12.748L82.9004 11.9844C83.3763 10.2799 84.1953 9.01823 85.3574 8.19922C86.5195 7.38021 88.2461 6.9707 90.5371 6.9707C92.6178 6.9707 94.1673 7.21973 95.1855 7.71777C96.2038 8.20475 96.9176 8.83008 97.3271 9.59375C97.7477 10.3464 97.958 11.7354 97.958 13.7607L97.9082 19.2061C97.9082 20.7555 97.9801 21.901 98.124 22.6426C98.279 23.373 98.5612 24.1589 98.9707 25H94.3555C94.2337 24.6901 94.0843 24.2308 93.9072 23.6221C93.8298 23.3454 93.7744 23.1628 93.7412 23.0742C92.9443 23.849 92.0921 24.43 91.1846 24.8174C90.277 25.2048 89.3086 25.3984 88.2793 25.3984C86.4642 25.3984 85.0309 24.9059 83.9795 23.9209C82.9391 22.9359 82.4189 21.6908 82.4189 20.1855C82.4189 19.1895 82.6569 18.304 83.1328 17.5293C83.6087 16.7435 84.2728 16.1458 85.125 15.7363C85.9883 15.3158 87.2279 14.9505 88.8438 14.6406C91.0241 14.2311 92.5348 13.8493 93.376 13.4951V13.0303C93.376 12.1338 93.1546 11.4974 92.7119 11.1211C92.2692 10.7337 91.4336 10.54 90.2051 10.54C89.375 10.54 88.7275 10.7061 88.2627 11.0381C87.7979 11.359 87.4215 11.929 87.1338 12.748ZM93.376 16.5332C92.7783 16.7324 91.832 16.9704 90.5371 17.2471C89.2422 17.5238 88.3955 17.7949 87.9971 18.0605C87.3883 18.4922 87.084 19.04 87.084 19.7041C87.084 20.3571 87.3275 20.9215 87.8145 21.3975C88.3014 21.8734 88.9212 22.1113 89.6738 22.1113C90.515 22.1113 91.3174 21.8346 92.0811 21.2812C92.6455 20.8607 93.0163 20.346 93.1934 19.7373C93.3151 19.3389 93.376 18.5807 93.376 17.4629V16.5332ZM118.61 25H113.945V16.002C113.945 14.0983 113.846 12.8698 113.646 12.3164C113.447 11.752 113.121 11.3148 112.667 11.0049C112.224 10.695 111.688 10.54 111.057 10.54C110.249 10.54 109.524 10.7614 108.882 11.2041C108.24 11.6468 107.797 12.2334 107.554 12.9639C107.321 13.6943 107.205 15.0446 107.205 17.0146V25H102.54V7.36914H106.873V9.95898C108.411 7.9668 110.348 6.9707 112.684 6.9707C113.713 6.9707 114.654 7.15885 115.506 7.53516C116.358 7.90039 117 8.37077 117.432 8.94629C117.874 9.52181 118.179 10.1748 118.345 10.9053C118.522 11.6357 118.61 12.6816 118.61 14.043V25ZM131.443 7.36914V11.0879H128.256V18.1934C128.256 19.6322 128.284 20.4733 128.339 20.7168C128.405 20.9492 128.544 21.1429 128.754 21.2979C128.975 21.4528 129.241 21.5303 129.551 21.5303C129.982 21.5303 130.608 21.3809 131.427 21.082L131.825 24.7012C130.741 25.166 129.512 25.3984 128.14 25.3984C127.299 25.3984 126.54 25.2601 125.865 24.9834C125.19 24.6956 124.692 24.3304 124.371 23.8877C124.061 23.4339 123.845 22.8252 123.724 22.0615C123.624 21.5192 123.574 20.4235 123.574 18.7744V11.0879H121.433V7.36914H123.574V3.86621L128.256 1.14355V7.36914H131.443ZM134.681 4.97852V0.662109H139.346V4.97852H134.681ZM134.681 25V7.36914H139.346V25H134.681ZM160.181 25H155.516V16.002C155.516 14.0983 155.416 12.8698 155.217 12.3164C155.018 11.752 154.691 11.3148 154.237 11.0049C153.795 10.695 153.258 10.54 152.627 10.54C151.819 10.54 151.094 10.7614 150.452 11.2041C149.81 11.6468 149.368 12.2334 149.124 12.9639C148.892 13.6943 148.775 15.0446 148.775 17.0146V25H144.11V7.36914H148.443V9.95898C149.982 7.9668 151.919 6.9707 154.254 6.9707C155.283 6.9707 156.224 7.15885 157.076 7.53516C157.928 7.90039 158.57 8.37077 159.002 8.94629C159.445 9.52181 159.749 10.1748 159.915 10.9053C160.092 11.6357 160.181 12.6816 160.181 14.043V25ZM164.929 4.97852V0.662109H169.594V4.97852H164.929ZM164.929 25V7.36914H169.594V25H164.929ZM172.748 19.9697L177.43 19.2559C177.629 20.1634 178.033 20.8551 178.642 21.3311C179.25 21.7959 180.103 22.0283 181.198 22.0283C182.405 22.0283 183.312 21.807 183.921 21.3643C184.33 21.0544 184.535 20.6393 184.535 20.1191C184.535 19.765 184.424 19.4717 184.203 19.2393C183.971 19.0179 183.451 18.8132 182.643 18.625C178.88 17.7949 176.494 17.0368 175.487 16.3506C174.093 15.3988 173.396 14.0762 173.396 12.3828C173.396 10.8555 173.999 9.57161 175.205 8.53125C176.411 7.49089 178.282 6.9707 180.816 6.9707C183.229 6.9707 185.022 7.36361 186.195 8.14941C187.368 8.93522 188.176 10.0973 188.619 11.6357L184.22 12.4492C184.032 11.763 183.672 11.2373 183.141 10.8721C182.62 10.5068 181.873 10.3242 180.899 10.3242C179.671 10.3242 178.791 10.4958 178.26 10.8389C177.906 11.0824 177.729 11.3978 177.729 11.7852C177.729 12.1172 177.883 12.3994 178.193 12.6318C178.614 12.9417 180.064 13.3789 182.543 13.9434C185.033 14.5078 186.771 15.1995 187.756 16.0186C188.73 16.8486 189.217 18.0052 189.217 19.4883C189.217 21.1042 188.542 22.4932 187.191 23.6553C185.841 24.8174 183.843 25.3984 181.198 25.3984C178.797 25.3984 176.893 24.9115 175.487 23.9375C174.093 22.9635 173.18 21.641 172.748 19.9697ZM202.349 26.1621L207.678 26.8096C207.766 27.4294 207.971 27.8555 208.292 28.0879C208.735 28.4199 209.432 28.5859 210.384 28.5859C211.601 28.5859 212.514 28.4033 213.123 28.0381C213.533 27.7946 213.842 27.4017 214.053 26.8594C214.197 26.472 214.269 25.7581 214.269 24.7178V22.1445C212.874 24.0482 211.114 25 208.989 25C206.621 25 204.745 23.9984 203.361 21.9951C202.277 20.4124 201.734 18.4424 201.734 16.085C201.734 13.1299 202.443 10.8721 203.859 9.31152C205.287 7.75098 207.058 6.9707 209.172 6.9707C211.352 6.9707 213.151 7.92806 214.567 9.84277V7.36914H218.934V23.1904C218.934 25.2712 218.762 26.8262 218.419 27.8555C218.076 28.8848 217.594 29.6927 216.975 30.2793C216.355 30.8659 215.525 31.3252 214.484 31.6572C213.455 31.9893 212.149 32.1553 210.566 32.1553C207.578 32.1553 205.459 31.6406 204.208 30.6113C202.957 29.5931 202.332 28.2982 202.332 26.7266C202.332 26.5716 202.338 26.3835 202.349 26.1621ZM206.516 15.8193C206.516 17.6898 206.875 19.0622 207.595 19.9365C208.325 20.7998 209.222 21.2314 210.284 21.2314C211.424 21.2314 212.387 20.7887 213.173 19.9033C213.959 19.0068 214.352 17.6842 214.352 15.9355C214.352 14.1094 213.975 12.7536 213.223 11.8682C212.47 10.9827 211.518 10.54 210.367 10.54C209.249 10.54 208.325 10.9772 207.595 11.8516C206.875 12.7148 206.516 14.0374 206.516 15.8193ZM228.031 25H223.366V7.36914H227.699V9.87598C228.441 8.69173 229.105 7.91146 229.691 7.53516C230.289 7.15885 230.964 6.9707 231.717 6.9707C232.779 6.9707 233.803 7.264 234.788 7.85059L233.344 11.918C232.558 11.4089 231.827 11.1543 231.152 11.1543C230.499 11.1543 229.946 11.3369 229.492 11.7021C229.038 12.0563 228.679 12.7038 228.413 13.6445C228.159 14.5853 228.031 16.5553 228.031 19.5547V25ZM247.023 19.3887L251.672 20.1689C251.074 21.8734 250.128 23.1738 248.833 24.0703C247.549 24.9557 245.939 25.3984 244.002 25.3984C240.936 25.3984 238.667 24.3968 237.195 22.3936C236.033 20.7887 235.452 18.7633 235.452 16.3174C235.452 13.3955 236.216 11.11 237.743 9.46094C239.271 7.80078 241.202 6.9707 243.537 6.9707C246.16 6.9707 248.23 7.83952 249.746 9.57715C251.262 11.3037 251.987 13.9544 251.921 17.5293H240.233C240.267 18.9128 240.643 19.9919 241.362 20.7666C242.082 21.5303 242.978 21.9121 244.052 21.9121C244.782 21.9121 245.396 21.7129 245.895 21.3145C246.393 20.916 246.769 20.2741 247.023 19.3887ZM247.289 14.6738C247.256 13.3236 246.907 12.2998 246.243 11.6025C245.579 10.8942 244.771 10.54 243.819 10.54C242.801 10.54 241.96 10.9108 241.296 11.6523C240.632 12.3939 240.305 13.401 240.316 14.6738H247.289ZM246.874 25C246.664 25.1549 246.47 25.332 246.293 25.5312C246.127 25.7415 245.983 25.9629 245.861 26.1953C245.74 26.4277 245.646 26.6602 245.579 26.8926C245.513 27.1361 245.479 27.3685 245.479 27.5898C245.479 27.9551 245.574 28.2594 245.762 28.5029C245.961 28.7575 246.287 28.8848 246.741 28.8848C246.94 28.8848 247.162 28.846 247.405 28.7686C247.66 28.7021 247.898 28.6357 248.119 28.5693V31.3418C247.189 31.7845 246.354 32.0059 245.612 32.0059C244.993 32.0059 244.456 31.9229 244.002 31.7568C243.548 31.5908 243.166 31.3639 242.856 31.0762C242.558 30.7884 242.331 30.4508 242.176 30.0635C242.032 29.6872 241.96 29.2832 241.96 28.8516C241.96 28.2096 242.154 27.54 242.541 26.8428C242.928 26.1455 243.449 25.5312 244.102 25H246.874ZM253.863 25V21.3643L260.471 13.7773C261.555 12.5378 262.358 11.6579 262.878 11.1377C262.336 11.1709 261.622 11.193 260.736 11.2041L254.511 11.2373V7.36914H269.087V10.6729L262.347 18.4424L259.973 21.0156C261.268 20.9382 262.07 20.8994 262.38 20.8994H269.602V25H253.863ZM256.121 0.24707H259.89L261.683 2.7207L263.608 0.24707H267.36L263.924 5.14453H259.607L256.121 0.24707ZM272.739 4.97852V0.662109H277.404V4.97852H272.739ZM272.739 25V7.36914H277.404V25H272.739ZM281.854 7.36914H286.153V9.77637C287.692 7.90592 289.523 6.9707 291.648 6.9707C292.777 6.9707 293.757 7.20312 294.587 7.66797C295.417 8.13281 296.098 8.83561 296.629 9.77637C297.404 8.83561 298.239 8.13281 299.136 7.66797C300.032 7.20312 300.99 6.9707 302.008 6.9707C303.303 6.9707 304.398 7.23633 305.295 7.76758C306.191 8.28776 306.861 9.05697 307.304 10.0752C307.625 10.8278 307.785 12.0452 307.785 13.7275V25H303.12V14.9229C303.12 13.1742 302.96 12.0452 302.639 11.5361C302.207 10.8721 301.543 10.54 300.646 10.54C299.993 10.54 299.379 10.7393 298.804 11.1377C298.228 11.5361 297.813 12.1227 297.559 12.8975C297.304 13.6611 297.177 14.873 297.177 16.5332V25H292.512V15.3379C292.512 13.6224 292.429 12.5156 292.263 12.0176C292.097 11.5195 291.837 11.1488 291.482 10.9053C291.139 10.6618 290.669 10.54 290.071 10.54C289.352 10.54 288.704 10.7337 288.129 11.1211C287.553 11.5085 287.138 12.0674 286.884 12.7979C286.64 13.5283 286.519 14.7402 286.519 16.4336V25H281.854V7.36914ZM315.937 12.748L311.703 11.9844C312.179 10.2799 312.998 9.01823 314.16 8.19922C315.322 7.38021 317.049 6.9707 319.34 6.9707C321.421 6.9707 322.97 7.21973 323.988 7.71777C325.007 8.20475 325.72 8.83008 326.13 9.59375C326.55 10.3464 326.761 11.7354 326.761 13.7607L326.711 19.2061C326.711 20.7555 326.783 21.901 326.927 22.6426C327.082 23.373 327.364 24.1589 327.773 25H323.158C323.036 24.6901 322.887 24.2308 322.71 23.6221C322.632 23.3454 322.577 23.1628 322.544 23.0742C321.747 23.849 320.895 24.43 319.987 24.8174C319.08 25.2048 318.111 25.3984 317.082 25.3984C315.267 25.3984 313.834 24.9059 312.782 23.9209C311.742 22.9359 311.222 21.6908 311.222 20.1855C311.222 19.1895 311.46 18.304 311.936 17.5293C312.411 16.7435 313.076 16.1458 313.928 15.7363C314.791 15.3158 316.031 14.9505 317.646 14.6406C319.827 14.2311 321.338 13.8493 322.179 13.4951V13.0303C322.179 12.1338 321.957 11.4974 321.515 11.1211C321.072 10.7337 320.236 10.54 319.008 10.54C318.178 10.54 317.53 10.7061 317.065 11.0381C316.601 11.359 316.224 11.929 315.937 12.748ZM322.179 16.5332C321.581 16.7324 320.635 16.9704 319.34 17.2471C318.045 17.5238 317.198 17.7949 316.8 18.0605C316.191 18.4922 315.887 19.04 315.887 19.7041C315.887 20.3571 316.13 20.9215 316.617 21.3975C317.104 21.8734 317.724 22.1113 318.477 22.1113C319.318 22.1113 320.12 21.8346 320.884 21.2812C321.448 20.8607 321.819 20.346 321.996 19.7373C322.118 19.3389 322.179 18.5807 322.179 17.4629V16.5332ZM329.732 19.9697L334.414 19.2559C334.613 20.1634 335.017 20.8551 335.626 21.3311C336.235 21.7959 337.087 22.0283 338.183 22.0283C339.389 22.0283 340.297 21.807 340.905 21.3643C341.315 21.0544 341.52 20.6393 341.52 20.1191C341.52 19.765 341.409 19.4717 341.188 19.2393C340.955 19.0179 340.435 18.8132 339.627 18.625C335.864 17.7949 333.479 17.0368 332.472 16.3506C331.077 15.3988 330.38 14.0762 330.38 12.3828C330.38 10.8555 330.983 9.57161 332.189 8.53125C333.396 7.49089 335.266 6.9707 337.801 6.9707C340.214 6.9707 342.007 7.36361 343.18 8.14941C344.353 8.93522 345.161 10.0973 345.604 11.6357L341.204 12.4492C341.016 11.763 340.656 11.2373 340.125 10.8721C339.605 10.5068 338.858 10.3242 337.884 10.3242C336.655 10.3242 335.775 10.4958 335.244 10.8389C334.89 11.0824 334.713 11.3978 334.713 11.7852C334.713 12.1172 334.868 12.3994 335.178 12.6318C335.598 12.9417 337.048 13.3789 339.527 13.9434C342.018 14.5078 343.755 15.1995 344.74 16.0186C345.714 16.8486 346.201 18.0052 346.201 19.4883C346.201 21.1042 345.526 22.4932 344.176 23.6553C342.826 24.8174 340.828 25.3984 338.183 25.3984C335.781 25.3984 333.877 24.9115 332.472 23.9375C331.077 22.9635 330.164 21.641 329.732 19.9697Z" fill="#1D1D1F"/>
</svg>
