<svg width="24" height="24" viewBox="0 0 24 24" fill="none" xmlns="http://www.w3.org/2000/svg">
<g clip-path="url(#clip0_112_72)">
<path fill-rule="evenodd" clip-rule="evenodd" d="M12 -0.000976562C5.241 -0.000976562 0 4.95202 0 11.639C0 15.137 1.434 18.161 3.768 20.249C3.963 20.423 4.083 20.669 4.089 20.933L4.155 23.069C4.176 23.75 4.878 24.194 5.502 23.918L7.884 22.868C8.085 22.778 8.313 22.763 8.526 22.82C9.621 23.12 10.785 23.282 12 23.282C18.759 23.282 24 18.329 24 11.642C24 4.95502 18.759 -0.000976562 12 -0.000976562Z" fill="#C7C7C7"/>
<path fill-rule="evenodd" clip-rule="evenodd" d="M4.79401 15.0441L8.319 9.45212C8.88 8.56112 10.08 8.34212 10.923 8.97212L13.728 11.0751C13.986 11.2671 14.34 11.2671 14.595 11.0721L18.381 8.19812C18.885 7.81412 19.545 8.42012 19.209 8.95712L15.681 14.5461C15.12 15.4371 13.92 15.6561 13.077 15.0261L10.272 12.9231C10.014 12.7311 9.66 12.7311 9.405 12.9261L5.61901 15.8001C5.11501 16.1841 4.45501 15.5811 4.79401 15.0441Z" fill="#1D1D1F"/>
</g>
<defs>
<clipPath id="clip0_112_72">
<rect width="24" height="24" rx="6" fill="white"/>
</clipPath>
</defs>
</svg>
