<svg width="55" height="55" viewBox="0 0 55 55" fill="none" xmlns="http://www.w3.org/2000/svg">
<rect width="55" height="55" fill="#F5F5F5"/>
<g clip-path="url(#clip0_0_1)">
<rect x="-1257" y="-1031" width="1440" height="2130" fill="#F5F8F3"/>
<g filter="url(#filter0_d_0_1)">
<rect x="-200" y="-16" width="280" height="250" rx="12" fill="#F5F5F7"/>
</g>
<circle cx="27.5" cy="27.5" r="27.5" fill="#0E902E"/>
<path d="M-172.627 75V53.5254H-157.1V56.0596H-169.785V62.6367H-157.905V65.1562H-169.785V72.4658H-156.602V75H-172.627ZM-152.383 75V61.4941H-154.712V59.4434H-152.383V57.7881C-152.383 56.7432 -152.29 55.9668 -152.104 55.459C-151.851 54.7754 -151.406 54.2236 -150.771 53.8037C-150.127 53.374 -149.229 53.1592 -148.076 53.1592C-147.334 53.1592 -146.514 53.2471 -145.615 53.4229L-146.011 55.7227C-146.558 55.625 -147.075 55.5762 -147.563 55.5762C-148.364 55.5762 -148.931 55.7471 -149.263 56.0889C-149.595 56.4307 -149.761 57.0703 -149.761 58.0078V59.4434H-146.729V61.4941H-149.761V75H-152.383ZM-134.014 69.9902L-131.289 70.3271C-131.719 71.9189 -132.515 73.1543 -133.677 74.0332C-134.839 74.9121 -136.323 75.3516 -138.13 75.3516C-140.405 75.3516 -142.212 74.6533 -143.55 73.2568C-144.878 71.8506 -145.542 69.8828 -145.542 67.3535C-145.542 64.7363 -144.868 62.7051 -143.521 61.2598C-142.173 59.8145 -140.425 59.0918 -138.276 59.0918C-136.196 59.0918 -134.497 59.7998 -133.179 61.2158C-131.86 62.6318 -131.201 64.624 -131.201 67.1924C-131.201 67.3486 -131.206 67.583 -131.216 67.8955H-142.817C-142.72 69.6045 -142.236 70.9131 -141.367 71.8213C-140.498 72.7295 -139.414 73.1836 -138.115 73.1836C-137.148 73.1836 -136.323 72.9297 -135.64 72.4219C-134.956 71.9141 -134.414 71.1035 -134.014 69.9902ZM-142.671 65.7275H-133.984C-134.102 64.4189 -134.434 63.4375 -134.98 62.7832C-135.82 61.7676 -136.909 61.2598 -138.247 61.2598C-139.458 61.2598 -140.479 61.665 -141.309 62.4756C-142.129 63.2861 -142.583 64.3701 -142.671 65.7275ZM-127.949 75V53.5254H-125.312V65.7715L-119.072 59.4434H-115.659L-121.606 65.2148L-115.059 75H-118.311L-123.452 67.0459L-125.312 68.833V75H-127.949ZM-107.207 72.6416L-106.826 74.9707C-107.568 75.127 -108.232 75.2051 -108.818 75.2051C-109.775 75.2051 -110.518 75.0537 -111.045 74.751C-111.572 74.4482 -111.943 74.0527 -112.158 73.5645C-112.373 73.0664 -112.48 72.0264 -112.48 70.4443V61.4941H-114.414V59.4434H-112.48V55.5908L-109.858 54.0088V59.4434H-107.207V61.4941H-109.858V70.5908C-109.858 71.3428 -109.814 71.8262 -109.727 72.041C-109.629 72.2559 -109.478 72.4268 -109.272 72.5537C-109.058 72.6807 -108.755 72.7441 -108.364 72.7441C-108.071 72.7441 -107.686 72.71 -107.207 72.6416ZM-104.731 80.9912L-105.024 78.5156C-104.448 78.6719 -103.945 78.75 -103.516 78.75C-102.93 78.75 -102.461 78.6523 -102.109 78.457C-101.758 78.2617 -101.47 77.9883 -101.245 77.6367C-101.079 77.373 -100.811 76.7188 -100.439 75.6738C-100.391 75.5273 -100.312 75.3125 -100.205 75.0293L-106.108 59.4434H-103.267L-100.029 68.4521C-99.6094 69.5947 -99.2334 70.7959 -98.9014 72.0557C-98.5986 70.8447 -98.2373 69.6631 -97.8174 68.5107L-94.4922 59.4434H-91.8555L-97.7734 75.2637C-98.4082 76.9727 -98.9014 78.1494 -99.2529 78.7939C-99.7217 79.6631 -100.259 80.2979 -100.864 80.6982C-101.47 81.1084 -102.192 81.3135 -103.032 81.3135C-103.54 81.3135 -104.106 81.2061 -104.731 80.9912ZM-85.293 75L-91.2109 59.4434H-88.4277L-85.0879 68.7598C-84.7266 69.7656 -84.3945 70.8105 -84.0918 71.8945C-83.8574 71.0742 -83.5303 70.0879 -83.1104 68.9355L-79.6533 59.4434H-76.9434L-82.832 75H-85.293ZM-74.5996 56.5576V53.5254H-71.9629V56.5576H-74.5996ZM-74.5996 75V59.4434H-71.9629V75H-74.5996ZM-57.7832 73.0811C-58.7598 73.9111 -59.7021 74.4971 -60.6104 74.8389C-61.5088 75.1807 -62.4756 75.3516 -63.5107 75.3516C-65.2197 75.3516 -66.5332 74.9365 -67.4512 74.1064C-68.3691 73.2666 -68.8281 72.1973 -68.8281 70.8984C-68.8281 70.1367 -68.6572 69.4434 -68.3154 68.8184C-67.9639 68.1836 -67.5098 67.6758 -66.9531 67.2949C-66.3867 66.9141 -65.752 66.626 -65.0488 66.4307C-64.5312 66.2939 -63.75 66.1621 -62.7051 66.0352C-60.5762 65.7812 -59.0088 65.4785 -58.0029 65.127C-57.9932 64.7656 -57.9883 64.5361 -57.9883 64.4385C-57.9883 63.3643 -58.2373 62.6074 -58.7354 62.168C-59.4092 61.5723 -60.4102 61.2744 -61.7383 61.2744C-62.9785 61.2744 -63.8965 61.4941 -64.4922 61.9336C-65.0781 62.3633 -65.5127 63.1299 -65.7959 64.2334L-68.374 63.8818C-68.1396 62.7783 -67.7539 61.8896 -67.2168 61.2158C-66.6797 60.5322 -65.9033 60.0098 -64.8877 59.6484C-63.8721 59.2773 -62.6953 59.0918 -61.3574 59.0918C-60.0293 59.0918 -58.9502 59.248 -58.1201 59.5605C-57.29 59.873 -56.6797 60.2686 -56.2891 60.7471C-55.8984 61.2158 -55.625 61.8115 -55.4688 62.5342C-55.3809 62.9834 -55.3369 63.7939 -55.3369 64.9658V68.4814C-55.3369 70.9326 -55.2832 72.4854 -55.1758 73.1396C-55.0586 73.7842 -54.834 74.4043 -54.502 75H-57.2559C-57.5293 74.4531 -57.7051 73.8135 -57.7832 73.0811ZM-58.0029 67.1924C-58.96 67.583 -60.3955 67.915 -62.3096 68.1885C-63.3936 68.3447 -64.1602 68.5205 -64.6094 68.7158C-65.0586 68.9111 -65.4053 69.1992 -65.6494 69.5801C-65.8936 69.9512 -66.0156 70.3662 -66.0156 70.8252C-66.0156 71.5283 -65.752 72.1143 -65.2246 72.583C-64.6875 73.0518 -63.9062 73.2861 -62.8809 73.2861C-61.8652 73.2861 -60.9619 73.0664 -60.1709 72.627C-59.3799 72.1777 -58.7988 71.5674 -58.4277 70.7959C-58.1445 70.2002 -58.0029 69.3213 -58.0029 68.1592V67.1924ZM-41.04 75V72.7148C-42.251 74.4727 -43.8965 75.3516 -45.9766 75.3516C-46.8945 75.3516 -47.7539 75.1758 -48.5547 74.8242C-49.3457 74.4727 -49.9365 74.0332 -50.3271 73.5059C-50.708 72.9688 -50.9766 72.3145 -51.1328 71.543C-51.2402 71.0254 -51.2939 70.2051 -51.2939 69.082V59.4434H-48.6572V68.0713C-48.6572 69.4482 -48.6035 70.376 -48.4961 70.8545C-48.3301 71.5479 -47.9785 72.0947 -47.4414 72.4951C-46.9043 72.8857 -46.2402 73.0811 -45.4492 73.0811C-44.6582 73.0811 -43.916 72.8809 -43.2227 72.4805C-42.5293 72.0703 -42.041 71.5186 -41.7578 70.8252C-41.4648 70.1221 -41.3184 69.1064 -41.3184 67.7783V59.4434H-38.6816V75H-41.04ZM-35.5908 70.3564L-32.9834 69.9463C-32.8369 70.9912 -32.4316 71.792 -31.7676 72.3486C-31.0938 72.9053 -30.1562 73.1836 -28.9551 73.1836C-27.7441 73.1836 -26.8457 72.9395 -26.2598 72.4512C-25.6738 71.9531 -25.3809 71.3721 -25.3809 70.708C-25.3809 70.1123 -25.6396 69.6436 -26.1572 69.3018C-26.5186 69.0674 -27.417 68.7695 -28.8525 68.4082C-30.7861 67.9199 -32.1289 67.5 -32.8809 67.1484C-33.623 66.7871 -34.1895 66.2939 -34.5801 65.6689C-34.9609 65.0342 -35.1514 64.3359 -35.1514 63.5742C-35.1514 62.8809 -34.9951 62.2412 -34.6826 61.6553C-34.3604 61.0596 -33.9258 60.5664 -33.3789 60.1758C-32.9688 59.873 -32.4121 59.6191 -31.709 59.4141C-30.9961 59.1992 -30.2344 59.0918 -29.4238 59.0918C-28.2031 59.0918 -27.1338 59.2676 -26.2158 59.6191C-25.2881 59.9707 -24.6045 60.4492 -24.165 61.0547C-23.7256 61.6504 -23.4229 62.4512 -23.2568 63.457L-25.835 63.8086C-25.9521 63.0078 -26.2939 62.3828 -26.8604 61.9336C-27.417 61.4844 -28.208 61.2598 -29.2334 61.2598C-30.4443 61.2598 -31.3086 61.46 -31.8262 61.8604C-32.3438 62.2607 -32.6025 62.7295 -32.6025 63.2666C-32.6025 63.6084 -32.4951 63.916 -32.2803 64.1895C-32.0654 64.4727 -31.7285 64.707 -31.2695 64.8926C-31.0059 64.9902 -30.2295 65.2148 -28.9404 65.5664C-27.0752 66.0645 -25.7764 66.4746 -25.0439 66.7969C-24.3018 67.1094 -23.7207 67.5684 -23.3008 68.1738C-22.8809 68.7793 -22.6709 69.5312 -22.6709 70.4297C-22.6709 71.3086 -22.9297 72.1387 -23.4473 72.9199C-23.9551 73.6914 -24.6924 74.292 -25.6592 74.7217C-26.626 75.1416 -27.7197 75.3516 -28.9404 75.3516C-30.9619 75.3516 -32.5049 74.9316 -33.5693 74.0918C-34.624 73.252 -35.2979 72.0068 -35.5908 70.3564ZM-19.5215 56.5576V53.5254H-16.8848V56.5576H-19.5215ZM-19.5215 75V59.4434H-16.8848V75H-19.5215ZM-2.70508 73.0811C-3.68164 73.9111 -4.62402 74.4971 -5.53223 74.8389C-6.43066 75.1807 -7.39746 75.3516 -8.43262 75.3516C-10.1416 75.3516 -11.4551 74.9365 -12.373 74.1064C-13.291 73.2666 -13.75 72.1973 -13.75 70.8984C-13.75 70.1367 -13.5791 69.4434 -13.2373 68.8184C-12.8857 68.1836 -12.4316 67.6758 -11.875 67.2949C-11.3086 66.9141 -10.6738 66.626 -9.9707 66.4307C-9.45312 66.2939 -8.67188 66.1621 -7.62695 66.0352C-5.49805 65.7812 -3.93066 65.4785 -2.9248 65.127C-2.91504 64.7656 -2.91016 64.5361 -2.91016 64.4385C-2.91016 63.3643 -3.15918 62.6074 -3.65723 62.168C-4.33105 61.5723 -5.33203 61.2744 -6.66016 61.2744C-7.90039 61.2744 -8.81836 61.4941 -9.41406 61.9336C-10 62.3633 -10.4346 63.1299 -10.7178 64.2334L-13.2959 63.8818C-13.0615 62.7783 -12.6758 61.8896 -12.1387 61.2158C-11.6016 60.5322 -10.8252 60.0098 -9.80957 59.6484C-8.79395 59.2773 -7.61719 59.0918 -6.2793 59.0918C-4.95117 59.0918 -3.87207 59.248 -3.04199 59.5605C-2.21191 59.873 -1.60156 60.2686 -1.21094 60.7471C-0.820312 61.2158 -0.546875 61.8115 -0.390625 62.5342C-0.302734 62.9834 -0.258789 63.7939 -0.258789 64.9658V68.4814C-0.258789 70.9326 -0.205078 72.4854 -0.0976562 73.1396C0.0195312 73.7842 0.244141 74.4043 0.576172 75H-2.17773C-2.45117 74.4531 -2.62695 73.8135 -2.70508 73.0811ZM-2.9248 67.1924C-3.88184 67.583 -5.31738 67.915 -7.23145 68.1885C-8.31543 68.3447 -9.08203 68.5205 -9.53125 68.7158C-9.98047 68.9111 -10.3271 69.1992 -10.5713 69.5801C-10.8154 69.9512 -10.9375 70.3662 -10.9375 70.8252C-10.9375 71.5283 -10.6738 72.1143 -10.1465 72.583C-9.60938 73.0518 -8.82812 73.2861 -7.80273 73.2861C-6.78711 73.2861 -5.88379 73.0664 -5.09277 72.627C-4.30176 72.1777 -3.7207 71.5674 -3.34961 70.7959C-3.06641 70.2002 -2.9248 69.3213 -2.9248 68.1592V67.1924ZM-174.077 104.356L-171.47 103.946C-171.323 104.991 -170.918 105.792 -170.254 106.349C-169.58 106.905 -168.643 107.184 -167.441 107.184C-166.23 107.184 -165.332 106.939 -164.746 106.451C-164.16 105.953 -163.867 105.372 -163.867 104.708C-163.867 104.112 -164.126 103.644 -164.644 103.302C-165.005 103.067 -165.903 102.77 -167.339 102.408C-169.272 101.92 -170.615 101.5 -171.367 101.148C-172.109 100.787 -172.676 100.294 -173.066 99.6689C-173.447 99.0342 -173.638 98.3359 -173.638 97.5742C-173.638 96.8809 -173.481 96.2412 -173.169 95.6553C-172.847 95.0596 -172.412 94.5664 -171.865 94.1758C-171.455 93.873 -170.898 93.6191 -170.195 93.4141C-169.482 93.1992 -168.721 93.0918 -167.91 93.0918C-166.689 93.0918 -165.62 93.2676 -164.702 93.6191C-163.774 93.9707 -163.091 94.4492 -162.651 95.0547C-162.212 95.6504 -161.909 96.4512 -161.743 97.457L-164.321 97.8086C-164.438 97.0078 -164.78 96.3828 -165.347 95.9336C-165.903 95.4844 -166.694 95.2598 -167.72 95.2598C-168.931 95.2598 -169.795 95.46 -170.312 95.8604C-170.83 96.2607 -171.089 96.7295 -171.089 97.2666C-171.089 97.6084 -170.981 97.916 -170.767 98.1895C-170.552 98.4727 -170.215 98.707 -169.756 98.8926C-169.492 98.9902 -168.716 99.2148 -167.427 99.5664C-165.562 100.064 -164.263 100.475 -163.53 100.797C-162.788 101.109 -162.207 101.568 -161.787 102.174C-161.367 102.779 -161.157 103.531 -161.157 104.43C-161.157 105.309 -161.416 106.139 -161.934 106.92C-162.441 107.691 -163.179 108.292 -164.146 108.722C-165.112 109.142 -166.206 109.352 -167.427 109.352C-169.448 109.352 -170.991 108.932 -172.056 108.092C-173.11 107.252 -173.784 106.007 -174.077 104.356ZM-152.266 106.642L-151.885 108.971C-152.627 109.127 -153.291 109.205 -153.877 109.205C-154.834 109.205 -155.576 109.054 -156.104 108.751C-156.631 108.448 -157.002 108.053 -157.217 107.564C-157.432 107.066 -157.539 106.026 -157.539 104.444V95.4941H-159.473V93.4434H-157.539V89.5908L-154.917 88.0088V93.4434H-152.266V95.4941H-154.917V104.591C-154.917 105.343 -154.873 105.826 -154.785 106.041C-154.688 106.256 -154.536 106.427 -154.331 106.554C-154.116 106.681 -153.813 106.744 -153.423 106.744C-153.13 106.744 -152.744 106.71 -152.266 106.642ZM-139.521 107.081C-140.498 107.911 -141.44 108.497 -142.349 108.839C-143.247 109.181 -144.214 109.352 -145.249 109.352C-146.958 109.352 -148.271 108.937 -149.189 108.106C-150.107 107.267 -150.566 106.197 -150.566 104.898C-150.566 104.137 -150.396 103.443 -150.054 102.818C-149.702 102.184 -149.248 101.676 -148.691 101.295C-148.125 100.914 -147.49 100.626 -146.787 100.431C-146.27 100.294 -145.488 100.162 -144.443 100.035C-142.314 99.7812 -140.747 99.4785 -139.741 99.127C-139.731 98.7656 -139.727 98.5361 -139.727 98.4385C-139.727 97.3643 -139.976 96.6074 -140.474 96.168C-141.147 95.5723 -142.148 95.2744 -143.477 95.2744C-144.717 95.2744 -145.635 95.4941 -146.23 95.9336C-146.816 96.3633 -147.251 97.1299 -147.534 98.2334L-150.112 97.8818C-149.878 96.7783 -149.492 95.8896 -148.955 95.2158C-148.418 94.5322 -147.642 94.0098 -146.626 93.6484C-145.61 93.2773 -144.434 93.0918 -143.096 93.0918C-141.768 93.0918 -140.688 93.248 -139.858 93.5605C-139.028 93.873 -138.418 94.2686 -138.027 94.7471C-137.637 95.2158 -137.363 95.8115 -137.207 96.5342C-137.119 96.9834 -137.075 97.7939 -137.075 98.9658V102.481C-137.075 104.933 -137.021 106.485 -136.914 107.14C-136.797 107.784 -136.572 108.404 -136.24 109H-138.994C-139.268 108.453 -139.443 107.813 -139.521 107.081ZM-139.741 101.192C-140.698 101.583 -142.134 101.915 -144.048 102.188C-145.132 102.345 -145.898 102.521 -146.348 102.716C-146.797 102.911 -147.144 103.199 -147.388 103.58C-147.632 103.951 -147.754 104.366 -147.754 104.825C-147.754 105.528 -147.49 106.114 -146.963 106.583C-146.426 107.052 -145.645 107.286 -144.619 107.286C-143.604 107.286 -142.7 107.066 -141.909 106.627C-141.118 106.178 -140.537 105.567 -140.166 104.796C-139.883 104.2 -139.741 103.321 -139.741 102.159V101.192ZM-127.217 106.642L-126.836 108.971C-127.578 109.127 -128.242 109.205 -128.828 109.205C-129.785 109.205 -130.527 109.054 -131.055 108.751C-131.582 108.448 -131.953 108.053 -132.168 107.564C-132.383 107.066 -132.49 106.026 -132.49 104.444V95.4941H-134.424V93.4434H-132.49V89.5908L-129.868 88.0088V93.4434H-127.217V95.4941H-129.868V104.591C-129.868 105.343 -129.824 105.826 -129.736 106.041C-129.639 106.256 -129.487 106.427 -129.282 106.554C-129.067 106.681 -128.765 106.744 -128.374 106.744C-128.081 106.744 -127.695 106.71 -127.217 106.642ZM-124.741 114.991L-125.034 112.516C-124.458 112.672 -123.955 112.75 -123.525 112.75C-122.939 112.75 -122.471 112.652 -122.119 112.457C-121.768 112.262 -121.479 111.988 -121.255 111.637C-121.089 111.373 -120.82 110.719 -120.449 109.674C-120.4 109.527 -120.322 109.312 -120.215 109.029L-126.118 93.4434H-123.276L-120.039 102.452C-119.619 103.595 -119.243 104.796 -118.911 106.056C-118.608 104.845 -118.247 103.663 -117.827 102.511L-114.502 93.4434H-111.865L-117.783 109.264C-118.418 110.973 -118.911 112.149 -119.263 112.794C-119.731 113.663 -120.269 114.298 -120.874 114.698C-121.479 115.108 -122.202 115.313 -123.042 115.313C-123.55 115.313 -124.116 115.206 -124.741 114.991ZM-107.192 109H-109.639V87.5254H-107.002V95.1865C-105.889 93.79 -104.468 93.0918 -102.739 93.0918C-101.782 93.0918 -100.879 93.2871 -100.029 93.6777C-99.1699 94.0586 -98.4668 94.6006 -97.9199 95.3037C-97.3633 95.9971 -96.9287 96.8369 -96.6162 97.8232C-96.3037 98.8096 -96.1475 99.8643 -96.1475 100.987C-96.1475 103.653 -96.8066 105.714 -98.125 107.169C-99.4434 108.624 -101.025 109.352 -102.871 109.352C-104.707 109.352 -106.147 108.585 -107.192 107.052V109ZM-107.222 101.104C-107.222 102.97 -106.968 104.317 -106.46 105.147C-105.63 106.505 -104.507 107.184 -103.091 107.184C-101.938 107.184 -100.942 106.686 -100.103 105.689C-99.2627 104.684 -98.8428 103.189 -98.8428 101.207C-98.8428 99.1758 -99.248 97.6768 -100.059 96.71C-100.859 95.7432 -101.831 95.2598 -102.974 95.2598C-104.126 95.2598 -105.122 95.7627 -105.962 96.7686C-106.802 97.7646 -107.222 99.21 -107.222 101.104ZM-93.9062 101.222C-93.9062 98.3408 -93.1055 96.207 -91.5039 94.8203C-90.166 93.668 -88.5352 93.0918 -86.6113 93.0918C-84.4727 93.0918 -82.7246 93.7949 -81.3672 95.2012C-80.0098 96.5977 -79.3311 98.5312 -79.3311 101.002C-79.3311 103.004 -79.6338 104.581 -80.2393 105.733C-80.835 106.876 -81.709 107.765 -82.8613 108.399C-84.0039 109.034 -85.2539 109.352 -86.6113 109.352C-88.7891 109.352 -90.5518 108.653 -91.8994 107.257C-93.2373 105.86 -93.9062 103.849 -93.9062 101.222ZM-91.1963 101.222C-91.1963 103.214 -90.7617 104.708 -89.8926 105.704C-89.0234 106.69 -87.9297 107.184 -86.6113 107.184C-85.3027 107.184 -84.2139 106.686 -83.3447 105.689C-82.4756 104.693 -82.041 103.175 -82.041 101.134C-82.041 99.21 -82.4805 97.7549 -83.3594 96.7686C-84.2285 95.7725 -85.3125 95.2744 -86.6113 95.2744C-87.9297 95.2744 -89.0234 95.7676 -89.8926 96.7539C-90.7617 97.7402 -91.1963 99.2295 -91.1963 101.222ZM-77.2803 104.356L-74.6729 103.946C-74.5264 104.991 -74.1211 105.792 -73.457 106.349C-72.7832 106.905 -71.8457 107.184 -70.6445 107.184C-69.4336 107.184 -68.5352 106.939 -67.9492 106.451C-67.3633 105.953 -67.0703 105.372 -67.0703 104.708C-67.0703 104.112 -67.3291 103.644 -67.8467 103.302C-68.208 103.067 -69.1064 102.77 -70.542 102.408C-72.4756 101.92 -73.8184 101.5 -74.5703 101.148C-75.3125 100.787 -75.8789 100.294 -76.2695 99.6689C-76.6504 99.0342 -76.8408 98.3359 -76.8408 97.5742C-76.8408 96.8809 -76.6846 96.2412 -76.3721 95.6553C-76.0498 95.0596 -75.6152 94.5664 -75.0684 94.1758C-74.6582 93.873 -74.1016 93.6191 -73.3984 93.4141C-72.6855 93.1992 -71.9238 93.0918 -71.1133 93.0918C-69.8926 93.0918 -68.8232 93.2676 -67.9053 93.6191C-66.9775 93.9707 -66.2939 94.4492 -65.8545 95.0547C-65.415 95.6504 -65.1123 96.4512 -64.9463 97.457L-67.5244 97.8086C-67.6416 97.0078 -67.9834 96.3828 -68.5498 95.9336C-69.1064 95.4844 -69.8975 95.2598 -70.9229 95.2598C-72.1338 95.2598 -72.998 95.46 -73.5156 95.8604C-74.0332 96.2607 -74.292 96.7295 -74.292 97.2666C-74.292 97.6084 -74.1846 97.916 -73.9697 98.1895C-73.7549 98.4727 -73.418 98.707 -72.959 98.8926C-72.6953 98.9902 -71.9189 99.2148 -70.6299 99.5664C-68.7646 100.064 -67.4658 100.475 -66.7334 100.797C-65.9912 101.109 -65.4102 101.568 -64.9902 102.174C-64.5703 102.779 -64.3604 103.531 -64.3604 104.43C-64.3604 105.309 -64.6191 106.139 -65.1367 106.92C-65.6445 107.691 -66.3818 108.292 -67.3486 108.722C-68.3154 109.142 -69.4092 109.352 -70.6299 109.352C-72.6514 109.352 -74.1943 108.932 -75.2588 108.092C-76.3135 107.252 -76.9873 106.007 -77.2803 104.356ZM-50.5762 103.99L-47.8516 104.327C-48.2812 105.919 -49.0771 107.154 -50.2393 108.033C-51.4014 108.912 -52.8857 109.352 -54.6924 109.352C-56.9678 109.352 -58.7744 108.653 -60.1123 107.257C-61.4404 105.851 -62.1045 103.883 -62.1045 101.354C-62.1045 98.7363 -61.4307 96.7051 -60.083 95.2598C-58.7354 93.8145 -56.9873 93.0918 -54.8389 93.0918C-52.7588 93.0918 -51.0596 93.7998 -49.7412 95.2158C-48.4229 96.6318 -47.7637 98.624 -47.7637 101.192C-47.7637 101.349 -47.7686 101.583 -47.7783 101.896H-59.3799C-59.2822 103.604 -58.7988 104.913 -57.9297 105.821C-57.0605 106.729 -55.9766 107.184 -54.6777 107.184C-53.7109 107.184 -52.8857 106.93 -52.2021 106.422C-51.5186 105.914 -50.9766 105.104 -50.5762 103.99ZM-59.2334 99.7275H-50.5469C-50.6641 98.4189 -50.9961 97.4375 -51.543 96.7832C-52.3828 95.7676 -53.4717 95.2598 -54.8096 95.2598C-56.0205 95.2598 -57.041 95.665 -57.8711 96.4756C-58.6914 97.2861 -59.1455 98.3701 -59.2334 99.7275ZM-173.022 143V127.443H-170.649V129.655C-169.507 127.946 -167.856 127.092 -165.698 127.092C-164.761 127.092 -163.901 127.263 -163.12 127.604C-162.329 127.937 -161.738 128.376 -161.348 128.923C-160.957 129.47 -160.684 130.119 -160.527 130.871C-160.43 131.359 -160.381 132.214 -160.381 133.435V143H-163.018V133.537C-163.018 132.463 -163.12 131.662 -163.325 131.135C-163.53 130.598 -163.896 130.173 -164.424 129.86C-164.941 129.538 -165.552 129.377 -166.255 129.377C-167.378 129.377 -168.35 129.733 -169.17 130.446C-169.98 131.159 -170.386 132.512 -170.386 134.504V143H-173.022ZM-146.172 141.081C-147.148 141.911 -148.091 142.497 -148.999 142.839C-149.897 143.181 -150.864 143.352 -151.899 143.352C-153.608 143.352 -154.922 142.937 -155.84 142.106C-156.758 141.267 -157.217 140.197 -157.217 138.898C-157.217 138.137 -157.046 137.443 -156.704 136.818C-156.353 136.184 -155.898 135.676 -155.342 135.295C-154.775 134.914 -154.141 134.626 -153.438 134.431C-152.92 134.294 -152.139 134.162 -151.094 134.035C-148.965 133.781 -147.397 133.479 -146.392 133.127C-146.382 132.766 -146.377 132.536 -146.377 132.438C-146.377 131.364 -146.626 130.607 -147.124 130.168C-147.798 129.572 -148.799 129.274 -150.127 129.274C-151.367 129.274 -152.285 129.494 -152.881 129.934C-153.467 130.363 -153.901 131.13 -154.185 132.233L-156.763 131.882C-156.528 130.778 -156.143 129.89 -155.605 129.216C-155.068 128.532 -154.292 128.01 -153.276 127.648C-152.261 127.277 -151.084 127.092 -149.746 127.092C-148.418 127.092 -147.339 127.248 -146.509 127.561C-145.679 127.873 -145.068 128.269 -144.678 128.747C-144.287 129.216 -144.014 129.812 -143.857 130.534C-143.77 130.983 -143.726 131.794 -143.726 132.966V136.481C-143.726 138.933 -143.672 140.485 -143.564 141.14C-143.447 141.784 -143.223 142.404 -142.891 143H-145.645C-145.918 142.453 -146.094 141.813 -146.172 141.081ZM-146.392 135.192C-147.349 135.583 -148.784 135.915 -150.698 136.188C-151.782 136.345 -152.549 136.521 -152.998 136.716C-153.447 136.911 -153.794 137.199 -154.038 137.58C-154.282 137.951 -154.404 138.366 -154.404 138.825C-154.404 139.528 -154.141 140.114 -153.613 140.583C-153.076 141.052 -152.295 141.286 -151.27 141.286C-150.254 141.286 -149.351 141.066 -148.56 140.627C-147.769 140.178 -147.188 139.567 -146.816 138.796C-146.533 138.2 -146.392 137.321 -146.392 136.159V135.192ZM-129.429 143V140.715C-130.64 142.473 -132.285 143.352 -134.365 143.352C-135.283 143.352 -136.143 143.176 -136.943 142.824C-137.734 142.473 -138.325 142.033 -138.716 141.506C-139.097 140.969 -139.365 140.314 -139.521 139.543C-139.629 139.025 -139.683 138.205 -139.683 137.082V127.443H-137.046V136.071C-137.046 137.448 -136.992 138.376 -136.885 138.854C-136.719 139.548 -136.367 140.095 -135.83 140.495C-135.293 140.886 -134.629 141.081 -133.838 141.081C-133.047 141.081 -132.305 140.881 -131.611 140.48C-130.918 140.07 -130.43 139.519 -130.146 138.825C-129.854 138.122 -129.707 137.106 -129.707 135.778V127.443H-127.07V143H-129.429ZM-112.832 143V141.037C-113.818 142.58 -115.269 143.352 -117.183 143.352C-118.423 143.352 -119.565 143.01 -120.61 142.326C-121.646 141.643 -122.451 140.69 -123.027 139.47C-123.594 138.239 -123.877 136.828 -123.877 135.236C-123.877 133.684 -123.618 132.277 -123.101 131.018C-122.583 129.748 -121.807 128.776 -120.771 128.103C-119.736 127.429 -118.579 127.092 -117.3 127.092C-116.362 127.092 -115.527 127.292 -114.795 127.692C-114.062 128.083 -113.467 128.596 -113.008 129.23V121.525H-110.386V143H-112.832ZM-121.167 135.236C-121.167 137.229 -120.747 138.718 -119.907 139.704C-119.067 140.69 -118.076 141.184 -116.934 141.184C-115.781 141.184 -114.805 140.715 -114.004 139.777C-113.193 138.83 -112.788 137.39 -112.788 135.456C-112.788 133.327 -113.198 131.765 -114.019 130.769C-114.839 129.772 -115.85 129.274 -117.051 129.274C-118.223 129.274 -119.204 129.753 -119.995 130.71C-120.776 131.667 -121.167 133.176 -121.167 135.236ZM-107.207 135.222C-107.207 132.341 -106.406 130.207 -104.805 128.82C-103.467 127.668 -101.836 127.092 -99.9121 127.092C-97.7734 127.092 -96.0254 127.795 -94.668 129.201C-93.3105 130.598 -92.6318 132.531 -92.6318 135.002C-92.6318 137.004 -92.9346 138.581 -93.54 139.733C-94.1357 140.876 -95.0098 141.765 -96.1621 142.399C-97.3047 143.034 -98.5547 143.352 -99.9121 143.352C-102.09 143.352 -103.853 142.653 -105.2 141.257C-106.538 139.86 -107.207 137.849 -107.207 135.222ZM-104.497 135.222C-104.497 137.214 -104.062 138.708 -103.193 139.704C-102.324 140.69 -101.23 141.184 -99.9121 141.184C-98.6035 141.184 -97.5146 140.686 -96.6455 139.689C-95.7764 138.693 -95.3418 137.175 -95.3418 135.134C-95.3418 133.21 -95.7812 131.755 -96.6602 130.769C-97.5293 129.772 -98.6133 129.274 -99.9121 129.274C-101.23 129.274 -102.324 129.768 -103.193 130.754C-104.062 131.74 -104.497 133.229 -104.497 135.222ZM-89.541 124.587V121.525H-86.9043V124.587H-89.541ZM-92.8809 149.035L-92.3828 146.794C-91.8555 146.931 -91.4404 146.999 -91.1377 146.999C-90.6006 146.999 -90.2002 146.818 -89.9365 146.457C-89.6729 146.105 -89.541 145.217 -89.541 143.791V127.443H-86.9043V143.85C-86.9043 145.764 -87.1533 147.097 -87.6514 147.849C-88.2861 148.825 -89.3408 149.313 -90.8154 149.313C-91.5283 149.313 -92.2168 149.221 -92.8809 149.035ZM-72.6953 141.081C-73.6719 141.911 -74.6143 142.497 -75.5225 142.839C-76.4209 143.181 -77.3877 143.352 -78.4229 143.352C-80.1318 143.352 -81.4453 142.937 -82.3633 142.106C-83.2812 141.267 -83.7402 140.197 -83.7402 138.898C-83.7402 138.137 -83.5693 137.443 -83.2275 136.818C-82.876 136.184 -82.4219 135.676 -81.8652 135.295C-81.2988 134.914 -80.6641 134.626 -79.9609 134.431C-79.4434 134.294 -78.6621 134.162 -77.6172 134.035C-75.4883 133.781 -73.9209 133.479 -72.915 133.127C-72.9053 132.766 -72.9004 132.536 -72.9004 132.438C-72.9004 131.364 -73.1494 130.607 -73.6475 130.168C-74.3213 129.572 -75.3223 129.274 -76.6504 129.274C-77.8906 129.274 -78.8086 129.494 -79.4043 129.934C-79.9902 130.363 -80.4248 131.13 -80.708 132.233L-83.2861 131.882C-83.0518 130.778 -82.666 129.89 -82.1289 129.216C-81.5918 128.532 -80.8154 128.01 -79.7998 127.648C-78.7842 127.277 -77.6074 127.092 -76.2695 127.092C-74.9414 127.092 -73.8623 127.248 -73.0322 127.561C-72.2021 127.873 -71.5918 128.269 -71.2012 128.747C-70.8105 129.216 -70.5371 129.812 -70.3809 130.534C-70.293 130.983 -70.249 131.794 -70.249 132.966V136.481C-70.249 138.933 -70.1953 140.485 -70.0879 141.14C-69.9707 141.784 -69.7461 142.404 -69.4141 143H-72.168C-72.4414 142.453 -72.6172 141.813 -72.6953 141.081ZM-72.915 135.192C-73.8721 135.583 -75.3076 135.915 -77.2217 136.188C-78.3057 136.345 -79.0723 136.521 -79.5215 136.716C-79.9707 136.911 -80.3174 137.199 -80.5615 137.58C-80.8057 137.951 -80.9277 138.366 -80.9277 138.825C-80.9277 139.528 -80.6641 140.114 -80.1367 140.583C-79.5996 141.052 -78.8184 141.286 -77.793 141.286C-76.7773 141.286 -75.874 141.066 -75.083 140.627C-74.292 140.178 -73.7109 139.567 -73.3398 138.796C-73.0566 138.2 -72.915 137.321 -72.915 136.159V135.192ZM-66.1475 143V127.443H-63.7891V129.626C-63.3008 128.864 -62.6514 128.254 -61.8408 127.795C-61.0303 127.326 -60.1074 127.092 -59.0723 127.092C-57.9199 127.092 -56.9775 127.331 -56.2451 127.81C-55.5029 128.288 -54.9805 128.957 -54.6777 129.816C-53.4473 128 -51.8457 127.092 -49.873 127.092C-48.3301 127.092 -47.1436 127.521 -46.3135 128.381C-45.4834 129.23 -45.0684 130.544 -45.0684 132.321V143H-47.6904V133.2C-47.6904 132.146 -47.7783 131.389 -47.9541 130.93C-48.1201 130.461 -48.4277 130.085 -48.877 129.802C-49.3262 129.519 -49.8535 129.377 -50.459 129.377C-51.5527 129.377 -52.4609 129.743 -53.1836 130.476C-53.9062 131.198 -54.2676 132.36 -54.2676 133.962V143H-56.9043V132.893C-56.9043 131.721 -57.1191 130.842 -57.5488 130.256C-57.9785 129.67 -58.6816 129.377 -59.6582 129.377C-60.4004 129.377 -61.0889 129.572 -61.7236 129.963C-62.3486 130.354 -62.8027 130.925 -63.0859 131.677C-63.3691 132.429 -63.5107 133.513 -63.5107 134.929V143H-66.1475ZM-31.0059 141.081C-31.9824 141.911 -32.9248 142.497 -33.833 142.839C-34.7314 143.181 -35.6982 143.352 -36.7334 143.352C-38.4424 143.352 -39.7559 142.937 -40.6738 142.106C-41.5918 141.267 -42.0508 140.197 -42.0508 138.898C-42.0508 138.137 -41.8799 137.443 -41.5381 136.818C-41.1865 136.184 -40.7324 135.676 -40.1758 135.295C-39.6094 134.914 -38.9746 134.626 -38.2715 134.431C-37.7539 134.294 -36.9727 134.162 -35.9277 134.035C-33.7988 133.781 -32.2314 133.479 -31.2256 133.127C-31.2158 132.766 -31.2109 132.536 -31.2109 132.438C-31.2109 131.364 -31.46 130.607 -31.958 130.168C-32.6318 129.572 -33.6328 129.274 -34.9609 129.274C-36.2012 129.274 -37.1191 129.494 -37.7148 129.934C-38.3008 130.363 -38.7354 131.13 -39.0186 132.233L-41.5967 131.882C-41.3623 130.778 -40.9766 129.89 -40.4395 129.216C-39.9023 128.532 -39.126 128.01 -38.1104 127.648C-37.0947 127.277 -35.918 127.092 -34.5801 127.092C-33.252 127.092 -32.1729 127.248 -31.3428 127.561C-30.5127 127.873 -29.9023 128.269 -29.5117 128.747C-29.1211 129.216 -28.8477 129.812 -28.6914 130.534C-28.6035 130.983 -28.5596 131.794 -28.5596 132.966V136.481C-28.5596 138.933 -28.5059 140.485 -28.3984 141.14C-28.2812 141.784 -28.0566 142.404 -27.7246 143H-30.4785C-30.752 142.453 -30.9277 141.813 -31.0059 141.081ZM-31.2256 135.192C-32.1826 135.583 -33.6182 135.915 -35.5322 136.188C-36.6162 136.345 -37.3828 136.521 -37.832 136.716C-38.2812 136.911 -38.6279 137.199 -38.8721 137.58C-39.1162 137.951 -39.2383 138.366 -39.2383 138.825C-39.2383 139.528 -38.9746 140.114 -38.4473 140.583C-37.9102 141.052 -37.1289 141.286 -36.1035 141.286C-35.0879 141.286 -34.1846 141.066 -33.3936 140.627C-32.6025 140.178 -32.0215 139.567 -31.6504 138.796C-31.3672 138.2 -31.2256 137.321 -31.2256 136.159V135.192ZM-173.506 178.289L-170.942 178.67C-170.835 179.461 -170.537 180.037 -170.049 180.398C-169.395 180.887 -168.501 181.131 -167.368 181.131C-166.147 181.131 -165.205 180.887 -164.541 180.398C-163.877 179.91 -163.428 179.227 -163.193 178.348C-163.057 177.811 -162.993 176.683 -163.003 174.964C-164.155 176.321 -165.591 177 -167.31 177C-169.448 177 -171.104 176.229 -172.275 174.686C-173.447 173.143 -174.033 171.292 -174.033 169.134C-174.033 167.649 -173.765 166.282 -173.228 165.032C-172.69 163.772 -171.914 162.801 -170.898 162.117C-169.873 161.434 -168.672 161.092 -167.295 161.092C-165.459 161.092 -163.945 161.834 -162.754 163.318V161.443H-160.322V174.891C-160.322 177.312 -160.571 179.026 -161.069 180.032C-161.558 181.048 -162.339 181.849 -163.413 182.435C-164.478 183.021 -165.791 183.313 -167.354 183.313C-169.209 183.313 -170.708 182.894 -171.851 182.054C-172.993 181.224 -173.545 179.969 -173.506 178.289ZM-171.323 168.943C-171.323 170.984 -170.918 172.474 -170.107 173.411C-169.297 174.349 -168.281 174.817 -167.061 174.817C-165.85 174.817 -164.834 174.354 -164.014 173.426C-163.193 172.488 -162.783 171.023 -162.783 169.031C-162.783 167.127 -163.208 165.691 -164.058 164.725C-164.897 163.758 -165.913 163.274 -167.104 163.274C-168.276 163.274 -169.272 163.753 -170.093 164.71C-170.913 165.657 -171.323 167.068 -171.323 168.943ZM-156.353 177V161.443H-153.979V163.802C-153.374 162.698 -152.817 161.971 -152.31 161.619C-151.792 161.268 -151.226 161.092 -150.61 161.092C-149.722 161.092 -148.818 161.375 -147.9 161.941L-148.809 164.388C-149.453 164.007 -150.098 163.816 -150.742 163.816C-151.318 163.816 -151.836 163.992 -152.295 164.344C-152.754 164.686 -153.081 165.164 -153.276 165.779C-153.569 166.717 -153.716 167.742 -153.716 168.855V177H-156.353ZM-135.684 171.99L-132.959 172.327C-133.389 173.919 -134.185 175.154 -135.347 176.033C-136.509 176.912 -137.993 177.352 -139.8 177.352C-142.075 177.352 -143.882 176.653 -145.22 175.257C-146.548 173.851 -147.212 171.883 -147.212 169.354C-147.212 166.736 -146.538 164.705 -145.19 163.26C-143.843 161.814 -142.095 161.092 -139.946 161.092C-137.866 161.092 -136.167 161.8 -134.849 163.216C-133.53 164.632 -132.871 166.624 -132.871 169.192C-132.871 169.349 -132.876 169.583 -132.886 169.896H-144.487C-144.39 171.604 -143.906 172.913 -143.037 173.821C-142.168 174.729 -141.084 175.184 -139.785 175.184C-138.818 175.184 -137.993 174.93 -137.31 174.422C-136.626 173.914 -136.084 173.104 -135.684 171.99ZM-144.341 167.728H-135.654C-135.771 166.419 -136.104 165.438 -136.65 164.783C-137.49 163.768 -138.579 163.26 -139.917 163.26C-141.128 163.26 -142.148 163.665 -142.979 164.476C-143.799 165.286 -144.253 166.37 -144.341 167.728ZM-137.544 177C-138.101 177.342 -138.535 177.762 -138.848 178.26C-139.15 178.768 -139.302 179.28 -139.302 179.798C-139.302 180.208 -139.189 180.555 -138.965 180.838C-138.74 181.121 -138.374 181.263 -137.866 181.263C-137.642 181.263 -137.412 181.229 -137.178 181.16C-136.943 181.102 -136.729 181.019 -136.533 180.911V182.786C-137.246 183.128 -137.91 183.299 -138.525 183.299C-139.023 183.299 -139.458 183.226 -139.829 183.079C-140.2 182.942 -140.513 182.747 -140.767 182.493C-141.011 182.249 -141.196 181.966 -141.323 181.644C-141.44 181.321 -141.499 180.975 -141.499 180.604C-141.499 179.979 -141.323 179.349 -140.972 178.714C-140.62 178.089 -140.122 177.518 -139.478 177H-137.544ZM-131.025 177V174.861L-121.123 163.494C-122.246 163.553 -123.237 163.582 -124.097 163.582H-130.439V161.443H-117.725V163.187L-126.147 173.06L-127.773 174.861C-126.592 174.773 -125.483 174.729 -124.448 174.729H-117.256V177H-131.025ZM-123.657 157.898L-122.046 155.408H-119.058L-122.354 159.51H-125.166L-128.33 155.408H-125.312L-123.657 157.898ZM-114.619 158.558V155.525H-111.982V158.558H-114.619ZM-114.619 177V161.443H-111.982V177H-114.619ZM-107.954 177V161.443H-105.596V163.626C-105.107 162.864 -104.458 162.254 -103.647 161.795C-102.837 161.326 -101.914 161.092 -100.879 161.092C-99.7266 161.092 -98.7842 161.331 -98.0518 161.81C-97.3096 162.288 -96.7871 162.957 -96.4844 163.816C-95.2539 162 -93.6523 161.092 -91.6797 161.092C-90.1367 161.092 -88.9502 161.521 -88.1201 162.381C-87.29 163.23 -86.875 164.544 -86.875 166.321V177H-89.4971V167.2C-89.4971 166.146 -89.585 165.389 -89.7607 164.93C-89.9268 164.461 -90.2344 164.085 -90.6836 163.802C-91.1328 163.519 -91.6602 163.377 -92.2656 163.377C-93.3594 163.377 -94.2676 163.743 -94.9902 164.476C-95.7129 165.198 -96.0742 166.36 -96.0742 167.962V177H-98.7109V166.893C-98.7109 165.721 -98.9258 164.842 -99.3555 164.256C-99.7852 163.67 -100.488 163.377 -101.465 163.377C-102.207 163.377 -102.896 163.572 -103.53 163.963C-104.155 164.354 -104.609 164.925 -104.893 165.677C-105.176 166.429 -105.317 167.513 -105.317 168.929V177H-107.954ZM-83.9453 169.222C-83.9453 166.341 -83.1445 164.207 -81.543 162.82C-80.2051 161.668 -78.5742 161.092 -76.6504 161.092C-74.5117 161.092 -72.7637 161.795 -71.4062 163.201C-70.0488 164.598 -69.3701 166.531 -69.3701 169.002C-69.3701 171.004 -69.6729 172.581 -70.2783 173.733C-70.874 174.876 -71.748 175.765 -72.9004 176.399C-74.043 177.034 -75.293 177.352 -76.6504 177.352C-78.8281 177.352 -80.5908 176.653 -81.9385 175.257C-83.2764 173.86 -83.9453 171.849 -83.9453 169.222ZM-81.2354 169.222C-81.2354 171.214 -80.8008 172.708 -79.9316 173.704C-79.0625 174.69 -77.9688 175.184 -76.6504 175.184C-75.3418 175.184 -74.2529 174.686 -73.3838 173.689C-72.5146 172.693 -72.0801 171.175 -72.0801 169.134C-72.0801 167.21 -72.5195 165.755 -73.3984 164.769C-74.2676 163.772 -75.3516 163.274 -76.6504 163.274C-77.9688 163.274 -79.0625 163.768 -79.9316 164.754C-80.8008 165.74 -81.2354 167.229 -81.2354 169.222ZM-174.077 206.356L-171.47 205.946C-171.323 206.991 -170.918 207.792 -170.254 208.349C-169.58 208.905 -168.643 209.184 -167.441 209.184C-166.23 209.184 -165.332 208.939 -164.746 208.451C-164.16 207.953 -163.867 207.372 -163.867 206.708C-163.867 206.112 -164.126 205.644 -164.644 205.302C-165.005 205.067 -165.903 204.77 -167.339 204.408C-169.272 203.92 -170.615 203.5 -171.367 203.148C-172.109 202.787 -172.676 202.294 -173.066 201.669C-173.447 201.034 -173.638 200.336 -173.638 199.574C-173.638 198.881 -173.481 198.241 -173.169 197.655C-172.847 197.06 -172.412 196.566 -171.865 196.176C-171.455 195.873 -170.898 195.619 -170.195 195.414C-169.482 195.199 -168.721 195.092 -167.91 195.092C-166.689 195.092 -165.62 195.268 -164.702 195.619C-163.774 195.971 -163.091 196.449 -162.651 197.055C-162.212 197.65 -161.909 198.451 -161.743 199.457L-164.321 199.809C-164.438 199.008 -164.78 198.383 -165.347 197.934C-165.903 197.484 -166.694 197.26 -167.72 197.26C-168.931 197.26 -169.795 197.46 -170.312 197.86C-170.83 198.261 -171.089 198.729 -171.089 199.267C-171.089 199.608 -170.981 199.916 -170.767 200.189C-170.552 200.473 -170.215 200.707 -169.756 200.893C-169.492 200.99 -168.716 201.215 -167.427 201.566C-165.562 202.064 -164.263 202.475 -163.53 202.797C-162.788 203.109 -162.207 203.568 -161.787 204.174C-161.367 204.779 -161.157 205.531 -161.157 206.43C-161.157 207.309 -161.416 208.139 -161.934 208.92C-162.441 209.691 -163.179 210.292 -164.146 210.722C-165.112 211.142 -166.206 211.352 -167.427 211.352C-169.448 211.352 -170.991 210.932 -172.056 210.092C-173.11 209.252 -173.784 208.007 -174.077 206.356ZM-158.008 192.558V189.525H-155.371V192.558H-158.008ZM-158.008 211V195.443H-155.371V211H-158.008ZM-152.397 206.356L-149.79 205.946C-149.644 206.991 -149.238 207.792 -148.574 208.349C-147.9 208.905 -146.963 209.184 -145.762 209.184C-144.551 209.184 -143.652 208.939 -143.066 208.451C-142.48 207.953 -142.188 207.372 -142.188 206.708C-142.188 206.112 -142.446 205.644 -142.964 205.302C-143.325 205.067 -144.224 204.77 -145.659 204.408C-147.593 203.92 -148.936 203.5 -149.688 203.148C-150.43 202.787 -150.996 202.294 -151.387 201.669C-151.768 201.034 -151.958 200.336 -151.958 199.574C-151.958 198.881 -151.802 198.241 -151.489 197.655C-151.167 197.06 -150.732 196.566 -150.186 196.176C-149.775 195.873 -149.219 195.619 -148.516 195.414C-147.803 195.199 -147.041 195.092 -146.23 195.092C-145.01 195.092 -143.94 195.268 -143.022 195.619C-142.095 195.971 -141.411 196.449 -140.972 197.055C-140.532 197.65 -140.229 198.451 -140.063 199.457L-142.642 199.809C-142.759 199.008 -143.101 198.383 -143.667 197.934C-144.224 197.484 -145.015 197.26 -146.04 197.26C-147.251 197.26 -148.115 197.46 -148.633 197.86C-149.15 198.261 -149.409 198.729 -149.409 199.267C-149.409 199.608 -149.302 199.916 -149.087 200.189C-148.872 200.473 -148.535 200.707 -148.076 200.893C-147.812 200.99 -147.036 201.215 -145.747 201.566C-143.882 202.064 -142.583 202.475 -141.851 202.797C-141.108 203.109 -140.527 203.568 -140.107 204.174C-139.688 204.779 -139.478 205.531 -139.478 206.43C-139.478 207.309 -139.736 208.139 -140.254 208.92C-140.762 209.691 -141.499 210.292 -142.466 210.722C-143.433 211.142 -144.526 211.352 -145.747 211.352C-147.769 211.352 -149.312 210.932 -150.376 210.092C-151.431 209.252 -152.104 208.007 -152.397 206.356ZM-130.586 208.642L-130.205 210.971C-130.947 211.127 -131.611 211.205 -132.197 211.205C-133.154 211.205 -133.896 211.054 -134.424 210.751C-134.951 210.448 -135.322 210.053 -135.537 209.564C-135.752 209.066 -135.859 208.026 -135.859 206.444V197.494H-137.793V195.443H-135.859V191.591L-133.237 190.009V195.443H-130.586V197.494H-133.237V206.591C-133.237 207.343 -133.193 207.826 -133.105 208.041C-133.008 208.256 -132.856 208.427 -132.651 208.554C-132.437 208.681 -132.134 208.744 -131.743 208.744C-131.45 208.744 -131.064 208.71 -130.586 208.642ZM-117.344 205.99L-114.619 206.327C-115.049 207.919 -115.845 209.154 -117.007 210.033C-118.169 210.912 -119.653 211.352 -121.46 211.352C-123.735 211.352 -125.542 210.653 -126.88 209.257C-128.208 207.851 -128.872 205.883 -128.872 203.354C-128.872 200.736 -128.198 198.705 -126.851 197.26C-125.503 195.814 -123.755 195.092 -121.606 195.092C-119.526 195.092 -117.827 195.8 -116.509 197.216C-115.19 198.632 -114.531 200.624 -114.531 203.192C-114.531 203.349 -114.536 203.583 -114.546 203.896H-126.147C-126.05 205.604 -125.566 206.913 -124.697 207.821C-123.828 208.729 -122.744 209.184 -121.445 209.184C-120.479 209.184 -119.653 208.93 -118.97 208.422C-118.286 207.914 -117.744 207.104 -117.344 205.99ZM-126.001 201.728H-117.314C-117.432 200.419 -117.764 199.438 -118.311 198.783C-119.15 197.768 -120.239 197.26 -121.577 197.26C-122.788 197.26 -123.809 197.665 -124.639 198.476C-125.459 199.286 -125.913 200.37 -126.001 201.728ZM-111.294 211V195.443H-108.936V197.626C-108.447 196.864 -107.798 196.254 -106.987 195.795C-106.177 195.326 -105.254 195.092 -104.219 195.092C-103.066 195.092 -102.124 195.331 -101.392 195.81C-100.649 196.288 -100.127 196.957 -99.8242 197.816C-98.5938 196 -96.9922 195.092 -95.0195 195.092C-93.4766 195.092 -92.29 195.521 -91.46 196.381C-90.6299 197.23 -90.2148 198.544 -90.2148 200.321V211H-92.8369V201.2C-92.8369 200.146 -92.9248 199.389 -93.1006 198.93C-93.2666 198.461 -93.5742 198.085 -94.0234 197.802C-94.4727 197.519 -95 197.377 -95.6055 197.377C-96.6992 197.377 -97.6074 197.743 -98.3301 198.476C-99.0527 199.198 -99.4141 200.36 -99.4141 201.962V211H-102.051V200.893C-102.051 199.721 -102.266 198.842 -102.695 198.256C-103.125 197.67 -103.828 197.377 -104.805 197.377C-105.547 197.377 -106.235 197.572 -106.87 197.963C-107.495 198.354 -107.949 198.925 -108.232 199.677C-108.516 200.429 -108.657 201.513 -108.657 202.929V211H-111.294ZM-76.1523 209.081C-77.1289 209.911 -78.0713 210.497 -78.9795 210.839C-79.8779 211.181 -80.8447 211.352 -81.8799 211.352C-83.5889 211.352 -84.9023 210.937 -85.8203 210.106C-86.7383 209.267 -87.1973 208.197 -87.1973 206.898C-87.1973 206.137 -87.0264 205.443 -86.6846 204.818C-86.333 204.184 -85.8789 203.676 -85.3223 203.295C-84.7559 202.914 -84.1211 202.626 -83.418 202.431C-82.9004 202.294 -82.1191 202.162 -81.0742 202.035C-78.9453 201.781 -77.3779 201.479 -76.3721 201.127C-76.3623 200.766 -76.3574 200.536 -76.3574 200.438C-76.3574 199.364 -76.6064 198.607 -77.1045 198.168C-77.7783 197.572 -78.7793 197.274 -80.1074 197.274C-81.3477 197.274 -82.2656 197.494 -82.8613 197.934C-83.4473 198.363 -83.8818 199.13 -84.165 200.233L-86.7432 199.882C-86.5088 198.778 -86.123 197.89 -85.5859 197.216C-85.0488 196.532 -84.2725 196.01 -83.2568 195.648C-82.2412 195.277 -81.0645 195.092 -79.7266 195.092C-78.3984 195.092 -77.3193 195.248 -76.4893 195.561C-75.6592 195.873 -75.0488 196.269 -74.6582 196.747C-74.2676 197.216 -73.9941 197.812 -73.8379 198.534C-73.75 198.983 -73.7061 199.794 -73.7061 200.966V204.481C-73.7061 206.933 -73.6523 208.485 -73.5449 209.14C-73.4277 209.784 -73.2031 210.404 -72.8711 211H-75.625C-75.8984 210.453 -76.0742 209.813 -76.1523 209.081ZM-76.3721 203.192C-77.3291 203.583 -78.7646 203.915 -80.6787 204.188C-81.7627 204.345 -82.5293 204.521 -82.9785 204.716C-83.4277 204.911 -83.7744 205.199 -84.0186 205.58C-84.2627 205.951 -84.3848 206.366 -84.3848 206.825C-84.3848 207.528 -84.1211 208.114 -83.5938 208.583C-83.0566 209.052 -82.2754 209.286 -81.25 209.286C-80.2344 209.286 -79.3311 209.066 -78.54 208.627C-77.749 208.178 -77.168 207.567 -76.7969 206.796C-76.5137 206.2 -76.3721 205.321 -76.3721 204.159V203.192ZM-68.8574 211V207.997H-65.8545V211H-68.8574Z" fill="#1D1D1F"/>
<path d="M34.5 18.5556C34.5 22.7284 31.1421 26.1111 27 26.1111C22.8579 26.1111 19.5 22.7284 19.5 18.5556C19.5 14.3827 22.8579 11 27 11C31.1421 11 34.5 14.3827 34.5 18.5556Z" stroke="white" stroke-width="3" stroke-linecap="round" stroke-linejoin="round"/>
<path d="M34.5 33.6667H19.5C15.3579 33.6667 12 37.0494 12 41.2222C12 43.3086 13.6789 45 15.75 45H38.25C40.3211 45 42 43.3086 42 41.2222C42 37.0494 38.6421 33.6667 34.5 33.6667Z" stroke="white" stroke-width="3" stroke-linecap="round" stroke-linejoin="round"/>
</g>
<rect x="-1256.5" y="-1030.5" width="1439" height="2129" stroke="black"/>
<defs>
<filter id="filter0_d_0_1" x="-220" y="-32" width="360" height="330" filterUnits="userSpaceOnUse" color-interpolation-filters="sRGB">
<feFlood flood-opacity="0" result="BackgroundImageFix"/>
<feColorMatrix in="SourceAlpha" type="matrix" values="0 0 0 0 0 0 0 0 0 0 0 0 0 0 0 0 0 0 127 0" result="hardAlpha"/>
<feOffset dx="20" dy="24"/>
<feGaussianBlur stdDeviation="20"/>
<feComposite in2="hardAlpha" operator="out"/>
<feColorMatrix type="matrix" values="0 0 0 0 0 0 0 0 0 0 0 0 0 0 0 0 0 0 0.1 0"/>
<feBlend mode="normal" in2="BackgroundImageFix" result="effect1_dropShadow_0_1"/>
<feBlend mode="normal" in="SourceGraphic" in2="effect1_dropShadow_0_1" result="shape"/>
</filter>
<clipPath id="clip0_0_1">
<rect x="-1257" y="-1031" width="1440" height="2130" fill="white"/>
</clipPath>
</defs>
</svg>
