<svg width="55" height="55" viewBox="0 0 55 55" fill="none" xmlns="http://www.w3.org/2000/svg">
<rect width="55" height="55" fill="#F5F5F5"/>
<g clip-path="url(#clip0_0_1)">
<rect x="-621" y="-1031" width="1440" height="2130" fill="#F5F8F3"/>
<g filter="url(#filter0_d_0_1)">
<rect x="-200" y="-16" width="280" height="250" rx="12" fill="#F5F5F7"/>
</g>
<circle cx="27.5" cy="27.5" r="27.5" fill="#0E902E"/>
<path d="M27 33.6667V28M27 28V22.3333M27 28H21.3333M27 28H32.6667M27 45C21.7193 45 19.079 45 16.9963 44.1373C14.2193 42.987 12.013 40.7807 10.8627 38.0037C10 35.921 10 33.2807 10 28C10 22.7193 10 20.079 10.8627 17.9963C12.013 15.2193 14.2193 13.013 16.9963 11.8627C19.079 11 21.7193 11 27 11C32.2807 11 34.921 11 37.0037 11.8627C39.7807 13.013 41.987 15.2193 43.1373 17.9963C44 20.079 44 22.7193 44 28C44 33.2807 44 35.921 43.1373 38.0037C41.987 40.7807 39.7807 42.987 37.0037 44.1373C34.921 45 32.2807 45 27 45Z" stroke="white" stroke-width="3" stroke-linecap="round" stroke-linejoin="round"/>
<path d="M-162.637 66.5771V64.0576L-153.54 64.043V72.0117C-154.937 73.125 -156.377 73.9648 -157.861 74.5312C-159.346 75.0879 -160.869 75.3662 -162.432 75.3662C-164.541 75.3662 -166.46 74.917 -168.188 74.0186C-169.907 73.1104 -171.206 71.8018 -172.085 70.0928C-172.964 68.3838 -173.403 66.4746 -173.403 64.3652C-173.403 62.2754 -172.969 60.3271 -172.1 58.5205C-171.221 56.7041 -169.961 55.3564 -168.32 54.4775C-166.68 53.5986 -164.79 53.1592 -162.651 53.1592C-161.099 53.1592 -159.697 53.4131 -158.447 53.9209C-157.188 54.4189 -156.201 55.1172 -155.488 56.0156C-154.775 56.9141 -154.233 58.0859 -153.862 59.5312L-156.426 60.2344C-156.748 59.1406 -157.148 58.2812 -157.627 57.6562C-158.105 57.0312 -158.789 56.5332 -159.678 56.1621C-160.566 55.7812 -161.553 55.5908 -162.637 55.5908C-163.936 55.5908 -165.059 55.791 -166.006 56.1914C-166.953 56.582 -167.72 57.0996 -168.306 57.7441C-168.882 58.3887 -169.331 59.0967 -169.653 59.8682C-170.2 61.1963 -170.474 62.6367 -170.474 64.1895C-170.474 66.1035 -170.146 67.7051 -169.492 68.9941C-168.828 70.2832 -167.866 71.2402 -166.606 71.8652C-165.347 72.4902 -164.009 72.8027 -162.593 72.8027C-161.362 72.8027 -160.161 72.5684 -158.989 72.0996C-157.817 71.6211 -156.929 71.1133 -156.323 70.5762V66.5771H-162.637ZM-149.702 75V59.4434H-147.329V61.8018C-146.724 60.6982 -146.167 59.9707 -145.659 59.6191C-145.142 59.2676 -144.575 59.0918 -143.96 59.0918C-143.071 59.0918 -142.168 59.375 -141.25 59.9414L-142.158 62.3877C-142.803 62.0068 -143.447 61.8164 -144.092 61.8164C-144.668 61.8164 -145.186 61.9922 -145.645 62.3438C-146.104 62.6855 -146.431 63.1641 -146.626 63.7793C-146.919 64.7168 -147.065 65.7422 -147.065 66.8555V75H-149.702ZM-129.033 69.9902L-126.309 70.3271C-126.738 71.9189 -127.534 73.1543 -128.696 74.0332C-129.858 74.9121 -131.343 75.3516 -133.149 75.3516C-135.425 75.3516 -137.231 74.6533 -138.569 73.2568C-139.897 71.8506 -140.562 69.8828 -140.562 67.3535C-140.562 64.7363 -139.888 62.7051 -138.54 61.2598C-137.192 59.8145 -135.444 59.0918 -133.296 59.0918C-131.216 59.0918 -129.517 59.7998 -128.198 61.2158C-126.88 62.6318 -126.221 64.624 -126.221 67.1924C-126.221 67.3486 -126.226 67.583 -126.235 67.8955H-137.837C-137.739 69.6045 -137.256 70.9131 -136.387 71.8213C-135.518 72.7295 -134.434 73.1836 -133.135 73.1836C-132.168 73.1836 -131.343 72.9297 -130.659 72.4219C-129.976 71.9141 -129.434 71.1035 -129.033 69.9902ZM-137.69 65.7275H-129.004C-129.121 64.4189 -129.453 63.4375 -130 62.7832C-130.84 61.7676 -131.929 61.2598 -133.267 61.2598C-134.478 61.2598 -135.498 61.665 -136.328 62.4756C-137.148 63.2861 -137.603 64.3701 -137.69 65.7275ZM-130.894 75C-131.45 75.3418 -131.885 75.7617 -132.197 76.2598C-132.5 76.7676 -132.651 77.2803 -132.651 77.7979C-132.651 78.208 -132.539 78.5547 -132.314 78.8379C-132.09 79.1211 -131.724 79.2627 -131.216 79.2627C-130.991 79.2627 -130.762 79.2285 -130.527 79.1602C-130.293 79.1016 -130.078 79.0186 -129.883 78.9111V80.7861C-130.596 81.1279 -131.26 81.2988 -131.875 81.2988C-132.373 81.2988 -132.808 81.2256 -133.179 81.0791C-133.55 80.9424 -133.862 80.7471 -134.116 80.4932C-134.36 80.249 -134.546 79.9658 -134.673 79.6436C-134.79 79.3213 -134.849 78.9746 -134.849 78.6035C-134.849 77.9785 -134.673 77.3486 -134.321 76.7139C-133.97 76.0889 -133.472 75.5176 -132.827 75H-130.894ZM-124.375 75V72.8613L-114.473 61.4941C-115.596 61.5527 -116.587 61.582 -117.446 61.582H-123.789V59.4434H-111.074V61.1865L-119.497 71.0596L-121.123 72.8613C-119.941 72.7734 -118.833 72.7295 -117.798 72.7295H-110.605V75H-124.375ZM-117.007 55.8984L-115.396 53.4082H-112.407L-115.703 57.5098H-118.516L-121.68 53.4082H-118.662L-117.007 55.8984ZM-107.969 56.5576V53.5254H-105.332V56.5576H-107.969ZM-107.969 75V59.4434H-105.332V75H-107.969ZM-91.1523 73.0811C-92.1289 73.9111 -93.0713 74.4971 -93.9795 74.8389C-94.8779 75.1807 -95.8447 75.3516 -96.8799 75.3516C-98.5889 75.3516 -99.9023 74.9365 -100.82 74.1064C-101.738 73.2666 -102.197 72.1973 -102.197 70.8984C-102.197 70.1367 -102.026 69.4434 -101.685 68.8184C-101.333 68.1836 -100.879 67.6758 -100.322 67.2949C-99.7559 66.9141 -99.1211 66.626 -98.418 66.4307C-97.9004 66.2939 -97.1191 66.1621 -96.0742 66.0352C-93.9453 65.7812 -92.3779 65.4785 -91.3721 65.127C-91.3623 64.7656 -91.3574 64.5361 -91.3574 64.4385C-91.3574 63.3643 -91.6064 62.6074 -92.1045 62.168C-92.7783 61.5723 -93.7793 61.2744 -95.1074 61.2744C-96.3477 61.2744 -97.2656 61.4941 -97.8613 61.9336C-98.4473 62.3633 -98.8818 63.1299 -99.165 64.2334L-101.743 63.8818C-101.509 62.7783 -101.123 61.8896 -100.586 61.2158C-100.049 60.5322 -99.2725 60.0098 -98.2568 59.6484C-97.2412 59.2773 -96.0645 59.0918 -94.7266 59.0918C-93.3984 59.0918 -92.3193 59.248 -91.4893 59.5605C-90.6592 59.873 -90.0488 60.2686 -89.6582 60.7471C-89.2676 61.2158 -88.9941 61.8115 -88.8379 62.5342C-88.75 62.9834 -88.7061 63.7939 -88.7061 64.9658V68.4814C-88.7061 70.9326 -88.6523 72.4854 -88.5449 73.1396C-88.4277 73.7842 -88.2031 74.4043 -87.8711 75H-90.625C-90.8984 74.4531 -91.0742 73.8135 -91.1523 73.0811ZM-91.3721 67.1924C-92.3291 67.583 -93.7646 67.915 -95.6787 68.1885C-96.7627 68.3447 -97.5293 68.5205 -97.9785 68.7158C-98.4277 68.9111 -98.7744 69.1992 -99.0186 69.5801C-99.2627 69.9512 -99.3848 70.3662 -99.3848 70.8252C-99.3848 71.5283 -99.1211 72.1143 -98.5938 72.583C-98.0566 73.0518 -97.2754 73.2861 -96.25 73.2861C-95.2344 73.2861 -94.3311 73.0664 -93.54 72.627C-92.749 72.1777 -92.168 71.5674 -91.7969 70.7959C-91.5137 70.2002 -91.3721 69.3213 -91.3721 68.1592V67.1924ZM-84.6045 75V59.4434H-82.2461V61.626C-81.7578 60.8643 -81.1084 60.2539 -80.2979 59.7949C-79.4873 59.3262 -78.5645 59.0918 -77.5293 59.0918C-76.377 59.0918 -75.4346 59.3311 -74.7021 59.8096C-73.96 60.2881 -73.4375 60.957 -73.1348 61.8164C-71.9043 60 -70.3027 59.0918 -68.3301 59.0918C-66.7871 59.0918 -65.6006 59.5215 -64.7705 60.3809C-63.9404 61.2305 -63.5254 62.5439 -63.5254 64.3213V75H-66.1475V65.2002C-66.1475 64.1455 -66.2354 63.3887 -66.4111 62.9297C-66.5771 62.4609 -66.8848 62.085 -67.334 61.8018C-67.7832 61.5186 -68.3105 61.377 -68.916 61.377C-70.0098 61.377 -70.918 61.7432 -71.6406 62.4756C-72.3633 63.1982 -72.7246 64.3604 -72.7246 65.9619V75H-75.3613V64.8926C-75.3613 63.7207 -75.5762 62.8418 -76.0059 62.2559C-76.4355 61.6699 -77.1387 61.377 -78.1152 61.377C-78.8574 61.377 -79.5459 61.5723 -80.1807 61.9629C-80.8057 62.3535 -81.2598 62.9248 -81.543 63.6768C-81.8262 64.4287 -81.9678 65.5127 -81.9678 66.9287V75H-84.6045ZM-48.9648 69.9902L-46.2402 70.3271C-46.6699 71.9189 -47.4658 73.1543 -48.6279 74.0332C-49.79 74.9121 -51.2744 75.3516 -53.0811 75.3516C-55.3564 75.3516 -57.1631 74.6533 -58.501 73.2568C-59.8291 71.8506 -60.4932 69.8828 -60.4932 67.3535C-60.4932 64.7363 -59.8193 62.7051 -58.4717 61.2598C-57.124 59.8145 -55.376 59.0918 -53.2275 59.0918C-51.1475 59.0918 -49.4482 59.7998 -48.1299 61.2158C-46.8115 62.6318 -46.1523 64.624 -46.1523 67.1924C-46.1523 67.3486 -46.1572 67.583 -46.167 67.8955H-57.7686C-57.6709 69.6045 -57.1875 70.9131 -56.3184 71.8213C-55.4492 72.7295 -54.3652 73.1836 -53.0664 73.1836C-52.0996 73.1836 -51.2744 72.9297 -50.5908 72.4219C-49.9072 71.9141 -49.3652 71.1035 -48.9648 69.9902ZM-57.6221 65.7275H-48.9355C-49.0527 64.4189 -49.3848 63.4375 -49.9316 62.7832C-50.7715 61.7676 -51.8604 61.2598 -53.1982 61.2598C-54.4092 61.2598 -55.4297 61.665 -56.2598 62.4756C-57.0801 63.2861 -57.5342 64.3701 -57.6221 65.7275ZM-174.077 104.356L-171.47 103.946C-171.323 104.991 -170.918 105.792 -170.254 106.349C-169.58 106.905 -168.643 107.184 -167.441 107.184C-166.23 107.184 -165.332 106.939 -164.746 106.451C-164.16 105.953 -163.867 105.372 -163.867 104.708C-163.867 104.112 -164.126 103.644 -164.644 103.302C-165.005 103.067 -165.903 102.77 -167.339 102.408C-169.272 101.92 -170.615 101.5 -171.367 101.148C-172.109 100.787 -172.676 100.294 -173.066 99.6689C-173.447 99.0342 -173.638 98.3359 -173.638 97.5742C-173.638 96.8809 -173.481 96.2412 -173.169 95.6553C-172.847 95.0596 -172.412 94.5664 -171.865 94.1758C-171.455 93.873 -170.898 93.6191 -170.195 93.4141C-169.482 93.1992 -168.721 93.0918 -167.91 93.0918C-166.689 93.0918 -165.62 93.2676 -164.702 93.6191C-163.774 93.9707 -163.091 94.4492 -162.651 95.0547C-162.212 95.6504 -161.909 96.4512 -161.743 97.457L-164.321 97.8086C-164.438 97.0078 -164.78 96.3828 -165.347 95.9336C-165.903 95.4844 -166.694 95.2598 -167.72 95.2598C-168.931 95.2598 -169.795 95.46 -170.312 95.8604C-170.83 96.2607 -171.089 96.7295 -171.089 97.2666C-171.089 97.6084 -170.981 97.916 -170.767 98.1895C-170.552 98.4727 -170.215 98.707 -169.756 98.8926C-169.492 98.9902 -168.716 99.2148 -167.427 99.5664C-165.562 100.064 -164.263 100.475 -163.53 100.797C-162.788 101.109 -162.207 101.568 -161.787 102.174C-161.367 102.779 -161.157 103.531 -161.157 104.43C-161.157 105.309 -161.416 106.139 -161.934 106.92C-162.441 107.691 -163.179 108.292 -164.146 108.722C-165.112 109.142 -166.206 109.352 -167.427 109.352C-169.448 109.352 -170.991 108.932 -172.056 108.092C-173.11 107.252 -173.784 106.007 -174.077 104.356ZM-167.573 89.8984L-165.962 87.4082H-162.974L-166.27 91.5098H-169.082L-172.246 87.4082H-169.229L-167.573 89.8984ZM-158.081 109V87.5254H-155.444V109H-158.081ZM-141.191 107.081C-142.168 107.911 -143.11 108.497 -144.019 108.839C-144.917 109.181 -145.884 109.352 -146.919 109.352C-148.628 109.352 -149.941 108.937 -150.859 108.106C-151.777 107.267 -152.236 106.197 -152.236 104.898C-152.236 104.137 -152.065 103.443 -151.724 102.818C-151.372 102.184 -150.918 101.676 -150.361 101.295C-149.795 100.914 -149.16 100.626 -148.457 100.431C-147.939 100.294 -147.158 100.162 -146.113 100.035C-143.984 99.7812 -142.417 99.4785 -141.411 99.127C-141.401 98.7656 -141.396 98.5361 -141.396 98.4385C-141.396 97.3643 -141.646 96.6074 -142.144 96.168C-142.817 95.5723 -143.818 95.2744 -145.146 95.2744C-146.387 95.2744 -147.305 95.4941 -147.9 95.9336C-148.486 96.3633 -148.921 97.1299 -149.204 98.2334L-151.782 97.8818C-151.548 96.7783 -151.162 95.8896 -150.625 95.2158C-150.088 94.5322 -149.312 94.0098 -148.296 93.6484C-147.28 93.2773 -146.104 93.0918 -144.766 93.0918C-143.438 93.0918 -142.358 93.248 -141.528 93.5605C-140.698 93.873 -140.088 94.2686 -139.697 94.7471C-139.307 95.2158 -139.033 95.8115 -138.877 96.5342C-138.789 96.9834 -138.745 97.7939 -138.745 98.9658V102.481C-138.745 104.933 -138.691 106.485 -138.584 107.14C-138.467 107.784 -138.242 108.404 -137.91 109H-140.664C-140.938 108.453 -141.113 107.813 -141.191 107.081ZM-141.411 101.192C-142.368 101.583 -143.804 101.915 -145.718 102.188C-146.802 102.345 -147.568 102.521 -148.018 102.716C-148.467 102.911 -148.813 103.199 -149.058 103.58C-149.302 103.951 -149.424 104.366 -149.424 104.825C-149.424 105.528 -149.16 106.114 -148.633 106.583C-148.096 107.052 -147.314 107.286 -146.289 107.286C-145.273 107.286 -144.37 107.066 -143.579 106.627C-142.788 106.178 -142.207 105.567 -141.836 104.796C-141.553 104.2 -141.411 103.321 -141.411 102.159V101.192ZM-134.644 114.962V93.4434H-132.241V95.4648C-131.675 94.6738 -131.035 94.083 -130.322 93.6924C-129.609 93.292 -128.745 93.0918 -127.729 93.0918C-126.401 93.0918 -125.229 93.4336 -124.214 94.1172C-123.198 94.8008 -122.432 95.7676 -121.914 97.0176C-121.396 98.2578 -121.138 99.6201 -121.138 101.104C-121.138 102.696 -121.426 104.132 -122.002 105.411C-122.568 106.681 -123.398 107.657 -124.492 108.341C-125.576 109.015 -126.719 109.352 -127.92 109.352C-128.799 109.352 -129.59 109.166 -130.293 108.795C-130.986 108.424 -131.558 107.955 -132.007 107.389V114.962H-134.644ZM-132.256 101.31C-132.256 103.312 -131.851 104.791 -131.04 105.748C-130.229 106.705 -129.248 107.184 -128.096 107.184C-126.924 107.184 -125.923 106.69 -125.093 105.704C-124.253 104.708 -123.833 103.17 -123.833 101.09C-123.833 99.1074 -124.243 97.623 -125.063 96.6367C-125.874 95.6504 -126.846 95.1572 -127.979 95.1572C-129.102 95.1572 -130.098 95.6846 -130.967 96.7393C-131.826 97.7842 -132.256 99.3076 -132.256 101.31ZM-117.93 90.5576V87.5254H-115.293V90.5576H-117.93ZM-117.93 109V93.4434H-115.293V109H-117.93ZM-101.069 109V106.715C-102.28 108.473 -103.926 109.352 -106.006 109.352C-106.924 109.352 -107.783 109.176 -108.584 108.824C-109.375 108.473 -109.966 108.033 -110.356 107.506C-110.737 106.969 -111.006 106.314 -111.162 105.543C-111.27 105.025 -111.323 104.205 -111.323 103.082V93.4434H-108.687V102.071C-108.687 103.448 -108.633 104.376 -108.525 104.854C-108.359 105.548 -108.008 106.095 -107.471 106.495C-106.934 106.886 -106.27 107.081 -105.479 107.081C-104.688 107.081 -103.945 106.881 -103.252 106.48C-102.559 106.07 -102.07 105.519 -101.787 104.825C-101.494 104.122 -101.348 103.106 -101.348 101.778V93.4434H-98.7109V109H-101.069ZM-83.7842 109H-86.2305V87.5254H-83.5938V95.1865C-82.4805 93.79 -81.0596 93.0918 -79.3311 93.0918C-78.374 93.0918 -77.4707 93.2871 -76.6211 93.6777C-75.7617 94.0586 -75.0586 94.6006 -74.5117 95.3037C-73.9551 95.9971 -73.5205 96.8369 -73.208 97.8232C-72.8955 98.8096 -72.7393 99.8643 -72.7393 100.987C-72.7393 103.653 -73.3984 105.714 -74.7168 107.169C-76.0352 108.624 -77.6172 109.352 -79.4629 109.352C-81.2988 109.352 -82.7393 108.585 -83.7842 107.052V109ZM-83.8135 101.104C-83.8135 102.97 -83.5596 104.317 -83.0518 105.147C-82.2217 106.505 -81.0986 107.184 -79.6826 107.184C-78.5303 107.184 -77.5342 106.686 -76.6943 105.689C-75.8545 104.684 -75.4346 103.189 -75.4346 101.207C-75.4346 99.1758 -75.8398 97.6768 -76.6504 96.71C-77.4512 95.7432 -78.4229 95.2598 -79.5654 95.2598C-80.7178 95.2598 -81.7139 95.7627 -82.5537 96.7686C-83.3936 97.7646 -83.8135 99.21 -83.8135 101.104ZM-58.8672 103.99L-56.1426 104.327C-56.5723 105.919 -57.3682 107.154 -58.5303 108.033C-59.6924 108.912 -61.1768 109.352 -62.9834 109.352C-65.2588 109.352 -67.0654 108.653 -68.4033 107.257C-69.7314 105.851 -70.3955 103.883 -70.3955 101.354C-70.3955 98.7363 -69.7217 96.7051 -68.374 95.2598C-67.0264 93.8145 -65.2783 93.0918 -63.1299 93.0918C-61.0498 93.0918 -59.3506 93.7998 -58.0322 95.2158C-56.7139 96.6318 -56.0547 98.624 -56.0547 101.192C-56.0547 101.349 -56.0596 101.583 -56.0693 101.896H-67.6709C-67.5732 103.604 -67.0898 104.913 -66.2207 105.821C-65.3516 106.729 -64.2676 107.184 -62.9688 107.184C-62.002 107.184 -61.1768 106.93 -60.4932 106.422C-59.8096 105.914 -59.2676 105.104 -58.8672 103.99ZM-67.5244 99.7275H-58.8379C-58.9551 98.4189 -59.2871 97.4375 -59.834 96.7832C-60.6738 95.7676 -61.7627 95.2598 -63.1006 95.2598C-64.3115 95.2598 -65.332 95.665 -66.1621 96.4756C-66.9824 97.2861 -67.4365 98.3701 -67.5244 99.7275ZM-52.8027 90.5576V87.5254H-50.166V90.5576H-52.8027ZM-52.8027 109V93.4434H-50.166V109H-52.8027ZM-38.8428 104.356L-36.2354 103.946C-36.0889 104.991 -35.6836 105.792 -35.0195 106.349C-34.3457 106.905 -33.4082 107.184 -32.207 107.184C-30.9961 107.184 -30.0977 106.939 -29.5117 106.451C-28.9258 105.953 -28.6328 105.372 -28.6328 104.708C-28.6328 104.112 -28.8916 103.644 -29.4092 103.302C-29.7705 103.067 -30.6689 102.77 -32.1045 102.408C-34.0381 101.92 -35.3809 101.5 -36.1328 101.148C-36.875 100.787 -37.4414 100.294 -37.832 99.6689C-38.2129 99.0342 -38.4033 98.3359 -38.4033 97.5742C-38.4033 96.8809 -38.2471 96.2412 -37.9346 95.6553C-37.6123 95.0596 -37.1777 94.5664 -36.6309 94.1758C-36.2207 93.873 -35.6641 93.6191 -34.9609 93.4141C-34.248 93.1992 -33.4863 93.0918 -32.6758 93.0918C-31.4551 93.0918 -30.3857 93.2676 -29.4678 93.6191C-28.54 93.9707 -27.8564 94.4492 -27.417 95.0547C-26.9775 95.6504 -26.6748 96.4512 -26.5088 97.457L-29.0869 97.8086C-29.2041 97.0078 -29.5459 96.3828 -30.1123 95.9336C-30.6689 95.4844 -31.46 95.2598 -32.4854 95.2598C-33.6963 95.2598 -34.5605 95.46 -35.0781 95.8604C-35.5957 96.2607 -35.8545 96.7295 -35.8545 97.2666C-35.8545 97.6084 -35.7471 97.916 -35.5322 98.1895C-35.3174 98.4727 -34.9805 98.707 -34.5215 98.8926C-34.2578 98.9902 -33.4814 99.2148 -32.1924 99.5664C-30.3271 100.064 -29.0283 100.475 -28.2959 100.797C-27.5537 101.109 -26.9727 101.568 -26.5527 102.174C-26.1328 102.779 -25.9229 103.531 -25.9229 104.43C-25.9229 105.309 -26.1816 106.139 -26.6992 106.92C-27.207 107.691 -27.9443 108.292 -28.9111 108.722C-29.8779 109.142 -30.9717 109.352 -32.1924 109.352C-34.2139 109.352 -35.7568 108.932 -36.8213 108.092C-37.876 107.252 -38.5498 106.007 -38.8428 104.356ZM-12.6367 107.081C-13.6133 107.911 -14.5557 108.497 -15.4639 108.839C-16.3623 109.181 -17.3291 109.352 -18.3643 109.352C-20.0732 109.352 -21.3867 108.937 -22.3047 108.106C-23.2227 107.267 -23.6816 106.197 -23.6816 104.898C-23.6816 104.137 -23.5107 103.443 -23.1689 102.818C-22.8174 102.184 -22.3633 101.676 -21.8066 101.295C-21.2402 100.914 -20.6055 100.626 -19.9023 100.431C-19.3848 100.294 -18.6035 100.162 -17.5586 100.035C-15.4297 99.7812 -13.8623 99.4785 -12.8564 99.127C-12.8467 98.7656 -12.8418 98.5361 -12.8418 98.4385C-12.8418 97.3643 -13.0908 96.6074 -13.5889 96.168C-14.2627 95.5723 -15.2637 95.2744 -16.5918 95.2744C-17.832 95.2744 -18.75 95.4941 -19.3457 95.9336C-19.9316 96.3633 -20.3662 97.1299 -20.6494 98.2334L-23.2275 97.8818C-22.9932 96.7783 -22.6074 95.8896 -22.0703 95.2158C-21.5332 94.5322 -20.7568 94.0098 -19.7412 93.6484C-18.7256 93.2773 -17.5488 93.0918 -16.2109 93.0918C-14.8828 93.0918 -13.8037 93.248 -12.9736 93.5605C-12.1436 93.873 -11.5332 94.2686 -11.1426 94.7471C-10.752 95.2158 -10.4785 95.8115 -10.3223 96.5342C-10.2344 96.9834 -10.1904 97.7939 -10.1904 98.9658V102.481C-10.1904 104.933 -10.1367 106.485 -10.0293 107.14C-9.91211 107.784 -9.6875 108.404 -9.35547 109H-12.1094C-12.3828 108.453 -12.5586 107.813 -12.6367 107.081ZM-12.8564 101.192C-13.8135 101.583 -15.249 101.915 -17.1631 102.188C-18.2471 102.345 -19.0137 102.521 -19.4629 102.716C-19.9121 102.911 -20.2588 103.199 -20.5029 103.58C-20.7471 103.951 -20.8691 104.366 -20.8691 104.825C-20.8691 105.528 -20.6055 106.114 -20.0781 106.583C-19.541 107.052 -18.7598 107.286 -17.7344 107.286C-16.7188 107.286 -15.8154 107.066 -15.0244 106.627C-14.2334 106.178 -13.6523 105.567 -13.2812 104.796C-12.998 104.2 -12.8564 103.321 -12.8564 102.159V101.192ZM4.10645 109V106.715C2.89551 108.473 1.25 109.352 -0.830078 109.352C-1.74805 109.352 -2.60742 109.176 -3.4082 108.824C-4.19922 108.473 -4.79004 108.033 -5.18066 107.506C-5.56152 106.969 -5.83008 106.314 -5.98633 105.543C-6.09375 105.025 -6.14746 104.205 -6.14746 103.082V93.4434H-3.51074V102.071C-3.51074 103.448 -3.45703 104.376 -3.34961 104.854C-3.18359 105.548 -2.83203 106.095 -2.29492 106.495C-1.75781 106.886 -1.09375 107.081 -0.302734 107.081C0.488281 107.081 1.23047 106.881 1.92383 106.48C2.61719 106.07 3.10547 105.519 3.38867 104.825C3.68164 104.122 3.82812 103.106 3.82812 101.778V93.4434H6.46484V109H4.10645ZM9.55566 104.356L12.1631 103.946C12.3096 104.991 12.7148 105.792 13.3789 106.349C14.0527 106.905 14.9902 107.184 16.1914 107.184C17.4023 107.184 18.3008 106.939 18.8867 106.451C19.4727 105.953 19.7656 105.372 19.7656 104.708C19.7656 104.112 19.5068 103.644 18.9893 103.302C18.6279 103.067 17.7295 102.77 16.2939 102.408C14.3604 101.92 13.0176 101.5 12.2656 101.148C11.5234 100.787 10.957 100.294 10.5664 99.6689C10.1855 99.0342 9.99512 98.3359 9.99512 97.5742C9.99512 96.8809 10.1514 96.2412 10.4639 95.6553C10.7861 95.0596 11.2207 94.5664 11.7676 94.1758C12.1777 93.873 12.7344 93.6191 13.4375 93.4141C14.1504 93.1992 14.9121 93.0918 15.7227 93.0918C16.9434 93.0918 18.0127 93.2676 18.9307 93.6191C19.8584 93.9707 20.542 94.4492 20.9814 95.0547C21.4209 95.6504 21.7236 96.4512 21.8896 97.457L19.3115 97.8086C19.1943 97.0078 18.8525 96.3828 18.2861 95.9336C17.7295 95.4844 16.9385 95.2598 15.9131 95.2598C14.7021 95.2598 13.8379 95.46 13.3203 95.8604C12.8027 96.2607 12.5439 96.7295 12.5439 97.2666C12.5439 97.6084 12.6514 97.916 12.8662 98.1895C13.0811 98.4727 13.418 98.707 13.877 98.8926C14.1406 98.9902 14.917 99.2148 16.2061 99.5664C18.0713 100.064 19.3701 100.475 20.1025 100.797C20.8447 101.109 21.4258 101.568 21.8457 102.174C22.2656 102.779 22.4756 103.531 22.4756 104.43C22.4756 105.309 22.2168 106.139 21.6992 106.92C21.1914 107.691 20.4541 108.292 19.4873 108.722C18.5205 109.142 17.4268 109.352 16.2061 109.352C14.1846 109.352 12.6416 108.932 11.5771 108.092C10.5225 107.252 9.84863 106.007 9.55566 104.356ZM35.8057 109V106.715C34.5947 108.473 32.9492 109.352 30.8691 109.352C29.9512 109.352 29.0918 109.176 28.291 108.824C27.5 108.473 26.9092 108.033 26.5186 107.506C26.1377 106.969 25.8691 106.314 25.7129 105.543C25.6055 105.025 25.5518 104.205 25.5518 103.082V93.4434H28.1885V102.071C28.1885 103.448 28.2422 104.376 28.3496 104.854C28.5156 105.548 28.8672 106.095 29.4043 106.495C29.9414 106.886 30.6055 107.081 31.3965 107.081C32.1875 107.081 32.9297 106.881 33.623 106.48C34.3164 106.07 34.8047 105.519 35.0879 104.825C35.3809 104.122 35.5273 103.106 35.5273 101.778V93.4434H38.1641V109H35.8057ZM-170.591 143H-173.037V121.525H-170.4V129.187C-169.287 127.79 -167.866 127.092 -166.138 127.092C-165.181 127.092 -164.277 127.287 -163.428 127.678C-162.568 128.059 -161.865 128.601 -161.318 129.304C-160.762 129.997 -160.327 130.837 -160.015 131.823C-159.702 132.81 -159.546 133.864 -159.546 134.987C-159.546 137.653 -160.205 139.714 -161.523 141.169C-162.842 142.624 -164.424 143.352 -166.27 143.352C-168.105 143.352 -169.546 142.585 -170.591 141.052V143ZM-170.62 135.104C-170.62 136.97 -170.366 138.317 -169.858 139.147C-169.028 140.505 -167.905 141.184 -166.489 141.184C-165.337 141.184 -164.341 140.686 -163.501 139.689C-162.661 138.684 -162.241 137.189 -162.241 135.207C-162.241 133.176 -162.646 131.677 -163.457 130.71C-164.258 129.743 -165.229 129.26 -166.372 129.26C-167.524 129.26 -168.521 129.763 -169.36 130.769C-170.2 131.765 -170.62 133.21 -170.62 135.104ZM-146.128 143V140.715C-147.339 142.473 -148.984 143.352 -151.064 143.352C-151.982 143.352 -152.842 143.176 -153.643 142.824C-154.434 142.473 -155.024 142.033 -155.415 141.506C-155.796 140.969 -156.064 140.314 -156.221 139.543C-156.328 139.025 -156.382 138.205 -156.382 137.082V127.443H-153.745V136.071C-153.745 137.448 -153.691 138.376 -153.584 138.854C-153.418 139.548 -153.066 140.095 -152.529 140.495C-151.992 140.886 -151.328 141.081 -150.537 141.081C-149.746 141.081 -149.004 140.881 -148.311 140.48C-147.617 140.07 -147.129 139.519 -146.846 138.825C-146.553 138.122 -146.406 137.106 -146.406 135.778V127.443H-143.77V143H-146.128ZM-154.419 125.026V122.858H-145.278V125.026H-154.419ZM-129.531 143V141.037C-130.518 142.58 -131.968 143.352 -133.882 143.352C-135.122 143.352 -136.265 143.01 -137.31 142.326C-138.345 141.643 -139.15 140.69 -139.727 139.47C-140.293 138.239 -140.576 136.828 -140.576 135.236C-140.576 133.684 -140.317 132.277 -139.8 131.018C-139.282 129.748 -138.506 128.776 -137.471 128.103C-136.436 127.429 -135.278 127.092 -133.999 127.092C-133.062 127.092 -132.227 127.292 -131.494 127.692C-130.762 128.083 -130.166 128.596 -129.707 129.23V121.525H-127.085V143H-129.531ZM-137.866 135.236C-137.866 137.229 -137.446 138.718 -136.606 139.704C-135.767 140.69 -134.775 141.184 -133.633 141.184C-132.48 141.184 -131.504 140.715 -130.703 139.777C-129.893 138.83 -129.487 137.39 -129.487 135.456C-129.487 133.327 -129.897 131.765 -130.718 130.769C-131.538 129.772 -132.549 129.274 -133.75 129.274C-134.922 129.274 -135.903 129.753 -136.694 130.71C-137.476 131.667 -137.866 133.176 -137.866 135.236ZM-112.729 143V140.715C-113.94 142.473 -115.586 143.352 -117.666 143.352C-118.584 143.352 -119.443 143.176 -120.244 142.824C-121.035 142.473 -121.626 142.033 -122.017 141.506C-122.397 140.969 -122.666 140.314 -122.822 139.543C-122.93 139.025 -122.983 138.205 -122.983 137.082V127.443H-120.347V136.071C-120.347 137.448 -120.293 138.376 -120.186 138.854C-120.02 139.548 -119.668 140.095 -119.131 140.495C-118.594 140.886 -117.93 141.081 -117.139 141.081C-116.348 141.081 -115.605 140.881 -114.912 140.48C-114.219 140.07 -113.73 139.519 -113.447 138.825C-113.154 138.122 -113.008 137.106 -113.008 135.778V127.443H-110.371V143H-112.729ZM-97.9053 143V127.443H-95.5322V129.802C-94.9268 128.698 -94.3701 127.971 -93.8623 127.619C-93.3447 127.268 -92.7783 127.092 -92.1631 127.092C-91.2744 127.092 -90.3711 127.375 -89.4531 127.941L-90.3613 130.388C-91.0059 130.007 -91.6504 129.816 -92.2949 129.816C-92.8711 129.816 -93.3887 129.992 -93.8477 130.344C-94.3066 130.686 -94.6338 131.164 -94.8291 131.779C-95.1221 132.717 -95.2686 133.742 -95.2686 134.855V143H-97.9053ZM-77.2363 137.99L-74.5117 138.327C-74.9414 139.919 -75.7373 141.154 -76.8994 142.033C-78.0615 142.912 -79.5459 143.352 -81.3525 143.352C-83.6279 143.352 -85.4346 142.653 -86.7725 141.257C-88.1006 139.851 -88.7646 137.883 -88.7646 135.354C-88.7646 132.736 -88.0908 130.705 -86.7432 129.26C-85.3955 127.814 -83.6475 127.092 -81.499 127.092C-79.4189 127.092 -77.7197 127.8 -76.4014 129.216C-75.083 130.632 -74.4238 132.624 -74.4238 135.192C-74.4238 135.349 -74.4287 135.583 -74.4385 135.896H-86.04C-85.9424 137.604 -85.459 138.913 -84.5898 139.821C-83.7207 140.729 -82.6367 141.184 -81.3379 141.184C-80.3711 141.184 -79.5459 140.93 -78.8623 140.422C-78.1787 139.914 -77.6367 139.104 -77.2363 137.99ZM-85.8936 133.728H-77.207C-77.3242 132.419 -77.6562 131.438 -78.2031 130.783C-79.043 129.768 -80.1318 129.26 -81.4697 129.26C-82.6807 129.26 -83.7012 129.665 -84.5312 130.476C-85.3516 131.286 -85.8057 132.37 -85.8936 133.728ZM-71.1719 124.558V121.525H-68.5352V124.558H-71.1719ZM-71.1719 143V127.443H-68.5352V143H-71.1719ZM-64.4922 143V121.525H-61.8555V133.771L-55.6152 127.443H-52.2021L-58.1494 133.215L-51.6016 143H-54.8535L-59.9951 135.046L-61.8555 136.833V143H-64.4922ZM-49.4922 124.558V121.525H-46.8555V124.558H-49.4922ZM-49.4922 143V127.443H-46.8555V143H-49.4922ZM-32.6758 141.081C-33.6523 141.911 -34.5947 142.497 -35.5029 142.839C-36.4014 143.181 -37.3682 143.352 -38.4033 143.352C-40.1123 143.352 -41.4258 142.937 -42.3438 142.106C-43.2617 141.267 -43.7207 140.197 -43.7207 138.898C-43.7207 138.137 -43.5498 137.443 -43.208 136.818C-42.8564 136.184 -42.4023 135.676 -41.8457 135.295C-41.2793 134.914 -40.6445 134.626 -39.9414 134.431C-39.4238 134.294 -38.6426 134.162 -37.5977 134.035C-35.4688 133.781 -33.9014 133.479 -32.8955 133.127C-32.8857 132.766 -32.8809 132.536 -32.8809 132.438C-32.8809 131.364 -33.1299 130.607 -33.6279 130.168C-34.3018 129.572 -35.3027 129.274 -36.6309 129.274C-37.8711 129.274 -38.7891 129.494 -39.3848 129.934C-39.9707 130.363 -40.4053 131.13 -40.6885 132.233L-43.2666 131.882C-43.0322 130.778 -42.6465 129.89 -42.1094 129.216C-41.5723 128.532 -40.7959 128.01 -39.7803 127.648C-38.7646 127.277 -37.5879 127.092 -36.25 127.092C-34.9219 127.092 -33.8428 127.248 -33.0127 127.561C-32.1826 127.873 -31.5723 128.269 -31.1816 128.747C-30.791 129.216 -30.5176 129.812 -30.3613 130.534C-30.2734 130.983 -30.2295 131.794 -30.2295 132.966V136.481C-30.2295 138.933 -30.1758 140.485 -30.0684 141.14C-29.9512 141.784 -29.7266 142.404 -29.3945 143H-32.1484C-32.4219 142.453 -32.5977 141.813 -32.6758 141.081ZM-32.8955 135.192C-33.8525 135.583 -35.2881 135.915 -37.2021 136.188C-38.2861 136.345 -39.0527 136.521 -39.502 136.716C-39.9512 136.911 -40.2979 137.199 -40.542 137.58C-40.7861 137.951 -40.9082 138.366 -40.9082 138.825C-40.9082 139.528 -40.6445 140.114 -40.1172 140.583C-39.5801 141.052 -38.7988 141.286 -37.7734 141.286C-36.7578 141.286 -35.8545 141.066 -35.0635 140.627C-34.2725 140.178 -33.6914 139.567 -33.3203 138.796C-33.0371 138.2 -32.8955 137.321 -32.8955 136.159V135.192ZM-26.1279 143V127.443H-23.7695V129.626C-23.2812 128.864 -22.6318 128.254 -21.8213 127.795C-21.0107 127.326 -20.0879 127.092 -19.0527 127.092C-17.9004 127.092 -16.958 127.331 -16.2256 127.81C-15.4834 128.288 -14.9609 128.957 -14.6582 129.816C-13.4277 128 -11.8262 127.092 -9.85352 127.092C-8.31055 127.092 -7.12402 127.521 -6.29395 128.381C-5.46387 129.23 -5.04883 130.544 -5.04883 132.321V143H-7.6709V133.2C-7.6709 132.146 -7.75879 131.389 -7.93457 130.93C-8.10059 130.461 -8.4082 130.085 -8.85742 129.802C-9.30664 129.519 -9.83398 129.377 -10.4395 129.377C-11.5332 129.377 -12.4414 129.743 -13.1641 130.476C-13.8867 131.198 -14.248 132.36 -14.248 133.962V143H-16.8848V132.893C-16.8848 131.721 -17.0996 130.842 -17.5293 130.256C-17.959 129.67 -18.6621 129.377 -19.6387 129.377C-20.3809 129.377 -21.0693 129.572 -21.7041 129.963C-22.3291 130.354 -22.7832 130.925 -23.0664 131.677C-23.3496 132.429 -23.4912 133.513 -23.4912 134.929V143H-26.1279ZM-2.11914 135.222C-2.11914 132.341 -1.31836 130.207 0.283203 128.82C1.62109 127.668 3.25195 127.092 5.17578 127.092C7.31445 127.092 9.0625 127.795 10.4199 129.201C11.7773 130.598 12.4561 132.531 12.4561 135.002C12.4561 137.004 12.1533 138.581 11.5479 139.733C10.9521 140.876 10.0781 141.765 8.92578 142.399C7.7832 143.034 6.5332 143.352 5.17578 143.352C2.99805 143.352 1.23535 142.653 -0.112305 141.257C-1.4502 139.86 -2.11914 137.849 -2.11914 135.222ZM0.59082 135.222C0.59082 137.214 1.02539 138.708 1.89453 139.704C2.76367 140.69 3.85742 141.184 5.17578 141.184C6.48438 141.184 7.57324 140.686 8.44238 139.689C9.31152 138.693 9.74609 137.175 9.74609 135.134C9.74609 133.21 9.30664 131.755 8.42773 130.769C7.55859 129.772 6.47461 129.274 5.17578 129.274C3.85742 129.274 2.76367 129.768 1.89453 130.754C1.02539 131.74 0.59082 133.229 0.59082 135.222ZM-162.93 177V175.037C-163.916 176.58 -165.366 177.352 -167.28 177.352C-168.521 177.352 -169.663 177.01 -170.708 176.326C-171.743 175.643 -172.549 174.69 -173.125 173.47C-173.691 172.239 -173.975 170.828 -173.975 169.236C-173.975 167.684 -173.716 166.277 -173.198 165.018C-172.681 163.748 -171.904 162.776 -170.869 162.103C-169.834 161.429 -168.677 161.092 -167.397 161.092C-166.46 161.092 -165.625 161.292 -164.893 161.692C-164.16 162.083 -163.564 162.596 -163.105 163.23V155.525H-160.483V177H-162.93ZM-171.265 169.236C-171.265 171.229 -170.845 172.718 -170.005 173.704C-169.165 174.69 -168.174 175.184 -167.031 175.184C-165.879 175.184 -164.902 174.715 -164.102 173.777C-163.291 172.83 -162.886 171.39 -162.886 169.456C-162.886 167.327 -163.296 165.765 -164.116 164.769C-164.937 163.772 -165.947 163.274 -167.148 163.274C-168.32 163.274 -169.302 163.753 -170.093 164.71C-170.874 165.667 -171.265 167.176 -171.265 169.236ZM-156.309 158.558V155.525H-153.672V158.558H-156.309ZM-156.309 177V161.443H-153.672V177H-156.309ZM-139.492 175.081C-140.469 175.911 -141.411 176.497 -142.319 176.839C-143.218 177.181 -144.185 177.352 -145.22 177.352C-146.929 177.352 -148.242 176.937 -149.16 176.106C-150.078 175.267 -150.537 174.197 -150.537 172.898C-150.537 172.137 -150.366 171.443 -150.024 170.818C-149.673 170.184 -149.219 169.676 -148.662 169.295C-148.096 168.914 -147.461 168.626 -146.758 168.431C-146.24 168.294 -145.459 168.162 -144.414 168.035C-142.285 167.781 -140.718 167.479 -139.712 167.127C-139.702 166.766 -139.697 166.536 -139.697 166.438C-139.697 165.364 -139.946 164.607 -140.444 164.168C-141.118 163.572 -142.119 163.274 -143.447 163.274C-144.688 163.274 -145.605 163.494 -146.201 163.934C-146.787 164.363 -147.222 165.13 -147.505 166.233L-150.083 165.882C-149.849 164.778 -149.463 163.89 -148.926 163.216C-148.389 162.532 -147.612 162.01 -146.597 161.648C-145.581 161.277 -144.404 161.092 -143.066 161.092C-141.738 161.092 -140.659 161.248 -139.829 161.561C-138.999 161.873 -138.389 162.269 -137.998 162.747C-137.607 163.216 -137.334 163.812 -137.178 164.534C-137.09 164.983 -137.046 165.794 -137.046 166.966V170.481C-137.046 172.933 -136.992 174.485 -136.885 175.14C-136.768 175.784 -136.543 176.404 -136.211 177H-138.965C-139.238 176.453 -139.414 175.813 -139.492 175.081ZM-139.712 169.192C-140.669 169.583 -142.104 169.915 -144.019 170.188C-145.103 170.345 -145.869 170.521 -146.318 170.716C-146.768 170.911 -147.114 171.199 -147.358 171.58C-147.603 171.951 -147.725 172.366 -147.725 172.825C-147.725 173.528 -147.461 174.114 -146.934 174.583C-146.396 175.052 -145.615 175.286 -144.59 175.286C-143.574 175.286 -142.671 175.066 -141.88 174.627C-141.089 174.178 -140.508 173.567 -140.137 172.796C-139.854 172.2 -139.712 171.321 -139.712 170.159V169.192ZM-132.944 177V161.443H-130.586V163.626C-130.098 162.864 -129.448 162.254 -128.638 161.795C-127.827 161.326 -126.904 161.092 -125.869 161.092C-124.717 161.092 -123.774 161.331 -123.042 161.81C-122.3 162.288 -121.777 162.957 -121.475 163.816C-120.244 162 -118.643 161.092 -116.67 161.092C-115.127 161.092 -113.94 161.521 -113.11 162.381C-112.28 163.23 -111.865 164.544 -111.865 166.321V177H-114.487V167.2C-114.487 166.146 -114.575 165.389 -114.751 164.93C-114.917 164.461 -115.225 164.085 -115.674 163.802C-116.123 163.519 -116.65 163.377 -117.256 163.377C-118.35 163.377 -119.258 163.743 -119.98 164.476C-120.703 165.198 -121.064 166.36 -121.064 167.962V177H-123.701V166.893C-123.701 165.721 -123.916 164.842 -124.346 164.256C-124.775 163.67 -125.479 163.377 -126.455 163.377C-127.197 163.377 -127.886 163.572 -128.521 163.963C-129.146 164.354 -129.6 164.925 -129.883 165.677C-130.166 166.429 -130.308 167.513 -130.308 168.929V177H-132.944ZM-97.3047 171.99L-94.5801 172.327C-95.0098 173.919 -95.8057 175.154 -96.9678 176.033C-98.1299 176.912 -99.6143 177.352 -101.421 177.352C-103.696 177.352 -105.503 176.653 -106.841 175.257C-108.169 173.851 -108.833 171.883 -108.833 169.354C-108.833 166.736 -108.159 164.705 -106.812 163.26C-105.464 161.814 -103.716 161.092 -101.567 161.092C-99.4873 161.092 -97.7881 161.8 -96.4697 163.216C-95.1514 164.632 -94.4922 166.624 -94.4922 169.192C-94.4922 169.349 -94.4971 169.583 -94.5068 169.896H-106.108C-106.011 171.604 -105.527 172.913 -104.658 173.821C-103.789 174.729 -102.705 175.184 -101.406 175.184C-100.439 175.184 -99.6143 174.93 -98.9307 174.422C-98.2471 173.914 -97.7051 173.104 -97.3047 171.99ZM-105.962 167.728H-97.2754C-97.3926 166.419 -97.7246 165.438 -98.2715 164.783C-99.1113 163.768 -100.2 163.26 -101.538 163.26C-102.749 163.26 -103.77 163.665 -104.6 164.476C-105.42 165.286 -105.874 166.37 -105.962 167.728ZM-85.498 174.642L-85.1172 176.971C-85.8594 177.127 -86.5234 177.205 -87.1094 177.205C-88.0664 177.205 -88.8086 177.054 -89.3359 176.751C-89.8633 176.448 -90.2344 176.053 -90.4492 175.564C-90.6641 175.066 -90.7715 174.026 -90.7715 172.444V163.494H-92.7051V161.443H-90.7715V157.591L-88.1494 156.009V161.443H-85.498V163.494H-88.1494V172.591C-88.1494 173.343 -88.1055 173.826 -88.0176 174.041C-87.9199 174.256 -87.7686 174.427 -87.5635 174.554C-87.3486 174.681 -87.0459 174.744 -86.6553 174.744C-86.3623 174.744 -85.9766 174.71 -85.498 174.642ZM-82.9346 177V161.443H-80.5615V163.802C-79.9561 162.698 -79.3994 161.971 -78.8916 161.619C-78.374 161.268 -77.8076 161.092 -77.1924 161.092C-76.3037 161.092 -75.4004 161.375 -74.4824 161.941L-75.3906 164.388C-76.0352 164.007 -76.6797 163.816 -77.3242 163.816C-77.9004 163.816 -78.418 163.992 -78.877 164.344C-79.3359 164.686 -79.6631 165.164 -79.8584 165.779C-80.1514 166.717 -80.2979 167.742 -80.2979 168.855V177H-82.9346ZM-73.8965 169.222C-73.8965 166.341 -73.0957 164.207 -71.4941 162.82C-70.1562 161.668 -68.5254 161.092 -66.6016 161.092C-64.4629 161.092 -62.7148 161.795 -61.3574 163.201C-60 164.598 -59.3213 166.531 -59.3213 169.002C-59.3213 171.004 -59.624 172.581 -60.2295 173.733C-60.8252 174.876 -61.6992 175.765 -62.8516 176.399C-63.9941 177.034 -65.2441 177.352 -66.6016 177.352C-68.7793 177.352 -70.542 176.653 -71.8896 175.257C-73.2275 173.86 -73.8965 171.849 -73.8965 169.222ZM-71.1865 169.222C-71.1865 171.214 -70.752 172.708 -69.8828 173.704C-69.0137 174.69 -67.9199 175.184 -66.6016 175.184C-65.293 175.184 -64.2041 174.686 -63.335 173.689C-62.4658 172.693 -62.0312 171.175 -62.0312 169.134C-62.0312 167.21 -62.4707 165.755 -63.3496 164.769C-64.2188 163.772 -65.3027 163.274 -66.6016 163.274C-67.9199 163.274 -69.0137 163.768 -69.8828 164.754C-70.752 165.74 -71.1865 167.229 -71.1865 169.222ZM-47.8516 158.558V155.525H-45.2148V158.558H-47.8516ZM-47.8516 177V161.443H-45.2148V177H-47.8516ZM-41.2158 177V161.443H-38.8428V163.802C-38.2373 162.698 -37.6807 161.971 -37.1729 161.619C-36.6553 161.268 -36.0889 161.092 -35.4736 161.092C-34.585 161.092 -33.6816 161.375 -32.7637 161.941L-33.6719 164.388C-34.3164 164.007 -34.9609 163.816 -35.6055 163.816C-36.1816 163.816 -36.6992 163.992 -37.1582 164.344C-37.6172 164.686 -37.9443 165.164 -38.1396 165.779C-38.4326 166.717 -38.5791 167.742 -38.5791 168.855V177H-41.2158ZM-23.3301 178.289L-20.7666 178.67C-20.6592 179.461 -20.3613 180.037 -19.873 180.398C-19.2188 180.887 -18.3252 181.131 -17.1924 181.131C-15.9717 181.131 -15.0293 180.887 -14.3652 180.398C-13.7012 179.91 -13.252 179.227 -13.0176 178.348C-12.8809 177.811 -12.8174 176.683 -12.8271 174.964C-13.9795 176.321 -15.415 177 -17.1338 177C-19.2725 177 -20.9277 176.229 -22.0996 174.686C-23.2715 173.143 -23.8574 171.292 -23.8574 169.134C-23.8574 167.649 -23.5889 166.282 -23.0518 165.032C-22.5146 163.772 -21.7383 162.801 -20.7227 162.117C-19.6973 161.434 -18.4961 161.092 -17.1191 161.092C-15.2832 161.092 -13.7695 161.834 -12.5781 163.318V161.443H-10.1465V174.891C-10.1465 177.312 -10.3955 179.026 -10.8936 180.032C-11.3818 181.048 -12.1631 181.849 -13.2373 182.435C-14.3018 183.021 -15.6152 183.313 -17.1777 183.313C-19.0332 183.313 -20.5322 182.894 -21.6748 182.054C-22.8174 181.224 -23.3691 179.969 -23.3301 178.289ZM-21.1475 168.943C-21.1475 170.984 -20.7422 172.474 -19.9316 173.411C-19.1211 174.349 -18.1055 174.817 -16.8848 174.817C-15.6738 174.817 -14.6582 174.354 -13.8379 173.426C-13.0176 172.488 -12.6074 171.023 -12.6074 169.031C-12.6074 167.127 -13.0322 165.691 -13.8818 164.725C-14.7217 163.758 -15.7373 163.274 -16.9287 163.274C-18.1006 163.274 -19.0967 163.753 -19.917 164.71C-20.7373 165.657 -21.1475 167.068 -21.1475 168.943ZM-6.26465 182.991L-6.55762 180.516C-5.98145 180.672 -5.47852 180.75 -5.04883 180.75C-4.46289 180.75 -3.99414 180.652 -3.64258 180.457C-3.29102 180.262 -3.00293 179.988 -2.77832 179.637C-2.6123 179.373 -2.34375 178.719 -1.97266 177.674C-1.92383 177.527 -1.8457 177.312 -1.73828 177.029L-7.6416 161.443H-4.7998L-1.5625 170.452C-1.14258 171.595 -0.766602 172.796 -0.43457 174.056C-0.131836 172.845 0.229492 171.663 0.649414 170.511L3.97461 161.443H6.61133L0.693359 177.264C0.0585938 178.973 -0.43457 180.149 -0.786133 180.794C-1.25488 181.663 -1.79199 182.298 -2.39746 182.698C-3.00293 183.108 -3.72559 183.313 -4.56543 183.313C-5.07324 183.313 -5.63965 183.206 -6.26465 182.991ZM8.79395 177V155.525H11.4307V177H8.79395ZM15.5469 158.558V155.525H18.1836V158.558H15.5469ZM15.5469 177V161.443H18.1836V177H15.5469ZM21.2305 169.222C21.2305 166.341 22.0312 164.207 23.6328 162.82C24.9707 161.668 26.6016 161.092 28.5254 161.092C30.6641 161.092 32.4121 161.795 33.7695 163.201C35.127 164.598 35.8057 166.531 35.8057 169.002C35.8057 171.004 35.5029 172.581 34.8975 173.733C34.3018 174.876 33.4277 175.765 32.2754 176.399C31.1328 177.034 29.8828 177.352 28.5254 177.352C26.3477 177.352 24.585 176.653 23.2373 175.257C21.8994 173.86 21.2305 171.849 21.2305 169.222ZM23.9404 169.222C23.9404 171.214 24.375 172.708 25.2441 173.704C26.1133 174.69 27.207 175.184 28.5254 175.184C29.834 175.184 30.9229 174.686 31.792 173.689C32.6611 172.693 33.0957 171.175 33.0957 169.134C33.0957 167.21 32.6562 165.755 31.7773 164.769C30.9082 163.772 29.8242 163.274 28.5254 163.274C27.207 163.274 26.1133 163.768 25.2441 164.754C24.375 165.74 23.9404 167.229 23.9404 169.222ZM39.5996 177V173.997H42.6025V177C42.6025 178.104 42.4072 178.992 42.0166 179.666C41.626 180.35 41.0059 180.877 40.1562 181.248L39.4238 180.12C39.9805 179.876 40.3906 179.515 40.6543 179.036C40.918 178.567 41.0645 177.889 41.0938 177H39.5996ZM-173.008 192.558V189.525H-170.371V192.558H-173.008ZM-173.008 211V195.443H-170.371V211H-173.008ZM-166.328 211V189.525H-163.691V201.771L-157.451 195.443H-154.038L-159.985 201.215L-153.438 211H-156.689L-161.831 203.046L-163.691 204.833V211H-166.328ZM-151.328 192.558V189.525H-148.691V192.558H-151.328ZM-151.328 211V195.443H-148.691V211H-151.328ZM-128.594 211V205.858H-137.91V203.441L-128.11 189.525H-125.957V203.441H-123.057V205.858H-125.957V211H-128.594ZM-128.594 203.441V193.759L-135.317 203.441H-128.594ZM-120.347 205.375L-117.578 205.141C-117.373 206.488 -116.899 207.504 -116.157 208.188C-115.405 208.861 -114.502 209.198 -113.447 209.198C-112.178 209.198 -111.104 208.72 -110.225 207.763C-109.346 206.806 -108.906 205.536 -108.906 203.954C-108.906 202.45 -109.331 201.264 -110.181 200.395C-111.021 199.525 -112.124 199.091 -113.491 199.091C-114.341 199.091 -115.107 199.286 -115.791 199.677C-116.475 200.058 -117.012 200.556 -117.402 201.171L-119.878 200.849L-117.798 189.818H-107.119V192.338H-115.688L-116.846 198.109C-115.557 197.211 -114.204 196.762 -112.788 196.762C-110.913 196.762 -109.331 197.411 -108.042 198.71C-106.753 200.009 -106.108 201.679 -106.108 203.72C-106.108 205.663 -106.675 207.343 -107.808 208.759C-109.185 210.497 -111.064 211.366 -113.447 211.366C-115.4 211.366 -116.997 210.819 -118.237 209.726C-119.468 208.632 -120.171 207.182 -120.347 205.375ZM-103.018 193.217C-103.018 192.094 -102.622 191.137 -101.831 190.346C-101.03 189.555 -100.073 189.159 -98.96 189.159C-97.8271 189.159 -96.8652 189.555 -96.0742 190.346C-95.2832 191.137 -94.8877 192.094 -94.8877 193.217C-94.8877 194.34 -95.2881 195.302 -96.0889 196.103C-96.8799 196.894 -97.8369 197.289 -98.96 197.289C-100.073 197.289 -101.03 196.894 -101.831 196.103C-102.622 195.312 -103.018 194.35 -103.018 193.217ZM-101.421 193.217C-101.421 193.9 -101.182 194.486 -100.703 194.975C-100.215 195.453 -99.6289 195.692 -98.9453 195.692C-98.2715 195.692 -97.6953 195.453 -97.2168 194.975C-96.7285 194.486 -96.4844 193.9 -96.4844 193.217C-96.4844 192.533 -96.7285 191.952 -97.2168 191.474C-97.6953 190.985 -98.2715 190.741 -98.9453 190.741C-99.6289 190.741 -100.215 190.985 -100.703 191.474C-101.182 191.952 -101.421 192.533 -101.421 193.217ZM-82.5391 211V189.525H-79.9023V201.771L-73.6621 195.443H-70.249L-76.1963 201.215L-69.6484 211H-72.9004L-78.042 203.046L-79.9023 204.833V211H-82.5391ZM-57.4023 209.081C-58.3789 209.911 -59.3213 210.497 -60.2295 210.839C-61.1279 211.181 -62.0947 211.352 -63.1299 211.352C-64.8389 211.352 -66.1523 210.937 -67.0703 210.106C-67.9883 209.267 -68.4473 208.197 -68.4473 206.898C-68.4473 206.137 -68.2764 205.443 -67.9346 204.818C-67.583 204.184 -67.1289 203.676 -66.5723 203.295C-66.0059 202.914 -65.3711 202.626 -64.668 202.431C-64.1504 202.294 -63.3691 202.162 -62.3242 202.035C-60.1953 201.781 -58.6279 201.479 -57.6221 201.127C-57.6123 200.766 -57.6074 200.536 -57.6074 200.438C-57.6074 199.364 -57.8564 198.607 -58.3545 198.168C-59.0283 197.572 -60.0293 197.274 -61.3574 197.274C-62.5977 197.274 -63.5156 197.494 -64.1113 197.934C-64.6973 198.363 -65.1318 199.13 -65.415 200.233L-67.9932 199.882C-67.7588 198.778 -67.373 197.89 -66.8359 197.216C-66.2988 196.532 -65.5225 196.01 -64.5068 195.648C-63.4912 195.277 -62.3145 195.092 -60.9766 195.092C-59.6484 195.092 -58.5693 195.248 -57.7393 195.561C-56.9092 195.873 -56.2988 196.269 -55.9082 196.747C-55.5176 197.216 -55.2441 197.812 -55.0879 198.534C-55 198.983 -54.9561 199.794 -54.9561 200.966V204.481C-54.9561 206.933 -54.9023 208.485 -54.7949 209.14C-54.6777 209.784 -54.4531 210.404 -54.1211 211H-56.875C-57.1484 210.453 -57.3242 209.813 -57.4023 209.081ZM-57.6221 203.192C-58.5791 203.583 -60.0146 203.915 -61.9287 204.188C-63.0127 204.345 -63.7793 204.521 -64.2285 204.716C-64.6777 204.911 -65.0244 205.199 -65.2686 205.58C-65.5127 205.951 -65.6348 206.366 -65.6348 206.825C-65.6348 207.528 -65.3711 208.114 -64.8438 208.583C-64.3066 209.052 -63.5254 209.286 -62.5 209.286C-61.4844 209.286 -60.5811 209.066 -59.79 208.627C-58.999 208.178 -58.418 207.567 -58.0469 206.796C-57.7637 206.2 -57.6221 205.321 -57.6221 204.159V203.192ZM-50.8545 211V195.443H-48.4961V197.626C-48.0078 196.864 -47.3584 196.254 -46.5479 195.795C-45.7373 195.326 -44.8145 195.092 -43.7793 195.092C-42.627 195.092 -41.6846 195.331 -40.9521 195.81C-40.21 196.288 -39.6875 196.957 -39.3848 197.816C-38.1543 196 -36.5527 195.092 -34.5801 195.092C-33.0371 195.092 -31.8506 195.521 -31.0205 196.381C-30.1904 197.23 -29.7754 198.544 -29.7754 200.321V211H-32.3975V201.2C-32.3975 200.146 -32.4854 199.389 -32.6611 198.93C-32.8271 198.461 -33.1348 198.085 -33.584 197.802C-34.0332 197.519 -34.5605 197.377 -35.166 197.377C-36.2598 197.377 -37.168 197.743 -37.8906 198.476C-38.6133 199.198 -38.9746 200.36 -38.9746 201.962V211H-41.6113V200.893C-41.6113 199.721 -41.8262 198.842 -42.2559 198.256C-42.6855 197.67 -43.3887 197.377 -44.3652 197.377C-45.1074 197.377 -45.7959 197.572 -46.4307 197.963C-47.0557 198.354 -47.5098 198.925 -47.793 199.677C-48.0762 200.429 -48.2178 201.513 -48.2178 202.929V211H-50.8545ZM-25.8643 216.962V195.443H-23.4619V197.465C-22.8955 196.674 -22.2559 196.083 -21.543 195.692C-20.8301 195.292 -19.9658 195.092 -18.9502 195.092C-17.6221 195.092 -16.4502 195.434 -15.4346 196.117C-14.4189 196.801 -13.6523 197.768 -13.1348 199.018C-12.6172 200.258 -12.3584 201.62 -12.3584 203.104C-12.3584 204.696 -12.6465 206.132 -13.2227 207.411C-13.7891 208.681 -14.6191 209.657 -15.7129 210.341C-16.7969 211.015 -17.9395 211.352 -19.1406 211.352C-20.0195 211.352 -20.8105 211.166 -21.5137 210.795C-22.207 210.424 -22.7783 209.955 -23.2275 209.389V216.962H-25.8643ZM-23.4766 203.31C-23.4766 205.312 -23.0713 206.791 -22.2607 207.748C-21.4502 208.705 -20.4688 209.184 -19.3164 209.184C-18.1445 209.184 -17.1436 208.69 -16.3135 207.704C-15.4736 206.708 -15.0537 205.17 -15.0537 203.09C-15.0537 201.107 -15.4639 199.623 -16.2842 198.637C-17.0947 197.65 -18.0664 197.157 -19.1992 197.157C-20.3223 197.157 -21.3184 197.685 -22.1875 198.739C-23.0469 199.784 -23.4766 201.308 -23.4766 203.31ZM1.03027 211V208.715C-0.180664 210.473 -1.82617 211.352 -3.90625 211.352C-4.82422 211.352 -5.68359 211.176 -6.48438 210.824C-7.27539 210.473 -7.86621 210.033 -8.25684 209.506C-8.6377 208.969 -8.90625 208.314 -9.0625 207.543C-9.16992 207.025 -9.22363 206.205 -9.22363 205.082V195.443H-6.58691V204.071C-6.58691 205.448 -6.5332 206.376 -6.42578 206.854C-6.25977 207.548 -5.9082 208.095 -5.37109 208.495C-4.83398 208.886 -4.16992 209.081 -3.37891 209.081C-2.58789 209.081 -1.8457 208.881 -1.15234 208.48C-0.458984 208.07 0.0292969 207.519 0.3125 206.825C0.605469 206.122 0.751953 205.106 0.751953 203.778V195.443H3.38867V211H1.03027ZM8.28125 211V207.997H11.2842V211H8.28125Z" fill="#1D1D1F"/>
</g>
<rect x="-620.5" y="-1030.5" width="1439" height="2129" stroke="black"/>
<defs>
<filter id="filter0_d_0_1" x="-220" y="-32" width="360" height="330" filterUnits="userSpaceOnUse" color-interpolation-filters="sRGB">
<feFlood flood-opacity="0" result="BackgroundImageFix"/>
<feColorMatrix in="SourceAlpha" type="matrix" values="0 0 0 0 0 0 0 0 0 0 0 0 0 0 0 0 0 0 127 0" result="hardAlpha"/>
<feOffset dx="20" dy="24"/>
<feGaussianBlur stdDeviation="20"/>
<feComposite in2="hardAlpha" operator="out"/>
<feColorMatrix type="matrix" values="0 0 0 0 0 0 0 0 0 0 0 0 0 0 0 0 0 0 0.1 0"/>
<feBlend mode="normal" in2="BackgroundImageFix" result="effect1_dropShadow_0_1"/>
<feBlend mode="normal" in="SourceGraphic" in2="effect1_dropShadow_0_1" result="shape"/>
</filter>
<clipPath id="clip0_0_1">
<rect x="-621" y="-1031" width="1440" height="2130" fill="white"/>
</clipPath>
</defs>
</svg>
